<svg width="1440" height="730" viewBox="0 0 1440 730" fill="none" xmlns="http://www.w3.org/2000/svg">
<path d="M11.5 215.5L60.5 203C60.6667 203.833 67.1 205.9 91.5 207.5C122 209.5 128.5 211 168 215.5C201.2 218.7 238.5 216.833 253 215.5L288 219L327 222.5L380 227L448.5 238.5C460.5 240.333 486.4 244.8 494 248C501.6 251.2 517.167 252.667 524 253L576.5 262.5C586.167 261.333 609.5 259.7 625.5 262.5C641.5 265.3 666.5 265.667 677 265.5L766.5 270H786C794.667 271.5 811.7 274.4 810.5 274C809.124 273.541 831.736 273.924 833.935 273.991C834.245 273.817 859.805 271.287 873 270H914L959.5 265.5L976.5 260.5L1131.5 247L1247.5 239.5L1288 247H1329.5L1380 256.5L1412.5 260.5L1443.5 265.5L1447.5 347.5H-21V215.5H11.5Z" fill="#6C3197"/>
<path d="M-23 255.393C-9.66667 250.542 17.1 241.324 17.5 243.264C17.9 245.205 39.6667 252.159 50.5 255.393C57.251 257.17 70.0064 260.765 70.126 261.717C72.3258 260.222 91.3557 249.141 101.5 243.264C114.167 247.307 139.6 255.393 140 255.393H160C159.6 255.393 183.167 251.081 195 248.924L226 243.264H273L318.5 248.924L491.5 255.393H513.5C513.1 255.393 539 282.885 552 296.631L491.5 308.759L307 388L151 342.72L-23 328.974V255.393Z" fill="#48117A"/>
<path d="M1454 330.5L1348 307L1421 295L1450 292L1454 330.5Z" fill="#B1599F"/>
<path d="M1155.5 301.5L1101.5 289L1083 297.5L1087 316.5L1106 324L1157 319L1201 306.5C1189.33 305.5 1166 303.4 1166 303C1166 302.6 1159 301.833 1155.5 301.5Z" fill="#994E9A"/>
<path d="M804 306C758.8 310.8 745.167 311.667 744 311.5L741 335L926.5 329L1090.5 306.5L1146.5 300.5L1118.5 294.5C1098.9 290.1 1094.33 290.333 1094.5 291H1035.5L992 287.5C986.167 286.333 971.6 284 960 284C946 285.5 930 287 908.5 291L907.533 291.18C886.201 295.15 859.656 300.09 804 306Z" fill="url(#paint0_linear_1025_574)"/>
<path d="M768 317.5H737V342.5L858.5 353L987.5 358L1056.5 345L1040.5 320.5L1005.5 310H967.5L923.5 313L872 317.5L812.5 320.5L768 317.5Z" fill="#C666A9"/>
<path d="M390.584 279.373H363.801L349 317.988L399.746 320.997H473.046L546.346 321.499L625.989 322L657 314.478L653.476 293.415L646.428 290.908C644.079 290.406 637.547 289.303 630.217 288.902C622.887 288.501 620.585 289.069 620.35 289.403H611.188L600.616 290.406H581.586L553.394 292.412H535.773C531.545 291.911 523.087 290.807 523.087 290.406C523.087 289.905 500.533 285.893 500.533 286.394C500.533 286.795 493.485 283.887 489.961 282.382H476.57L465.293 279.373C456.835 278.203 435.409 276.164 417.366 277.367C399.323 278.571 391.993 279.206 390.584 279.373Z" fill="url(#paint1_linear_1025_574)"/>
<path d="M1155.5 307.5L1114 312C1115.5 315.667 1118.5 323.1 1118.5 323.5C1118.5 323.9 1161.5 334.333 1183 339.5L1305.5 335.5L1373.5 341.5L1423.5 327.5L1338 319L1317.5 312L1282 299L1276.5 289L1204.5 299L1155.5 307.5Z" fill="url(#paint2_linear_1025_574)"/>
<path d="M1271 332.5H1224.5L1200 356.5L1298 365L1444.5 379L1441 324L1379 328L1419.5 332.5H1379H1271Z" fill="#D36FA5"/>
<path d="M1194 330L1134 325L1139.5 341C1143.9 353.8 1175.67 359 1191 360L1311 392L1348.5 365L1311 354L1289.5 349L1257 346L1240 344.5L1223.5 349L1240 343L1258.5 344.5L1281 346H1296L1303.5 343L1293 341L1273 339.5L1257 337.5L1247.5 335L1232 331.5H1226C1223.33 331 1215.1 330 1203.5 330H1194Z" fill="url(#paint3_linear_1025_574)"/>
<path d="M1175.5 335.881C1146.3 337.881 1137 336.714 1136 335.881L1139 380.881L1175.5 388.381C1212.7 415.981 1263.67 401.881 1284.5 391.381L1342.5 377.381C1339 372.381 1325.8 361.881 1301 359.881C1276.2 357.881 1276.33 357.048 1279.5 356.881H1268L1228 346.881H1218L1225 344.381L1233 338.381H1246.5C1235 336.548 1204.7 333.481 1175.5 335.881Z" fill="#D663A2"/>
<path d="M1175.01 364C1157.81 359.2 1145.18 352.667 1141.01 350C1140.51 350.5 1139.41 355 1139.01 369C1138.61 383 1149.18 388.5 1154.51 389.5H1200.01L1225.51 384L1217.51 375.5C1215.01 373.667 1203.01 368.8 1175.01 364Z" fill="#D06FA0"/>
<path d="M848 327L843 330V334L869 347.5L928.5 355.5L966 351C961 348.833 949.3 344.5 942.5 344.5C935.7 344.5 927.667 343.167 924.5 342.5L911 340.5C907.5 339.333 897.7 336.2 886.5 333C872.5 329 877.5 330 859 328.5C852.2 327.3 848.833 327 848 327Z" fill="#E279A6"/>
<path d="M760.5 358L847.5 351H886C885.5 351 927.5 361 927.5 361.5C927.5 361.9 950.5 359.333 962 358C980.288 360.966 1016.75 366.765 1017.97 366.511C1018 366.495 1018.01 366.492 1018 366.5C1018 366.505 1017.99 366.508 1017.97 366.511C1016.72 367.245 978.078 393.622 958.5 407L843 435L758 383.5L748 372L760.5 358Z" fill="url(#paint4_linear_1025_574)"/>
<path d="M801 359.5L755.5 365.5L744 327H841.5H849.5V329L851 333L863 335.5L880 342L901 348C906.5 348.667 917.6 350 918 350C918.4 350 927.5 351.333 932 352L984.5 348L1036 345L1079.5 335.5V371L1055 380.5L970.5 362L934 365.5L904.5 362L880 356H857.5L801 359.5Z" fill="url(#paint5_linear_1025_574)"/>
<path d="M770.278 326L842.278 328L770.278 334L738.278 336.5V317.953C736.194 315.996 737.001 314.094 738.278 313V317.953C740.003 319.574 743.712 321.232 750.778 322.5L770.278 326Z" fill="#DE75A3"/>
<path d="M480.769 309.24C469.644 309.675 464.288 314.494 463 316.849L571.931 350H677L671.592 313.588L656.141 311.414H646.87C643.265 311.233 636.209 310.87 636.827 310.87H622.148H597.426L615.195 312.501L619.058 315.218C616.998 315.762 611.023 316.849 603.606 316.849H581.975H561.116L518.625 309.24C510.641 309.059 491.894 308.805 480.769 309.24Z" fill="#E579A6"/>
<path d="M451.54 307.623L515 309.66L459.473 317.811L366.549 328L333.686 320.358L351.057 307.457C311.791 306.634 338.697 302.953 359.75 301L351.057 307.457C356.176 307.564 362.42 307.623 369.949 307.623H451.54Z" fill="#C35FA4"/>
<path d="M432.639 318.03L400.604 321.556L330.65 323.57L296 359.837L346.994 369.911L505.862 382H641.847L651 345.23H613.735H590.853C580.392 344.054 559.602 341.704 560.125 341.704C560.648 341.704 536.371 336.667 524.168 334.148L508.477 329.615L499.978 323.57L505.862 319.541L499.978 318.03H480.365C480.888 318.03 477.967 315.343 476.442 314C462.713 314.504 435.385 315.612 435.908 316.015C436.431 316.418 433.947 317.526 432.639 318.03Z" fill="#BE5DA4"/>
<path d="M411.5 356.125C398.3 358.525 381 362.458 374 364.125L378 374.625L521 402.625L619.5 398.125L634.5 374.625L597 372.125C573.8 371.325 563.667 369.458 561.5 368.625L530.5 364.125C520.333 363.291 500.2 361.625 501 361.625C501.8 361.625 484 357.958 475 356.125L454 353.125C448.833 352.791 433.1 352.925 411.5 356.125Z" fill="url(#paint6_linear_1025_574)"/>
<path d="M235.267 293.943C224.672 292.235 219.398 293.232 218.085 293.943L212 300.351L223.812 316.904L291.466 337.194L327.619 342L338 309.962H317.239H302.205L287.886 306.759C284.068 305.691 273.926 302.914 263.903 300.351C251.375 297.147 248.511 296.079 235.267 293.943Z" fill="#D46BA1"/>
<path d="M277.406 320.5C248.178 314.5 232.257 309 227.95 307L188.297 289H166.465L158 297L171.366 307L241.762 333H338C329.98 331.333 306.634 326.5 277.406 320.5Z" fill="#9D4C93"/>
<path d="M148 275.5L120 269H112L114.5 275.5L142 288L187.5 295L213.5 301H225.5L235 298.5V295L213.5 290L187.5 283.5L148 275.5Z" fill="#DC6D97"/>
<path d="M63 276L5 286.5L80.5 311.5L158.5 299.5L189.5 297C183.167 295.333 168.7 291.5 161.5 289.5C154.3 287.5 152.5 285.667 152.5 285C151.5 284.167 148.5 282.5 144.5 282.5C140.5 282.5 136.833 280.833 135.5 280L123 276.5L115 273V267L63 276Z" fill="#4B2E88"/>
<path d="M56.5 293.5L2 283L4.5 288.5L87 319L125 307L110 303.5L56.5 293.5Z" fill="#391683"/>
<path d="M583.5 386.5C565.1 390.1 547.5 388 541 386.5C520.167 384.167 469.4 378.5 433 374.5L387.5 369.5L382.5 361L356 379.5L399.5 383.5L447 386.5L490.5 418L546 433.5L599 407L633.5 383.5C624.5 383 601.9 382.9 583.5 386.5Z" fill="#E67DA0"/>
<path d="M102 315L37 298L-12.5 274L-15 332L20 334.5L102 315Z" fill="#924596"/>
<path d="M307.651 331.913L359.651 333.913L330.651 373.413L269.151 380.413L216.651 366.413H177.151L129.151 354.413C124.817 346.913 120.151 330.013 136.151 322.413C144.951 321.213 165.817 322.913 175.151 323.913L209.151 327.913C221.151 327.079 251.451 325.913 276.651 327.913C301.851 329.913 307.817 331.413 307.651 331.913Z" fill="url(#paint7_linear_1025_574)"/>
<path d="M-14 324.5L88.7454 308L129.236 296.5L160.617 293L170.233 296.5C174.114 298.5 184.506 303.3 195.034 306.5C205.561 309.7 210.218 310.833 211.23 311L226.92 315.5L233.5 319.5V322.5L216.798 328L179.344 332.5C175.632 332.333 166.184 331.9 158.086 331.5C151.757 331.187 149.962 331.058 149.802 331.016C147.673 331.217 142.896 332.059 139.359 334C137.334 335.2 138.515 335.833 139.359 336L150.494 342.5C160.11 345.333 189.163 352.8 228.439 360C267.715 367.2 276.521 367.667 276.015 367H316L311.445 408L216.798 419L33.0706 402.5L-14 382V324.5Z" fill="url(#paint8_linear_1025_574)"/>
<path d="M1244.48 378.699L1167 391.784L1244.48 421.477L1450 425V352.529L1430.63 348L1351 360.078L1244.48 378.699Z" fill="#8B4388"/>
<path d="M168.824 401.077C231.649 406.295 266.424 406.596 275.958 406.094H290L200.549 446.229C130.652 478.336 84.0535 467.968 69.4916 458.771L-15.7993 425.66L-21 378L39.3278 388.535C89.2542 396.562 90.2943 394.555 168.824 401.077Z" fill="#D06B94"/>
<path d="M1327.5 411H1434.5V468.5L1327.5 472.5L1205.5 447L1076 400L1137.5 363L1180.5 385L1233 405.5L1327.5 411Z" fill="url(#paint9_linear_1025_574)"/>
<path d="M1125 223H982L983 232.5L1046 234.5L1082.5 262L1061 293.5L1095.5 337V363L1121 387.5L1129.5 384L1140 368.5L1142 360.5C1142 359.667 1142.5 357.7 1144.5 356.5C1146.5 355.3 1145.33 352.333 1144.5 351L1142 348V338L1143.5 336L1134.5 326L1133.5 323L1134.5 320.5H1132L1128.5 315L1127.5 312.5L1125 311.5L1123.5 312.5C1121.83 311.5 1118.6 309.6 1119 310C1119.4 310.4 1116.17 307.833 1114.5 306.5H1109C1109.8 306.5 1105.33 304.167 1103 303L1093.5 302L1088.5 300.5V298L1108 282L1117 273.5C1118.83 268.667 1122.5 259.1 1122.5 259.5C1122.5 260 1127.5 252.5 1125 249C1123 246.2 1124.17 230.5 1125 223Z" fill="url(#paint10_linear_1025_574)"/>
<path d="M1092 403.5L1065 392L1042 397.5L1104 442L1249 483.5L1289.5 458L1242.5 448.5C1230.83 446.167 1207.4 441.6 1207 442C1206.5 442.5 1178 434.5 1178.5 434C1178.9 433.6 1167.33 430.5 1161.5 429C1149.83 425.333 1126.6 418.1 1127 418.5C1127.4 418.9 1103.83 408.667 1092 403.5Z" fill="url(#paint11_linear_1025_574)"/>
<path d="M887.485 405.203C887.892 405.203 850.665 410.235 832 412.752L849.307 451L939.407 432.379L1001 405.203L986.747 385.575L971.476 374C966.216 376.516 948.06 384.065 917.518 394.131C879.34 406.712 886.976 405.203 887.485 405.203Z" fill="#57327C"/>
<path d="M1006 408.5L979.5 396.5L967.5 382L964 363.5V360.5L975 357.5L1006 373.5L1058.5 389V373.5L1064.49 367.007C1064.45 366.888 1064.22 365.405 1063.5 360C1062.7 354 1059.83 348.167 1058.5 346L1051 340L1040.5 337.5L1027 335.5H1012L1003 308L1014.5 295L1026 285L1039 273H1012H974H969V259V240V225.5L974 224H979.5L989 225.5L1024.5 233L1079 250.5L1057.5 297C1062.17 295.667 1073.3 301.9 1080.5 337.5C1087.7 373.1 1076.83 387.333 1070.5 390L1006 408.5Z" fill="#954599"/>
<path d="M982.5 380.547L975 360.047V357.547L1030.5 355.547L1032 365.047L1034.5 369.547L1038.5 372.547L1043 375.047L1049 375.547H1055L1057.5 374.047H1063.5C1063.9 374.047 1067 371.047 1068.5 369.547C1072.1 366.747 1074.67 364.714 1075.5 364.047L1077 359.547C1077 358.214 1077.2 354.947 1078 352.547C1078.8 350.147 1078.33 349.881 1078 350.047L1077 349.047L1076 344.047C1075.5 343.547 1074 342.447 1072 342.047C1070 341.647 1071.17 339.881 1072 339.047L1071.5 337.047C1070.67 337.214 1068.8 337.247 1068 336.047C1067.2 334.847 1066.67 334.547 1066.5 334.547C1065.5 334.714 1063.3 334.747 1062.5 333.547C1061.3 332.747 1060.33 333.214 1060 333.547L1058 331.047C1056.33 331.047 1052.4 330.747 1050 329.547C1047.6 328.347 1047.33 330.047 1047.5 331.047C1045.33 330.547 1040 329.547 1036 329.547H1025L1018.5 302.547L1055 268.047H1006H982.5V265.047V224.047H1030.5H1055C1059 224.214 1068.3 224.447 1073.5 224.047C1078.7 223.647 1079.33 225.881 1079 227.047L1094.5 230.547L1100.5 234.547L1105 239.047L1109 245.047C1109.33 247.381 1109.8 253.147 1109 257.547C1107.8 261.547 1105.83 266.214 1105 268.047L1100.5 274.547L1092.5 283.047L1084 291.047L1083 296.047V300.547C1082.67 301.047 1081.4 302.547 1079 304.547C1076.6 306.547 1080 305.381 1082 304.547L1103.5 314.047L1114.5 323.547L1123 333.547L1128 342.547V359.547L1123 370.047L1114.5 380.547L1130.5 386.547C1128 388.214 1120.6 392.647 1111 397.047C1101.49 401.406 1106.9 403.18 1110.89 403.537L1070.5 400.047L1014.5 409.547C1006 403.714 989 391.947 989 391.547C989 391.147 984.667 384.047 982.5 380.547Z" fill="#E37782"/>
<path d="M944.5 420.583L878 439.583L915.5 465.083L1034 433.583L1068 407.083C1057.33 400.917 1036.4 388.883 1038 390.083C1040 391.583 1033.5 394.583 1003.5 403.583C979.5 410.783 954.167 417.917 944.5 420.583Z" fill="#934984"/>
<path d="M995 433.5L958 452.5L1056 489L1235 466C1209.67 459.5 1154 444.5 1134 436.5C1114 428.5 1105.33 424.833 1103.5 424L1069 405L1035 420L995 433.5Z" fill="#D16B94"/>
<path d="M427.396 381.228L316 344.787L327.774 329.964L375.321 336.758L436 357.14L427.396 381.228Z" fill="#E67DA0"/>
<path d="M230.72 391.023C231.23 420.66 216.478 403.372 209.038 391.023L196.922 355.86C207.975 355.233 230.21 361.386 230.72 391.023Z" fill="#4D2C7C"/>
<path d="M276.635 154.857L270.258 164.276L350.608 176.206L376.754 209.485L355.71 283.578L298.317 346.369L334.028 363.95L451.365 376.508L449.452 363.95V358.299C448.389 358.508 445.243 358.801 441.162 358.299C437.081 357.797 439.462 355.578 441.162 354.531L443.075 352.648V346.369C442.225 344.485 439.632 340.717 436.06 340.717C431.597 340.717 429.046 342.601 422.031 342.601C415.016 342.601 418.205 340.717 413.741 339.462C410.17 338.457 408.427 339.88 408.002 340.717C406.726 341.345 401.497 342.601 390.784 342.601H371.653C371.142 342.601 367.189 341.345 365.275 340.717L355.71 342.601H334.028L326.376 339.462L344.231 326.276L376.754 306.811L394.61 289.229L408.002 276.043H411.19L413.741 275.415L425.22 264.113L429.046 256.578L432.234 250.299L436.06 242.764L437.336 239.624L439.887 232.09L446.264 227.694V224.555L442.438 218.904L441.8 215.764L444.988 211.997V209.485L441.8 205.09L441.162 200.694L443.075 196.927L439.887 193.159L437.974 186.252L434.147 176.206L422.669 167.415L410.552 157.369L400.987 149.834L387.595 143.555H367.189H355.71C352.096 143.136 341.298 142.55 327.013 143.555C309.158 144.811 314.897 144.811 301.505 146.694C290.792 148.201 280.461 152.764 276.635 154.857Z" fill="url(#paint12_linear_1025_574)"/>
<path d="M221.793 395.419L265.795 349.582L348.696 289.302L383.77 222.116L360.812 175.651L286.201 174.396L237.098 222.116L234.547 239.07L290.027 246.605L298.317 239.07L309.796 200.14L335.304 206.419L343.594 210.814L348.696 216.465L349.971 224L348.696 232.163L343.594 241.582L339.13 250.372C335.092 254.768 322.423 267.326 304.057 282.396C285.691 297.465 274.722 305.837 271.534 308.14L239.011 331.372L213.503 349.582L211.59 384.744L221.793 395.419Z" fill="#623989"/>
<path d="M221.793 350.837V391.651L237.098 411.116L423.945 359.628L404.814 350.837L379.306 348.953L350.609 350.837L319.999 348.953L355.711 321.953L376.117 306.884L409.915 266.07C413.529 257.279 420.884 239.698 421.394 239.698C421.904 239.698 421.181 237.186 420.756 235.93L419.481 234.674L423.945 224L423.307 212.698V208.302L420.756 203.907L416.93 202.023C415.655 201.814 413.104 201.019 413.104 199.512C413.104 198.507 415.655 198.674 416.93 198.884L418.205 195.744L417.568 191.349C416.93 190.721 414.889 189.088 411.828 187.581C409.278 186.577 412.041 184.232 413.741 183.186L408.002 182.558C406.727 181.721 403.666 179.67 401.625 178.163C399.584 176.656 396.949 174.605 395.886 173.767C394.61 173.139 391.932 171.507 391.422 170C390.912 168.493 389.509 168.535 388.871 168.744C387.383 167.698 383.897 165.605 381.856 165.605C380.326 165.605 378.668 164.349 378.03 163.721L360.812 159.326L336.579 154.302H316.811L292.578 156.186L274.085 159.326L258.78 166.232C256.016 168.744 250.362 173.767 249.852 173.767C249.214 173.767 246.026 182.558 243.475 189.465C241.434 194.991 238.798 197.209 237.736 197.628C237.523 201.395 237.225 208.93 237.736 208.93C238.246 208.93 234.972 215.628 233.272 218.977V222.744L231.996 233.419L304.057 236.558C303.844 234.465 303.546 228.772 304.057 222.744C304.567 216.716 306.395 213.535 307.245 212.698L311.071 205.791L316.811 201.395C318.724 200.558 322.55 199.009 322.55 199.512C322.55 200.014 326.801 198.465 328.927 197.628L336.579 196.372L341.043 197.628C343.382 198.465 348.951 200.767 352.522 203.279C356.093 205.791 357.411 206.837 357.624 207.046C358.686 209.558 360.812 215.837 360.812 220.86V228.395L355.711 240.953L345.507 251.628L342.319 258.535L314.26 284.279L272.171 315.674L221.793 350.837Z" fill="url(#paint13_linear_1025_574)"/>
<path d="M64.2444 410.87L5 419.913L114.57 422L313.326 397.652L349 377.478L336.259 374L331.8 377.478L327.341 375.391H320.333C317.573 376.087 311.415 378.035 308.867 380.261C306.319 382.487 307.805 389.536 308.867 392.783H305.044L303.133 380.261L296.126 375.391H291.03L281.474 377.478L271.919 380.957L260.452 384.435L252.17 386.522H234.333H220.319C220.828 386.522 217.558 387.449 215.859 387.913L210.763 386.522L211.4 374.696C209.064 375.855 202.991 378.73 197.385 380.957C191.779 383.183 192.501 384.203 193.563 384.435C191.44 384.899 184.262 386.8 172.541 390.696C160.819 394.591 159.588 394.638 160.437 394.174H147.059C145.998 395.565 141.199 399.322 130.496 403.217C117.119 408.087 107.563 406 94.8222 406H75.0741H66.7926L64.2444 410.87Z" fill="#4D2C7C"/>
<path d="M-3.87083 418.068H-69L-53.037 467H93.1844C151.29 459.978 282.187 443.35 340.931 433.019C399.675 422.689 423.726 411.498 428.408 407.194L411.168 351.465L345.4 381.368L287.295 395.64L196.625 407.194L134.05 415.349L78.4984 418.068H-3.87083Z" fill="url(#paint14_linear_1025_574)"/>
<path d="M511.947 384.744L541.919 391.651L552.76 396.047L537.455 411.117L480.062 437.489L465.395 406.721L446.264 372.814L449.452 366.535L465.395 370.931L475.598 372.814L480.062 375.326L490.265 378.465L511.947 384.744Z" fill="url(#paint15_linear_1025_574)"/>
<path d="M223.068 431.21L94.252 448.163H312.346L420.756 431.21L490.903 417.396L483.888 410.489L467.946 393.535L461.569 386V379.721L438.611 364.023L414.379 351.465L401.625 373.442L414.379 393.535L401.625 402.326L318.086 431.21H223.068Z" fill="url(#paint16_linear_1025_574)"/>
<path d="M822.536 450.337C789.704 454.413 801.588 437.479 811.635 428.503C818.475 421.467 839.465 409.434 868.707 417.586C897.948 425.737 891.15 433.598 884.097 436.509C877.257 439.42 855.368 446.262 822.536 450.337Z" fill="#AE5894"/>
<path d="M463.783 604.339L285.436 547.882L526.337 454.728L701.357 403.211L827.797 435.674L914.308 466.725L1095.98 503.422C1050.06 522.006 928.949 565.102 811.825 588.814C736.76 610.832 548.52 608.338 463.783 604.339Z" fill="url(#paint17_linear_1025_574)"/>
<path d="M620.484 487.108C559.886 472.658 555.007 466.752 560.143 465.605L672.48 414.856L750.796 441.521L788.028 475.066C803.006 483.955 842.849 505.688 882.392 521.514C921.934 537.341 931.82 545.312 931.82 547.319C924.331 546.172 851.579 532.524 620.484 487.108Z" fill="#A95192"/>
<path d="M129.068 491.356L291.171 477.311L473.375 429.157L616.674 366.958L694.112 349.447C696.298 348.703 698.586 348.166 700.968 347.897L694.112 349.447C677.255 355.185 666.453 373.207 665.305 374.984C664.008 376.99 710.466 395.043 695.781 405.08C672.642 420.894 589.225 454.906 551.185 473.298L371.574 555.561L308.03 570.609L173.16 565.593L119.99 541.516L129.068 491.356Z" fill="#9B4C8D"/>
<path d="M147.565 481.943L93.0586 499.283L300.184 492.189L367.516 488.249L417.534 477.214L506.027 455.145C519.707 451.204 560.919 437.49 616.323 414.16C671.728 390.83 660.784 400.236 648.386 407.855L677.884 397.609C689.854 401.55 719.437 411.638 742.009 420.466C764.581 429.293 768.942 429.398 768.301 428.347L812.547 434.653H847.816H892.063L851.023 423.618C846.106 423.618 831.016 421.727 809.982 414.16C788.949 406.594 775.996 399.973 772.148 397.609L745.216 381.057L726.619 358.2V337.708L600.933 374.752L497.05 407.067L340.583 448.84L147.565 481.943Z" fill="url(#paint18_linear_1025_574)"/>
<path d="M66.3637 448.269L2 457.747L91.5784 487.638H206.371L307.23 470.87L416.715 448.269L509.611 407.443L607.152 381.926L670.188 270.382L629.712 55.314H581.937C578.177 72.811 572.913 110.721 581.937 122.386L621.086 136.967V179.981V270.382L581.937 337.454C565.127 344.745 531.508 359.034 531.508 357.868C531.508 356.702 505.851 373.421 493.022 381.926L425.341 407.443C385.971 416.192 307.23 433.251 307.23 431.501C307.23 429.314 204.381 448.269 206.371 448.269H125.419H66.3637Z" fill="url(#paint19_linear_1025_574)"/>
<path d="M740.084 0H666.34L707.38 360.998L727.9 384.288L750.344 399.572L777.918 411.217L819.6 425.046H833.066L873.465 435.963L841.403 440.33V465.803C873.337 478.321 891.733 482.407 924.766 488.366L1011.34 503.65L1090.21 516.023L1289 478.176L1156.9 465.803C1128.8 459.551 1051.09 434.673 967.089 403.939C888.086 373.662 879.45 368.518 885.008 369.731L777.918 307.867L750.986 281.665L750.344 269.293V250.369V222.712V198.694C750.344 189.378 751.199 191.416 751.627 193.6V189.233C749.879 183.541 750.386 169.8 750.344 167.398C747.779 165.215 750.344 162.303 750.344 152.114C750.344 141.924 750.344 146.291 751.627 139.013C752.653 133.191 751.199 133.191 750.344 133.918C750.344 130.037 750.601 121.254 751.627 117.179C752.653 113.103 751.199 113.054 750.344 113.54L749.062 74.2374L750.344 57.4976L751.627 51.6751L750.344 43.6691V33.4796C747.005 26.3041 750.233 10.5829 750.344 7.27818C750.585 0.120856 740.576 0.274946 740.084 0Z" fill="url(#paint20_linear_1025_574)"/>
<path d="M595.1 53.8584L586.122 114.995L627.163 118.634L641.27 112.084L639.346 126.64C638.373 130.103 642.364 138.855 643.194 147.019C643.512 150.143 640.113 150.662 641.27 153.569L639.988 211.067V243.819L639.346 302.044C639.133 307.139 638.192 317.474 636.14 318.056C634.088 318.639 635.285 321.21 636.14 322.423L633.575 328.246L627.163 336.252L616.261 338.435L614.979 341.346L609.207 342.802C608.352 346.684 603.564 355.903 591.252 361.725C583.557 365.801 580.778 367.79 580.351 368.276L570.732 370.459C567.312 371.187 559.574 373.807 555.983 378.465C551.366 383.705 551.922 384.53 552.777 384.288V390.11H560.472L580.351 386.471L602.154 379.921L618.826 377.01L641.27 368.276L654.095 366.82L665.638 363.909L682.311 360.27H704.113H717.58L736.176 362.453L749.001 370.459H759.261L767.598 366.82L786.194 374.826H809.279L770.804 350.808L755.414 338.435C743.099 335.826 733.448 326.736 738.1 318.784C738.1 318.784 733.162 314.107 736.176 312.962L730.405 304.956C730.832 301.559 731.174 294.475 729.122 293.31L727.84 292.583C727.412 291.855 726.685 289.38 727.198 285.304C727.711 281.229 728.695 283.121 729.122 284.577C729.55 283.849 730.405 279.919 730.405 270.02C730.405 264.198 729.977 264.198 729.764 264.926C729.55 263.955 728.738 261.723 727.198 260.559C725.659 259.394 726.13 258.133 726.557 257.647C727.198 257.647 728.609 256.046 729.122 249.641C729.122 247.312 729.977 248.186 730.405 248.914L729.764 246.002V240.18L727.198 239.452L725.916 234.357C725.916 232.659 726.301 229.117 727.84 228.535C729.379 227.952 728.481 223.925 727.84 221.984V216.89C727.198 216.647 725.916 215.434 725.916 212.523C725.916 209.611 727.198 209.854 727.84 210.339V205.245C727.626 203.546 727.327 198.985 727.84 194.327C728.353 192.581 728.053 190.203 727.84 189.233C727.84 188.262 728.225 185.739 729.764 183.41C731.303 181.081 730.405 180.984 729.764 181.227C729.977 180.499 730.277 178.606 729.764 176.86C729.251 175.113 729.55 173.706 729.764 173.221L727.84 172.493C727.626 170.794 727.327 167.398 727.84 167.398C728.353 167.398 727.626 164.002 727.198 162.303V159.392C726.771 158.179 725.659 155.316 724.633 153.569C723.607 151.823 723.351 149.93 723.351 149.203V142.652H725.916C725.702 141.197 722.109 137.254 723.351 138.285C723.586 138.481 724.346 134.678 722.068 132.463L726.557 108.445L722.068 94.6162L726.557 87.3381L731.687 79.3321L726.557 69.8704V53.8584V42.2134L722.068 29.1126L715.656 18.9232L707.961 12.3728L691.288 2.9112H682.952H676.539L668.203 1.45557C658.432 17.8844 625.75 43.8563 620.75 40.7577C619.624 40.0602 598.306 48.7637 598.947 48.7637C599.46 48.7637 596.596 52.1602 595.1 53.8584Z" fill="#DB7080"/>
<path d="M815 467L810 452H819L841.5 455C842.333 456.667 842.1 460.8 834.5 464C826.9 467.2 818.333 467.333 815 467Z" fill="#AD5793"/>
<path d="M249.914 498C224.714 499.2 239.414 487.167 249.914 481L281.414 476C281.414 482.833 275.114 496.8 249.914 498Z" fill="#90458B"/>
<path d="M1078 615.5C1015.2 630.7 1038.83 609.167 1058.5 596.5L1139 573.5C1144.83 581.167 1140.8 600.3 1078 615.5Z" fill="#5255A7"/>
<path d="M1156.38 467C999.51 527.015 526.851 577.588 213 549.086L389.354 656.155L813.847 674L968.157 637.597L1465 467H1156.38Z" fill="#EC83A8"/>
<path d="M-9 482.968V407L175.169 468.9L384.861 534.738L537 564H247.735L-9 482.968Z" fill="url(#paint21_linear_1025_574)"/>
<path d="M-9 737V662L213 737H-9Z" fill="#E179A8"/>
<path d="M-25 549V690.171L191.897 750H570L825 667.314L594.621 656.559L448.655 640.425L293.31 624.963L-25 549Z" fill="url(#paint22_linear_1025_574)"/>
<path fill-rule="evenodd" clip-rule="evenodd" d="M718.862 666.859L501 750H1465L1455.64 638C1392.9 647.62 1204.09 671.531 950.763 690.221C900.667 703.898 768.973 680.5 718.862 666.859Z" fill="url(#paint23_linear_1025_574)"/>
<path d="M832.682 559.291C843.344 549.453 1027.14 509.558 1027.14 509.558L1443.41 409.382L1437.38 555.465L1013.43 597C938.779 596.694 822.02 569.128 832.682 559.291Z" fill="url(#paint24_linear_1025_574)"/>
<path d="M402.5 598C346.833 584 185.4 541 -15 481V583L72 598L257 633L424 653L639.5 666H960L951.5 623H880L728 633L556 623L402.5 598Z" fill="url(#paint25_linear_1025_574)"/>
<path d="M1068.57 585.364L677 680.705L895.886 700L1453 655.167V452L1068.57 585.364Z" fill="url(#paint26_linear_1025_574)"/>
<defs>
<linearGradient id="paint0_linear_1025_574" x1="741" y1="309.5" x2="1146.5" y2="309.5" gradientUnits="userSpaceOnUse">
<stop offset="0.2" stop-color="#B0449C"/>
<stop offset="1" stop-color="#3E0C4C"/>
</linearGradient>
<linearGradient id="paint1_linear_1025_574" x1="406.794" y1="277" x2="543.58" y2="355.289" gradientUnits="userSpaceOnUse">
<stop stop-color="#8336A5"/>
<stop offset="1" stop-color="#A24BA3"/>
</linearGradient>
<linearGradient id="paint2_linear_1025_574" x1="1269" y1="292" x2="1280.5" y2="333" gradientUnits="userSpaceOnUse">
<stop stop-color="#854290"/>
<stop offset="1" stop-color="#914996"/>
</linearGradient>
<linearGradient id="paint3_linear_1025_574" x1="1139.5" y1="333.5" x2="1341.5" y2="368.5" gradientUnits="userSpaceOnUse">
<stop stop-color="#D06BA5"/>
<stop offset="1" stop-color="#F693A4"/>
</linearGradient>
<linearGradient id="paint4_linear_1025_574" x1="870.5" y1="351" x2="923.5" y2="415" gradientUnits="userSpaceOnUse">
<stop stop-color="#D26BA4"/>
<stop offset="1" stop-color="#E680A1"/>
</linearGradient>
<linearGradient id="paint5_linear_1025_574" x1="800" y1="327" x2="1080" y2="359.5" gradientUnits="userSpaceOnUse">
<stop stop-color="#914999"/>
<stop offset="1" stop-color="#B75A9E"/>
</linearGradient>
<linearGradient id="paint6_linear_1025_574" x1="374" y1="369.5" x2="571.5" y2="388.5" gradientUnits="userSpaceOnUse">
<stop stop-color="#974B9D"/>
<stop offset="1" stop-color="#D06EA8"/>
</linearGradient>
<linearGradient id="paint7_linear_1025_574" x1="125" y1="351.206" x2="359.651" y2="351.206" gradientUnits="userSpaceOnUse">
<stop stop-color="#E4769C"/>
<stop offset="1" stop-color="#D36899"/>
</linearGradient>
<linearGradient id="paint8_linear_1025_574" x1="90.7699" y1="307.5" x2="221.509" y2="420.575" gradientUnits="userSpaceOnUse">
<stop stop-color="#472C7E"/>
<stop offset="1" stop-color="#A25196"/>
</linearGradient>
<linearGradient id="paint9_linear_1025_574" x1="1133" y1="363" x2="1435" y2="418" gradientUnits="userSpaceOnUse">
<stop stop-color="#FBB4A3"/>
<stop offset="1" stop-color="#FBAEA0"/>
</linearGradient>
<linearGradient id="paint10_linear_1025_574" x1="1121.5" y1="258.5" x2="1089.5" y2="330.5" gradientUnits="userSpaceOnUse">
<stop stop-color="#FCC2A6"/>
<stop offset="1" stop-color="#F58E8C"/>
</linearGradient>
<linearGradient id="paint11_linear_1025_574" x1="1056" y1="398.5" x2="1265" y2="473" gradientUnits="userSpaceOnUse">
<stop stop-color="#F99EA2"/>
<stop offset="1" stop-color="#EA869C"/>
</linearGradient>
<linearGradient id="paint12_linear_1025_574" x1="444.988" y1="154.93" x2="306.218" y2="343.479" gradientUnits="userSpaceOnUse">
<stop stop-color="#FDC1AB"/>
<stop offset="1" stop-color="#F9A095"/>
</linearGradient>
<linearGradient id="paint13_linear_1025_574" x1="335.304" y1="154.302" x2="323.247" y2="411.134" gradientUnits="userSpaceOnUse">
<stop stop-color="#E37A87"/>
<stop offset="1" stop-color="#C26084"/>
</linearGradient>
<linearGradient id="paint14_linear_1025_574" x1="-69" y1="409.233" x2="409.969" y2="392.433" gradientUnits="userSpaceOnUse">
<stop stop-color="#6F397C"/>
<stop offset="1" stop-color="#8B4280"/>
</linearGradient>
<linearGradient id="paint15_linear_1025_574" x1="499.512" y1="366.535" x2="494.255" y2="429.34" gradientUnits="userSpaceOnUse">
<stop offset="0.257842" stop-color="#FDB6A5"/>
<stop offset="1" stop-color="#FCA79D"/>
</linearGradient>
<linearGradient id="paint16_linear_1025_574" x1="424.582" y1="391.651" x2="490.871" y2="400.067" gradientUnits="userSpaceOnUse">
<stop stop-color="#93497B"/>
<stop offset="1" stop-color="#C6658B"/>
</linearGradient>
<linearGradient id="paint17_linear_1025_574" x1="285.436" y1="544.354" x2="968.855" y2="484.682" gradientUnits="userSpaceOnUse">
<stop stop-color="#BF5F98"/>
<stop offset="1" stop-color="#A95693"/>
</linearGradient>
<linearGradient id="paint18_linear_1025_574" x1="93.0586" y1="418.495" x2="892.063" y2="418.495" gradientUnits="userSpaceOnUse">
<stop offset="0.2" stop-color="#A04C92"/>
<stop offset="1" stop-color="#91487F"/>
</linearGradient>
<linearGradient id="paint19_linear_1025_574" x1="605.825" y1="55.314" x2="-15.7469" y2="401.211" gradientUnits="userSpaceOnUse">
<stop stop-color="#3D307A"/>
<stop offset="0.5" stop-color="#573480"/>
<stop offset="0.538042" stop-color="#503180"/>
<stop offset="0.75" stop-color="#663882"/>
<stop offset="0.875" stop-color="#8B438A"/>
<stop offset="1" stop-color="#AF5193"/>
</linearGradient>
<linearGradient id="paint20_linear_1025_574" x1="706.739" y1="9.46171" x2="1323.96" y2="405.074" gradientUnits="userSpaceOnUse">
<stop stop-color="#FDC7A6"/>
<stop offset="0.5" stop-color="#FAA49E"/>
<stop offset="1" stop-color="#F492A2"/>
</linearGradient>
<linearGradient id="paint21_linear_1025_574" x1="11.0183" y1="443.577" x2="535.497" y2="540.098" gradientUnits="userSpaceOnUse">
<stop stop-color="#E9809F"/>
<stop offset="0.6" stop-color="#F490A2"/>
</linearGradient>
<linearGradient id="paint22_linear_1025_574" x1="-25" y1="649.5" x2="825" y2="649.5" gradientUnits="userSpaceOnUse">
<stop stop-color="#AB559D"/>
<stop offset="1" stop-color="#DC74A8"/>
</linearGradient>
<linearGradient id="paint23_linear_1025_574" x1="1457.2" y1="710.834" x2="510.174" y2="726.182" gradientUnits="userSpaceOnUse">
<stop stop-color="#5F3694"/>
<stop offset="1" stop-color="#9A4FA4"/>
</linearGradient>
<linearGradient id="paint24_linear_1025_574" x1="1009.2" y1="597" x2="1453.74" y2="431.608" gradientUnits="userSpaceOnUse">
<stop stop-color="#87438F"/>
<stop offset="1" stop-color="#4D2C7E"/>
</linearGradient>
<linearGradient id="paint25_linear_1025_574" x1="-15" y1="514.5" x2="960" y2="666.5" gradientUnits="userSpaceOnUse">
<stop offset="0.2" stop-color="#834190"/>
<stop offset="0.5" stop-color="#A4539F"/>
<stop offset="1" stop-color="#DE75A8"/>
</linearGradient>
<linearGradient id="paint26_linear_1025_574" x1="690.749" y1="678.435" x2="1453.77" y2="582.137" gradientUnits="userSpaceOnUse">
<stop stop-color="#743D94"/>
<stop offset="1" stop-color="#412C83"/>
</linearGradient>
</defs>
</svg>
