<svg width="1440" height="392" viewBox="0 0 1440 392" fill="none" xmlns="http://www.w3.org/2000/svg">
<path d="M786 95.5L730.5 60.5V156L889.5 178.5L910 124.5L852.5 95.5L833 124.5L786 95.5Z" fill="url(#paint0_linear_1420_358)"/>
<g filter="url(#filter0_d_1420_358)">
<path d="M677.368 65.2398C678.307 69.5288 683.017 70.1362 685.457 73.917C687.416 76.954 688.176 81.4785 691.126 81.8504C691.856 81.9496 692.516 81.7761 692.816 82.9041C693.165 84.2057 695.155 84.7387 694.705 82.5198L704.914 85.9287C703.924 98.5727 698.095 109.605 691.316 120.662C687.566 126.786 702.584 145.38 705.964 147.748C707.874 144.029 712.003 145.764 707.964 149.099C710.413 153.772 713.673 158.892 718.372 162.338C717.952 147.971 692.576 122.249 702.914 117.613C711.983 113.547 711.593 99.428 707.294 88.4079C713.683 88.6187 717.352 92.2383 722.212 94.8043L744.079 106.32C744.779 106.692 745.189 102.205 745.968 102.242C746.978 102.291 749.808 102.886 749.558 104.114C749.308 105.341 743.869 106.072 746.658 107.882L773.105 125.063C784.723 132.612 796.772 137.719 810.01 141.81C803.711 135.017 792.932 137.05 788.563 129.674L785.193 123.985C785.193 123.985 763.996 124.939 766.826 109.729C767.046 108.527 769.025 111.526 769.375 112.01C769.895 112.741 771.835 110.733 771.705 109.779C771.495 108.18 774.055 106.258 773.975 104.733C773.845 101.957 771.375 99.1181 770.785 96.7753C776.474 97.581 759.996 81.1563 763.906 80.7968C776.734 82.557 791.202 97.5686 801.031 92.4366C805.76 89.9698 808.75 94.1721 812.06 94.4696C826.168 95.7712 845.115 75.9747 852.744 81.8628C852.414 83.809 854.594 83.6106 853.534 85.8791C851.124 91.0606 865.272 109.494 863.153 109.927C871.721 113.312 875.631 127.307 885.11 135.401C886.12 133.653 883.49 130.765 883.75 128.596C885.21 128.583 887.079 127.493 887.249 125.559C887.389 123.984 885.98 122.447 885.91 120.576L885.64 113.349C885.57 111.576 887.439 110.473 888.599 109.531C902.537 113.956 920.305 125.001 937.493 132.885C954.68 140.769 963.679 130.306 979.937 125.856C997.855 133.852 1013.71 147.252 1032.01 151.318C1041.76 153.475 1052.37 144.822 1062.23 144.748C1073.25 151.033 1083.37 158.421 1095.37 163.119C1099.16 164.606 1105.5 158.582 1108.6 160.987C1115.49 166.342 1121.42 163.478 1128.05 165.176C1152.22 171.362 1167.04 196.241 1210.98 186.15C1220.72 188.568 1233.53 195.311 1242.41 200.468C1251.29 205.625 1258.28 202.6 1267.59 203.604C1282.61 205.216 1297.8 217.45 1313.83 214.674C1335.72 210.868 1341.55 218.008 1363.68 218.504C1372.8 218.715 1382.3 214.314 1390.85 217.847C1400.67 221.901 1410.07 223.115 1420.46 224.07C1430.85 225.024 1440.59 228.508 1451.59 225.26C1454.6 224.367 1458.48 227.9 1461.82 225.099C1467.38 220.438 1473.46 220.202 1479 222.211V309.751C1443.26 306.02 1456.51 315.218 1451.37 317.139C1448.69 318.143 1427.87 316.148 1426.7 315.193C1415.91 306.541 1398.09 320.932 1394.64 319.358L1380.77 312.987C1376.8 311.164 1372.08 315.329 1367.69 314.263L1364.74 323.188C1361.76 313.42 1349.21 313.706 1342.69 313.867C1339.35 313.953 1338.83 305.041 1330.57 308.512C1323.46 311.499 1315.16 315.143 1306.98 315.416L1215.58 318.416C1209.11 318.627 1202.44 319.842 1195.19 319.432C1182.59 318.713 1170.8 318.49 1157.92 319.879L1171.25 327.49C1172.21 330.081 1169.07 329.981 1167.85 328.382C1160.72 328.804 1156.43 324.081 1151.63 319.643C1146.44 314.846 1135.99 327.316 1127.51 328.345C1125.84 328.544 1123.65 326.263 1120.61 327.849C1118.31 329.052 1121.85 332.101 1120.61 334.047C1117.27 339.303 1114.31 331.94 1111.37 330.8C1099.67 326.275 1086.12 314.66 1084.41 328.667C1079.04 332.027 1075.32 323.759 1071.58 323.969C1064.97 324.329 1048.02 332.969 1038.62 327.118C1038.77 326.312 1038.51 325.569 1037.8 324.961C1037.27 324.502 1035.71 324.961 1035.3 325.891C1034.92 326.746 1037.53 327.453 1036.9 329.61C1036.23 330.205 1035.15 330.167 1035.32 331.506C1031.14 330.167 1027.52 330.924 1022.76 327.13C1023.21 327.49 984.986 306.466 985.876 311.759C986.526 309.987 984.986 309.578 984.166 309.094C982.977 308.375 981.847 309.218 980.167 309.999C961.169 318.8 941.922 322.445 922.705 328.395C919.945 329.25 915.246 329.362 918.105 330.911C913.686 326.052 908.217 322.345 902.717 324.465C893.889 321.577 879.42 338.956 864.892 335.498C862.073 334.828 857.563 331.99 853.974 336.799C852.494 334.221 852.544 332.151 851.014 332.126C849.104 332.089 845.955 334.506 845.925 338.25C845.205 343.902 836.906 340.171 835.606 343.716C833.197 350.261 829.877 348.377 826.878 349.803C823.818 342.415 814.419 342.551 808.13 342.068C791.542 331.717 788.433 335.386 772.005 339.303C768.765 338.349 766.066 335.56 763.326 333.465C759.627 323.511 758.607 307.644 759.847 296.822C759.877 296.537 754.597 273.778 761.926 270.443C759.127 269.414 756.557 270.171 752.927 269.799C753.727 272.613 755.647 272.526 756.217 274.113C754.897 270.431 757.907 292.855 754.977 297.281C751.618 302.338 752.028 324.664 756.527 318.366C757.177 319.569 755.817 321.205 755.147 322.209C754.187 323.635 752.168 320.412 751.288 320.821C749.258 321.775 749.868 327.093 747.528 329.622C740.859 327.936 735.03 333.75 728.601 334.047C724.901 334.221 719.422 325.283 714.963 331.581C712.983 334.382 709.753 334.357 708.473 336.489C705.834 340.902 708.203 344.262 707.584 347.435C706.914 350.869 701.594 349.369 700.245 348.365C699.165 351.104 699.365 352.592 699.455 354.141C700.205 354.6 676.748 347.658 672.228 344.026C671.628 343.543 671.138 343.568 670.509 344.001C669.239 340.741 665.509 342.514 663.629 339.96C661.31 342.811 657.68 346.555 656.95 350.77C655.671 351.699 655.261 350.15 654.851 348.923C654.401 347.584 655.571 346.146 654.541 344.361C653.631 343.877 653.091 346.443 652.431 346.543C645.612 347.447 650.991 341.758 645.242 336.303L637.153 340.642C634.553 339.316 628.734 334.481 626.584 337.729C623.355 342.613 619.785 339.613 616.206 341.572C612.846 343.406 609.347 351.005 604.457 346.679C603.348 345.7 604.257 343.196 603.907 342.687C603.548 342.142 602.228 342.03 601.698 342.055C599.878 342.142 581.9 343.617 580.041 345.476C577.231 348.278 574.461 347.522 570.252 348.352C566.802 349.034 563.583 355.914 556.664 352.344C555.594 351.798 553.344 354.005 552.444 354.451C550.675 355.331 550.435 350.125 549.205 348.365C545.265 348.885 545.295 355.728 543.816 359.199C540.066 361.616 535.807 362.521 533.527 368C532.827 354.364 533.097 366.847 523.948 354.674C521.688 351.662 516.559 350.683 512.57 351.278C500.541 353.063 488.743 354.451 477.294 347.262C478.354 344.051 480.744 342.291 477.964 342.34C475.465 340.791 473.255 338.374 471.185 339.477C470.755 335.089 462.346 331.37 459.067 334.989C459.517 332.783 457.147 333.762 456.327 333.552C454.847 333.18 453.508 333.675 453.748 335.783C446.569 335.46 438.18 334.828 431.261 328.717C429.551 325.544 429.991 329.548 429.971 331.283C419.732 324.403 409.524 317.077 398.665 312.168C394.796 310.421 372.948 324.155 359.26 323.982C355.911 323.932 351.001 317.573 347.062 324.515C350.082 325.221 351.361 325.717 350.371 328.147C349.782 329.597 348.602 331.816 347.102 331.432C347.222 324.924 328.064 333.49 324.935 330.651C323.835 328.804 321.005 326.932 318.736 325.73C301.058 329.25 302.118 325.407 295.439 320.61L292.779 318.701C291.799 317.994 289.87 319.16 290.13 320.821C265.993 309.429 243.296 291.616 218.589 284.649C217.739 284.414 216.719 284.587 215.55 284.538C214.61 284.5 215.06 281.848 213.01 280.459C176.525 287.525 142.299 300.157 108.204 316.47C104.155 318.416 100.815 318.974 97.6554 320.213C96.3256 316.11 91.9662 320.746 89.1166 320.003C85.3771 319.023 81.7576 314.152 78.1481 321.118C76.4583 319.606 74.5985 316.123 71.6589 317.251C69.7892 317.97 68.7793 322.283 64.7199 324.428L71.9889 329.919C71.119 333.44 67.8895 335.684 64.9799 335.684C67.1995 334.766 50.3418 324.75 51.2217 331.023C46.7623 329.337 43.2828 326.411 39.3333 323.709L36.5837 320.858C35.3038 319.532 32.0043 320.089 32.3042 323.126C28.9947 323.709 26.815 321.292 23.6954 318.875C23.1655 317.028 21.8156 313.172 20.1759 315.503C18.5361 317.833 14.7966 314.722 14.9566 318.404C12.6169 317.387 10.0672 320.895 6.41771 317.846C7.38758 315.081 9.13734 316.209 11.727 315.788C9.30731 312.776 6.4677 313.631 3.63808 314.214C1.48837 306.974 1.41838 299.537 0.608488 291.653L-4.79078 239.007C-6.24059 224.913 -5.91064 210.471 -8.33031 196.613C-9.35018 190.774 -9.03022 185.568 -8.52029 180.275C0.758463 180.82 10.5271 177.523 20.0059 173.643C36.2337 166.986 52.2616 169.428 68.5794 166.614L87.5068 163.354C88.8466 163.119 91.6163 158.904 93.2261 159.71C94.2159 160.206 95.7157 161.495 97.7854 163.255C103.155 158.607 109.324 161.904 115.253 162.04L133.711 162.474L161.077 161.817C188.283 161.173 211.45 141.5 235.787 127.158C240.006 124.679 244.736 129.414 248.835 128.72C264.853 126.005 336.263 80.1894 328.085 83.8214L350.332 73.9541L369.919 85.8668C378.068 90.8252 385.747 94.9282 395.255 90.0194C406.514 98.1388 419.232 97.7917 429.651 87.4658C462.686 100.754 486.433 75.4789 501.861 73.5079C519.069 71.3138 535.637 71.0535 551.875 62.3763C570.202 52.5711 586.7 40.2742 603.248 26.7873C604.597 25.6841 624.295 21.395 629.284 18.8663L649.561 8.58999C654.541 6.0612 659.72 12.2096 661.14 16.6474C657.3 22.2256 660.98 26.4774 662.33 31.7209C664.999 42.0964 664.019 59.5996 677.408 65.2769L677.368 65.2398Z" fill="url(#paint1_linear_1420_358)"/>
</g>
<defs>
<filter id="filter0_d_1420_358" x="-20" y="0" width="1520" height="392" filterUnits="userSpaceOnUse" color-interpolation-filters="sRGB">
<feFlood flood-opacity="0" result="BackgroundImageFix"/>
<feColorMatrix in="SourceAlpha" type="matrix" values="0 0 0 0 0 0 0 0 0 0 0 0 0 0 0 0 0 0 127 0" result="hardAlpha"/>
<feOffset dx="5" dy="8"/>
<feGaussianBlur stdDeviation="8"/>
<feComposite in2="hardAlpha" operator="out"/>
<feColorMatrix type="matrix" values="0 0 0 0 0 0 0 0 0 0 0 0 0 0 0 0 0 0 0.25 0"/>
<feBlend mode="normal" in2="BackgroundImageFix" result="effect1_dropShadow_1420_358"/>
<feBlend mode="normal" in="SourceGraphic" in2="effect1_dropShadow_1420_358" result="shape"/>
</filter>
<linearGradient id="paint0_linear_1420_358" x1="731" y1="52.5" x2="886" y2="165" gradientUnits="userSpaceOnUse">
<stop stop-color="#610610"/>
<stop offset="1" stop-color="#430316"/>
</linearGradient>
<linearGradient id="paint1_linear_1420_358" x1="644.082" y1="-78.4424" x2="905.112" y2="527.071" gradientUnits="userSpaceOnUse">
<stop offset="0.16" stop-color="#380112"/>
<stop offset="1" stop-color="#59040F"/>
</linearGradient>
</defs>
</svg>
