<svg width="1440" height="700" viewBox="0 0 1440 700" fill="none" xmlns="http://www.w3.org/2000/svg">
<path d="M815 470L810 455H819L841.5 458C842.333 459.667 842.1 463.8 834.5 467C826.9 470.2 818.333 470.333 815 470Z" fill="#17000C"/>
<path d="M1078 618.5C1015.2 633.7 1038.83 612.167 1058.5 599.5L1139 576.5C1144.83 584.167 1140.8 603.3 1078 618.5Z" fill="#5C0A18"/>
<path d="M11.5 218.5L60.5 206C60.6667 206.833 67.1 208.9 91.5 210.5C122 212.5 128.5 214 168 218.5C201.2 221.7 238.5 219.833 253 218.5L288 222L327 225.5L380 230L448.5 241.5C460.5 243.333 486.4 247.8 494 251C501.6 254.2 517.167 255.667 524 256L576.5 265.5C586.167 264.333 609.5 262.7 625.5 265.5C641.5 268.3 666.5 268.667 677 268.5L766.5 273H786C794.667 274.5 811.7 277.4 810.5 277C809.124 276.541 831.736 276.924 833.935 276.991C834.245 276.817 859.805 274.287 873 273H914L959.5 268.5L976.5 263.5L1131.5 250L1247.5 242.5L1288 250H1329.5L1380 259.5L1412.5 263.5L1443.5 268.5L1447.5 350.5H-21V218.5H11.5Z" fill="#5F020C"/>
<path d="M-23 262.769C-9.66667 258.553 17.1 250.543 17.5 252.23C17.9 253.916 39.6667 259.959 50.5 262.769C57.251 264.314 70.0064 267.437 70.126 268.264C72.3258 266.966 91.3557 257.336 101.5 252.23C114.167 255.743 139.6 262.769 140 262.769H160C159.6 262.769 183.167 259.022 195 257.148L226 252.23H273L318.5 257.148L491.5 262.769H513.5C513.1 262.769 539 286.658 552 298.603L491.5 309.143L307 378L151 338.653L-23 326.708V262.769Z" fill="#410007"/>
<path d="M1454 333.5L1348 310L1421 298L1450 295L1454 333.5Z" fill="#C4221A"/>
<path d="M1155.5 304.5L1101.5 292L1083 300.5L1087 319.5L1106 327L1157 322L1201 309.5C1189.33 308.5 1166 306.4 1166 306C1166 305.6 1159 304.833 1155.5 304.5Z" fill="#4B030E"/>
<path d="M804 309C758.8 313.8 745.167 314.667 744 314.5L741 338L926.5 332L1090.5 309.5L1146.5 303.5L1118.5 297.5C1098.9 293.1 1094.33 293.333 1094.5 294H1035.5L992 290.5C986.167 289.333 971.6 287 960 287C946 288.5 930 290 908.5 294L907.533 294.18C886.201 298.15 859.656 303.09 804 309Z" fill="url(#paint0_linear_1420_366)"/>
<path d="M768 320.5H737V345.5L858.5 356L987.5 361L1056.5 348L1040.5 323.5L1005.5 313H967.5L923.5 316L872 320.5L812.5 323.5L768 320.5Z" fill="#59040F"/>
<path d="M387.124 282.373H359.993L345 320.988L396.405 323.997H470.657L544.908 324.499L625.586 325L657 317.478L653.43 296.415L646.291 293.908C643.911 293.406 637.295 292.303 629.87 291.902C622.444 291.501 620.112 292.069 619.874 292.403H610.593L599.883 293.406H580.606L552.048 295.412H534.199C529.915 294.911 521.348 293.807 521.348 293.406C521.348 292.905 498.501 288.893 498.501 289.394C498.501 289.795 491.362 286.887 487.792 285.382H474.227L462.803 282.373C454.236 281.203 432.531 279.164 414.254 280.367C395.977 281.571 388.551 282.206 387.124 282.373Z" fill="url(#paint1_linear_1420_366)"/>
<path d="M1155.5 310.5L1114 315C1115.5 318.667 1118.5 326.1 1118.5 326.5C1118.5 326.9 1161.5 337.333 1183 342.5L1305.5 338.5L1373.5 344.5L1423.5 330.5L1338 322L1317.5 315L1282 302L1276.5 292L1204.5 302L1155.5 310.5Z" fill="url(#paint2_linear_1420_366)"/>
<path d="M1271 335.5H1224.5L1200 359.5L1298 368L1444.5 382L1441 327L1379 331L1419.5 335.5H1379H1271Z" fill="#870B13"/>
<path d="M1194 333L1134 328L1139.5 344C1143.9 356.8 1175.67 362 1191 363L1311 395L1348.5 368L1311 357L1289.5 352L1257 349L1240 347.5L1223.5 352L1240 346L1258.5 347.5L1281 349H1296L1303.5 346L1293 344L1273 342.5L1257 340.5L1247.5 338L1232 334.5H1226C1223.33 334 1215.1 333 1203.5 333H1194Z" fill="url(#paint3_linear_1420_366)"/>
<path d="M1175.5 338.881C1146.3 340.881 1137 339.714 1136 338.881L1139 383.881L1175.5 391.381C1212.7 418.981 1263.67 404.881 1284.5 394.381L1342.5 380.381C1339 375.381 1325.8 364.881 1301 362.881C1276.2 360.881 1276.33 360.048 1279.5 359.881H1268L1228 349.881H1218L1225 347.381L1233 341.381H1246.5C1235 339.548 1204.7 336.481 1175.5 338.881Z" fill="#B91824"/>
<path d="M1175.01 367C1157.81 362.2 1145.18 355.667 1141.01 353C1140.51 353.5 1139.41 358 1139.01 372C1138.61 386 1149.18 391.5 1154.51 392.5H1200.01L1225.51 387L1217.51 378.5C1215.01 376.667 1203.01 371.8 1175.01 367Z" fill="#9D101A"/>
<path d="M848 330L843 333V337L869 350.5L928.5 358.5L966 354C961 351.833 949.3 347.5 942.5 347.5C935.7 347.5 927.667 346.167 924.5 345.5L911 343.5C907.5 342.333 897.7 339.2 886.5 336C872.5 332 877.5 333 859 331.5C852.2 330.3 848.833 330 848 330Z" fill="#ED441F"/>
<path d="M760.5 361L847.5 354H886C885.5 354 927.5 364 927.5 364.5C927.5 364.9 950.5 362.333 962 361C980.288 363.966 1016.75 369.765 1017.97 369.511C1018 369.495 1018.01 369.492 1018 369.5C1018 369.505 1017.99 369.508 1017.97 369.511C1016.72 370.245 978.078 396.622 958.5 410L843 438L758 386.5L748 375L760.5 361Z" fill="url(#paint4_linear_1420_366)"/>
<path d="M801 362.5L755.5 368.5L744 330H841.5H849.5V332L851 336L863 338.5L880 345L901 351C906.5 351.667 917.6 353 918 353C918.4 353 927.5 354.333 932 355L984.5 351L1036 348L1079.5 338.5V374L1055 383.5L970.5 365L934 368.5L904.5 365L880 359H857.5L801 362.5Z" fill="url(#paint5_linear_1420_366)"/>
<path d="M770.278 329L842.278 331L770.278 337L738.278 339.5V320.953C736.194 318.996 737.001 317.094 738.278 316V320.953C740.003 322.574 743.712 324.232 750.778 325.5L770.278 329Z" fill="#FC612E"/>
<path d="M488.946 315.222C479.588 315.625 475.083 320.092 474 322.274L565.625 353H654L649.451 319.252L636.455 317.237H628.657C625.625 317.069 619.69 316.734 620.209 316.734H607.863H587.069L602.014 318.245L605.264 320.763C603.531 321.267 598.505 322.274 592.267 322.274H574.072H556.527L520.787 315.222C514.072 315.055 498.303 314.82 488.946 315.222Z" fill="#FC612E"/>
<path d="M449.471 311.849L515 314.264L457.662 323.925L361.708 336L327.774 326.943L345.711 311.652C305.165 310.677 332.948 306.315 354.687 304L345.711 311.652C350.997 311.779 357.445 311.849 365.219 311.849H449.471Z" fill="#B11A1C"/>
<path d="M455.628 320.97L427.112 324.444L364.843 326.43L334 362.163L379.392 372.089L520.807 384H641.853L650 347.77H616.829H596.46C587.149 346.612 568.643 344.296 569.109 344.296C569.574 344.296 547.964 339.333 537.101 336.852L523.134 332.385L515.569 326.43L520.807 322.459L515.569 320.97H498.11C498.576 320.97 495.977 318.323 494.619 317C482.398 317.496 458.072 318.588 458.538 318.985C459.003 319.382 456.792 320.474 455.628 320.97Z" fill="#D02A23"/>
<path d="M411.5 359.125C398.3 361.525 381 365.458 374 367.125L378 377.625L521 405.625L619.5 401.125L634.5 377.625L597 375.125C573.8 374.325 563.667 372.458 561.5 371.625L530.5 367.125C520.333 366.291 500.2 364.625 501 364.625C501.8 364.625 484 360.958 475 359.125L454 356.125C448.833 355.791 433.1 355.925 411.5 359.125Z" fill="url(#paint6_linear_1420_366)"/>
<path d="M235.821 299.886C224.973 298.282 219.574 299.217 218.23 299.886L212 305.901L224.094 321.44L293.358 340.489L330.372 345L341 314.924H319.744H304.352L289.693 311.916C285.784 310.914 275.401 308.307 265.139 305.901C252.312 302.893 249.381 301.891 235.821 299.886Z" fill="#A70802"/>
<path d="M292 323.5C259.2 317.5 241.333 312 236.5 310L192 292H167.5L158 300L173 310L252 336H360C351 334.333 324.8 329.5 292 323.5Z" fill="#6E0300"/>
<path d="M148 278.5L120 272H112L114.5 278.5L142 291L187.5 298L213.5 304H225.5L235 301.5V298L213.5 293L187.5 286.5L148 278.5Z" fill="#B81B15"/>
<path d="M63 279L5 289.5L80.5 314.5L158.5 302.5L189.5 300C183.167 298.333 168.7 294.5 161.5 292.5C154.3 290.5 152.5 288.667 152.5 288C151.5 287.167 148.5 285.5 144.5 285.5C140.5 285.5 136.833 283.833 135.5 283L123 279.5L115 276V270L63 279Z" fill="#24000B"/>
<path d="M56.5 296.5L2 286L4.5 291.5L87 322L125 310L110 306.5L56.5 296.5Z" fill="#400316"/>
<path d="M583.5 389.5C565.1 393.1 547.5 391 541 389.5C520.167 387.167 469.4 381.5 433 377.5L387.5 372.5L382.5 364L356 382.5L399.5 386.5L447 389.5L490.5 421L546 436.5L599 410L633.5 386.5C624.5 386 601.9 385.9 583.5 389.5Z" fill="#B01B20"/>
<path d="M102 318L37 301L-12.5 277L-15 335L20 337.5L102 318Z" fill="#53061C"/>
<path d="M307.651 334.913L359.651 336.913L330.651 376.413L269.151 383.413L216.651 369.413H177.151L129.151 357.413C124.817 349.913 120.151 333.013 136.151 325.413C144.951 324.213 165.817 325.913 175.151 326.913L209.151 330.913C221.151 330.079 251.451 328.913 276.651 330.913C301.851 332.913 307.817 334.413 307.651 334.913Z" fill="url(#paint7_linear_1420_366)"/>
<path d="M-14 327.5L87.5 311L127.5 299.5L158.5 296L168 299.5C171.833 301.5 182.1 306.3 192.5 309.5C202.9 312.7 207.5 313.833 208.5 314L224 318.5L230.5 322.5V325.5L214 331L177 335.5C173.333 335.333 164 334.9 156 334.5C149.748 334.187 147.975 334.058 147.817 334.016C145.714 334.217 140.994 335.059 137.5 337C135.5 338.2 136.667 338.833 137.5 339L148.5 345.5C158 348.333 186.7 355.8 225.5 363C264.3 370.2 273 370.667 272.5 370H312L307.5 411L214 422L32.5 405.5L-14 385V327.5Z" fill="url(#paint8_linear_1420_366)"/>
<path d="M1244.48 381.699L1167 394.784L1244.48 424.477L1450 428V355.529L1430.63 351L1351 363.078L1244.48 381.699Z" fill="#1E0315"/>
<path d="M168.824 404.077C231.649 409.295 266.424 409.596 275.958 409.094H290L200.549 449.229C130.652 481.336 84.0535 470.968 69.4916 461.771L-15.7993 428.66L-21 381L39.3278 391.535C89.2542 399.562 90.2943 397.555 168.824 404.077Z" fill="#551834"/>
<path d="M1327.5 414H1434.5V471.5L1327.5 475.5L1205.5 450L1076 403L1137.5 366L1180.5 388L1233 408.5L1327.5 414Z" fill="url(#paint9_linear_1420_366)"/>
<path d="M1125 226H982L983 235.5L1046 237.5L1082.5 265L1061 296.5L1095.5 340V366L1121 390.5L1129.5 387L1140 371.5L1142 363.5C1142 362.667 1142.5 360.7 1144.5 359.5C1146.5 358.3 1145.33 355.333 1144.5 354L1142 351V341L1143.5 339L1134.5 329L1133.5 326L1134.5 323.5H1132L1128.5 318L1127.5 315.5L1125 314.5L1123.5 315.5C1121.83 314.5 1118.6 312.6 1119 313C1119.4 313.4 1116.17 310.833 1114.5 309.5H1109C1109.8 309.5 1105.33 307.167 1103 306L1093.5 305L1088.5 303.5V301L1108 285L1117 276.5C1118.83 271.667 1122.5 262.1 1122.5 262.5C1122.5 263 1127.5 255.5 1125 252C1123 249.2 1124.17 233.5 1125 226Z" fill="url(#paint10_linear_1420_366)"/>
<path d="M1092 406.5L1065 395L1042 400.5L1104 445L1249 486.5L1289.5 461L1242.5 451.5C1230.83 449.167 1207.4 444.6 1207 445C1206.5 445.5 1178 437.5 1178.5 437C1178.9 436.6 1167.33 433.5 1161.5 432C1149.83 428.333 1126.6 421.1 1127 421.5C1127.4 421.9 1103.83 411.667 1092 406.5Z" fill="url(#paint11_linear_1420_366)"/>
<path d="M887.485 408.203C887.892 408.203 850.665 413.235 832 415.752L849.307 454L939.407 435.379L1001 408.203L986.747 388.575L971.476 377C966.216 379.516 948.06 387.065 917.518 397.131C879.34 409.712 886.976 408.203 887.485 408.203Z" fill="#24000B"/>
<path d="M1006 411.5L979.5 399.5L967.5 385L964 366.5V363.5L975 360.5L1006 376.5L1058.5 392V376.5L1064.49 370.007C1064.45 369.888 1064.22 368.405 1063.5 363C1062.7 357 1059.83 351.167 1058.5 349L1051 343L1040.5 340.5L1027 338.5H1012L1003 311L1014.5 298L1026 288L1039 276H1012H974H969V262V243V228.5L974 227H979.5L989 228.5L1024.5 236L1079 253.5L1057.5 300C1062.17 298.667 1073.3 304.9 1080.5 340.5C1087.7 376.1 1076.83 390.333 1070.5 393L1006 411.5Z" fill="#300009"/>
<path d="M982.5 383.547L975 363.047V360.547L1030.5 358.547L1032 368.047L1034.5 372.547L1038.5 375.547L1043 378.047L1049 378.547H1055L1057.5 377.047H1063.5C1063.9 377.047 1067 374.047 1068.5 372.547C1072.1 369.747 1074.67 367.714 1075.5 367.047L1077 362.547C1077 361.214 1077.2 357.947 1078 355.547C1078.8 353.147 1078.33 352.881 1078 353.047L1077 352.047L1076 347.047C1075.5 346.547 1074 345.447 1072 345.047C1070 344.647 1071.17 342.881 1072 342.047L1071.5 340.047C1070.67 340.214 1068.8 340.247 1068 339.047C1067.2 337.847 1066.67 337.547 1066.5 337.547C1065.5 337.714 1063.3 337.747 1062.5 336.547C1061.3 335.747 1060.33 336.214 1060 336.547L1058 334.047C1056.33 334.047 1052.4 333.747 1050 332.547C1047.6 331.347 1047.33 333.047 1047.5 334.047C1045.33 333.547 1040 332.547 1036 332.547H1025L1018.5 305.547L1055 271.047H1006H982.5V268.047V227.047H1030.5H1055C1059 227.214 1068.3 227.447 1073.5 227.047C1078.7 226.647 1079.33 228.881 1079 230.047L1094.5 233.547L1100.5 237.547L1105 242.047L1109 248.047C1109.33 250.381 1109.8 256.147 1109 260.547C1107.8 264.547 1105.83 269.214 1105 271.047L1100.5 277.547L1092.5 286.047L1084 294.047L1083 299.047V303.547C1082.67 304.047 1081.4 305.547 1079 307.547C1076.6 309.547 1080 308.381 1082 307.547L1103.5 317.047L1114.5 326.547L1123 336.547L1128 345.547V362.547L1123 373.047L1114.5 383.547L1130.5 389.547C1128 391.214 1120.6 395.647 1111 400.047C1101.49 404.406 1106.9 406.18 1110.89 406.537L1070.5 403.047L1014.5 412.547C1006 406.714 989 394.947 989 394.547C989 394.147 984.667 387.047 982.5 383.547Z" fill="url(#paint12_linear_1420_366)"/>
<path d="M944.5 423.583L878 442.583L915.5 468.083L1034 436.583L1068 410.083C1057.33 403.917 1036.4 391.883 1038 393.083C1040 394.583 1033.5 397.583 1003.5 406.583C979.5 413.783 954.167 420.917 944.5 423.583Z" fill="#24010F"/>
<path d="M995 436.5L958 455.5L1056 492L1235 469C1209.67 462.5 1154 447.5 1134 439.5C1114 431.5 1105.33 427.833 1103.5 427L1069 408L1035 423L995 436.5Z" fill="#9D101A"/>
<path d="M440.109 378L325 340.325L337.166 325L386.298 332.024L449 353.096L440.109 378Z" fill="#B01B20"/>
<path d="M239.72 387.023C240.23 416.66 225.478 399.372 218.038 387.023L205.922 351.86C216.975 351.232 239.21 357.386 239.72 387.023Z" fill="#17000D"/>
<path d="M285.635 150.857L279.258 160.276L359.608 172.206L385.754 205.485L364.71 279.578L307.317 342.369L343.028 359.95L460.365 372.508L458.452 359.95V354.299C457.389 354.508 454.243 354.801 450.162 354.299C446.081 353.797 448.462 351.578 450.162 350.531L452.075 348.648V342.369C451.225 340.485 448.632 336.717 445.06 336.717C440.597 336.717 438.046 338.601 431.031 338.601C424.016 338.601 427.205 336.717 422.741 335.462C419.17 334.457 417.427 335.88 417.002 336.717C415.726 337.345 410.497 338.601 399.784 338.601H380.653C380.142 338.601 376.189 337.345 374.275 336.717L364.71 338.601H343.028L335.376 335.462L353.231 322.276L385.754 302.811L403.61 285.229L417.002 272.043H420.19L422.741 271.415L434.22 260.113L438.046 252.578L441.234 246.299L445.06 238.764L446.336 235.624L448.887 228.09L455.264 223.694V220.555L451.438 214.904L450.8 211.764L453.988 207.997V205.485L450.8 201.09L450.162 196.694L452.075 192.927L448.887 189.159L446.974 182.252L443.147 172.206L431.669 163.415L419.552 153.369L409.987 145.834L396.595 139.555H376.189H364.71C361.096 139.136 350.298 138.55 336.013 139.555C318.158 140.811 323.897 140.811 310.505 142.694C299.792 144.201 289.461 148.764 285.635 150.857Z" fill="url(#paint13_linear_1420_366)"/>
<path d="M230.793 391.419L274.795 345.581L357.696 285.302L392.77 218.116L369.812 171.651L295.201 170.395L246.098 218.116L243.547 235.07L299.027 242.605L307.317 235.07L318.796 196.14L344.304 202.419L352.594 206.814L357.696 212.465L358.971 220L357.696 228.163L352.594 237.581L348.13 246.372C344.092 250.767 331.423 263.326 313.057 278.395C294.691 293.465 283.722 301.837 280.534 304.14L248.011 327.372L222.503 345.581L220.59 380.744L230.793 391.419Z" fill="#0C0004"/>
<path d="M230.793 346.837V387.651L246.098 407.116L432.945 355.628L413.814 346.837L388.306 344.954L359.609 346.837L328.999 344.954L364.711 317.954L385.117 302.884L418.915 262.07C422.529 253.279 429.884 235.698 430.394 235.698C430.904 235.698 430.181 233.186 429.756 231.93L428.481 230.674L432.945 220L432.307 208.698V204.302L429.756 199.907L425.93 198.023C424.655 197.814 422.104 197.019 422.104 195.512C422.104 194.507 424.655 194.674 425.93 194.884L427.205 191.744L426.568 187.349C425.93 186.721 423.889 185.088 420.828 183.581C418.278 182.577 421.041 180.233 422.741 179.186L417.002 178.558C415.727 177.721 412.666 175.67 410.625 174.163C408.584 172.656 405.949 170.605 404.886 169.767C403.61 169.14 400.932 167.507 400.422 166C399.912 164.493 398.509 164.535 397.871 164.744C396.383 163.698 392.897 161.605 390.856 161.605C389.326 161.605 387.668 160.349 387.03 159.721L369.812 155.326L345.579 150.302H325.811L301.578 152.186L283.085 155.326L267.78 162.233C265.016 164.744 259.362 169.767 258.852 169.767C258.214 169.767 255.026 178.558 252.475 185.465C250.434 190.991 247.798 193.209 246.736 193.628C246.523 197.395 246.225 204.93 246.736 204.93C247.246 204.93 243.972 211.628 242.272 214.977V218.744L240.996 229.419L313.057 232.558C312.844 230.465 312.546 224.772 313.057 218.744C313.567 212.716 315.395 209.535 316.245 208.698L320.071 201.791L325.811 197.395C327.724 196.558 331.55 195.009 331.55 195.512C331.55 196.014 335.801 194.465 337.927 193.628L345.579 192.372L350.043 193.628C352.382 194.465 357.951 196.767 361.522 199.279C365.093 201.791 366.411 202.837 366.624 203.047C367.686 205.558 369.812 211.837 369.812 216.861V224.395L364.711 236.954L354.507 247.628L351.319 254.535L323.26 280.279L281.171 311.674L230.793 346.837Z" fill="url(#paint14_linear_1420_366)"/>
<path d="M73.279 403.349L13.9727 411.512L123.657 413.395L322.621 391.419L358.332 373.209L345.578 370.07L341.114 373.209L336.65 371.326H329.635C326.872 371.954 320.708 373.712 318.157 375.721C315.606 377.73 317.094 384.093 318.157 387.023H314.331L312.417 375.721L305.403 371.326H300.301L290.736 373.209L281.17 376.349L269.691 379.488L261.401 381.372H243.546H229.516C230.026 381.372 226.753 382.209 225.052 382.628L219.951 381.372L220.588 370.698C218.25 371.744 212.171 374.34 206.559 376.349C200.947 378.358 201.67 379.279 202.733 379.488C200.607 379.907 193.422 381.623 181.688 385.14C169.955 388.656 168.722 388.698 169.572 388.279H156.18C155.117 389.535 150.313 392.926 139.6 396.442C126.208 400.837 116.643 398.954 103.889 398.954H84.1199H75.8298L73.279 403.349Z" fill="#17000D"/>
<path d="M5.12917 414.068H-60L-44.037 463H102.184C160.29 455.977 291.187 439.349 349.931 429.019C408.675 418.689 432.726 407.498 437.408 403.194L420.168 347.465L354.4 377.368L296.295 391.64L205.625 403.194L143.05 411.349L87.4984 414.068H5.12917Z" fill="url(#paint15_linear_1420_366)"/>
<path d="M520.947 380.744L550.919 387.651L561.76 392.047L546.455 407.116L489.062 433.488L474.395 402.721L455.264 368.814L458.452 362.535L474.395 366.93L484.598 368.814L489.062 371.326L499.265 374.465L520.947 380.744Z" fill="url(#paint16_linear_1420_366)"/>
<path d="M232.068 427.209L103.252 444.163H321.346L429.756 427.209L499.903 413.395L492.888 406.488L476.946 389.535L470.569 382V375.721L447.611 360.023L423.379 347.465L410.625 369.442L423.379 389.535L410.625 398.326L327.086 427.209H232.068Z" fill="url(#paint17_linear_1420_366)"/>
<path d="M820.536 450.338C787.704 454.413 799.588 437.479 809.635 428.503C816.475 421.467 837.465 409.434 866.707 417.586C895.948 425.737 889.15 433.598 882.097 436.509C875.257 439.42 853.368 446.262 820.536 450.338Z" fill="#16000B"/>
<path d="M106.337 496.372C74.0181 498.118 92.871 480.602 106.337 471.626L146.736 464.348C146.736 474.294 138.657 494.625 106.337 496.372Z" fill="#22000F"/>
<path d="M461.783 604.339L283.436 547.882L524.337 454.728L699.357 403.211L825.797 435.674L912.308 466.725L1093.98 503.422C1048.06 522.006 926.949 565.102 809.825 588.814C734.76 610.832 546.52 608.339 461.783 604.339Z" fill="url(#paint18_linear_1420_366)"/>
<path d="M618.484 487.109C557.886 472.658 553.007 466.752 558.143 465.605L670.48 414.856L748.796 441.521L786.028 475.066C801.006 483.955 840.849 505.688 880.392 521.514C919.934 537.341 929.82 545.312 929.82 547.319C922.331 546.172 849.579 532.524 618.484 487.109Z" fill="#5B071B"/>
<path d="M127.068 491.356L289.171 477.311L471.375 429.157L614.674 366.958L692.112 349.447C694.298 348.703 696.586 348.166 698.968 347.897L692.112 349.447C675.255 355.185 664.453 373.207 663.305 374.983C662.008 376.99 708.466 395.042 693.781 405.08C670.642 420.894 587.225 454.906 549.185 473.298L369.574 555.561L306.03 570.609L171.16 565.593L117.99 541.516L127.068 491.356Z" fill="#2D0110"/>
<path d="M145.565 481.943L91.0586 499.283L298.184 492.189L365.516 488.249L415.534 477.214L504.027 455.145C517.707 451.204 558.919 437.49 614.323 414.16C669.728 390.83 658.784 400.236 646.386 407.855L675.884 397.609C687.854 401.549 717.437 411.638 740.009 420.466C762.581 429.293 766.942 429.398 766.301 428.347L810.547 434.653H845.816H890.063L849.023 423.618C844.106 423.618 829.016 421.727 807.982 414.16C786.949 406.594 773.996 399.973 770.148 397.609L743.216 381.057L724.619 358.2V337.707L598.933 374.752L495.05 407.067L338.583 448.84L145.565 481.943Z" fill="url(#paint19_linear_1420_366)"/>
<path d="M64.3637 448.27L0 457.747L89.5784 487.638H204.371L305.23 470.87L414.715 448.27L507.611 407.443L605.152 381.927L668.188 270.383L627.712 55.3142H579.937C576.177 72.8113 570.913 110.722 579.937 122.386L619.086 136.967V179.981V270.383L579.937 337.455C563.127 344.745 529.508 359.035 529.508 357.868C529.508 356.702 503.851 373.421 491.022 381.927L423.341 407.443C383.971 416.192 305.23 433.251 305.23 431.502C305.23 429.315 202.381 448.27 204.371 448.27H123.419H64.3637Z" fill="url(#paint20_linear_1420_366)"/>
<path d="M738.084 0H664.34L705.38 360.998L725.9 384.288L748.344 399.572L775.918 411.217L817.6 425.046H831.066L871.465 435.963L839.403 440.33V465.803C871.337 478.321 889.733 482.407 922.766 488.366L1009.34 503.65L1088.21 516.023L1287 478.176L1154.9 465.803C1126.8 459.551 1049.09 434.673 965.089 403.939C886.086 373.662 877.45 368.518 883.008 369.731L775.918 307.867L748.986 281.665L748.344 269.293V250.369V222.712V198.694C748.344 189.378 749.199 191.416 749.627 193.6V189.233C747.879 183.541 748.386 169.8 748.344 167.398C745.779 165.215 748.344 162.303 748.344 152.114C748.344 141.924 748.344 146.291 749.627 139.013C750.653 133.191 749.199 133.191 748.344 133.918C748.344 130.037 748.601 121.254 749.627 117.179C750.653 113.103 749.199 113.054 748.344 113.54L747.062 74.2374L748.344 57.4976L749.627 51.6751L748.344 43.6691V33.4796C745.005 26.3041 748.233 10.5829 748.344 7.27818C748.585 0.120856 738.576 0.274946 738.084 0Z" fill="url(#paint21_linear_1420_366)"/>
<path d="M593.1 53.8586L584.122 114.995L625.163 118.634L639.27 112.084L637.346 126.64C636.373 130.103 640.364 138.855 641.194 147.019C641.512 150.144 638.113 150.662 639.27 153.57L637.988 211.067V243.819L637.346 302.044C637.133 307.139 636.192 317.474 634.14 318.056C632.088 318.639 633.285 321.21 634.14 322.423L631.575 328.246L625.163 336.252L614.261 338.435L612.979 341.347L607.207 342.802C606.352 346.684 601.564 355.903 589.252 361.725C581.557 365.801 578.778 367.791 578.351 368.276L568.732 370.459C565.312 371.187 557.574 373.807 553.983 378.465C549.366 383.706 549.922 384.53 550.777 384.288V390.11H558.472L578.351 386.471L600.154 379.921L616.826 377.01L639.27 368.276L652.095 366.82L663.638 363.909L680.311 360.27H702.113H715.58L734.176 362.453L747.001 370.459H757.261L765.598 366.82L784.194 374.826H807.279L768.804 350.808L753.414 338.435C741.099 335.826 731.448 326.736 736.1 318.784C736.1 318.784 731.162 314.107 734.176 312.962L728.405 304.956C728.832 301.559 729.174 294.475 727.122 293.311L725.84 292.583C725.412 291.855 724.685 289.38 725.198 285.305C725.711 281.229 726.695 283.121 727.122 284.577C727.55 283.849 728.405 279.919 728.405 270.02C728.405 264.198 727.977 264.198 727.764 264.926C727.55 263.955 726.738 261.723 725.198 260.559C723.659 259.394 724.13 258.133 724.557 257.648C725.198 257.648 726.609 256.046 727.122 249.642C727.122 247.313 727.977 248.186 728.405 248.914L727.764 246.002V240.18L725.198 239.452L723.916 234.357C723.916 232.659 724.301 229.117 725.84 228.535C727.379 227.953 726.481 223.925 725.84 221.984V216.89C725.198 216.647 723.916 215.434 723.916 212.523C723.916 209.612 725.198 209.854 725.84 210.339V205.245C725.626 203.546 725.327 198.985 725.84 194.327C726.353 192.581 726.053 190.203 725.84 189.233C725.84 188.262 726.225 185.739 727.764 183.41C729.303 181.081 728.405 180.984 727.764 181.227C727.977 180.499 728.277 178.607 727.764 176.86C727.251 175.113 727.55 173.706 727.764 173.221L725.84 172.493C725.626 170.795 725.327 167.398 725.84 167.398C726.353 167.398 725.626 164.002 725.198 162.303V159.392C724.771 158.179 723.659 155.316 722.633 153.57C721.607 151.823 721.351 149.93 721.351 149.203V142.652H723.916C723.702 141.197 720.109 137.254 721.351 138.285C721.586 138.481 722.346 134.678 720.068 132.463L724.557 108.445L720.068 94.6164L724.557 87.3382L729.687 79.3322L724.557 69.8706V53.8586V42.2135L720.068 29.1128L713.656 18.9233L705.961 12.373L689.288 2.91132H680.952H674.539L666.203 1.45569C656.432 17.8845 623.75 43.8564 618.75 40.7578C617.624 40.0603 596.306 48.7638 596.947 48.7638C597.46 48.7638 594.596 52.1603 593.1 53.8586Z" fill="#A70803"/>
<path d="M1156.38 470C999.51 530.015 526.851 580.588 213 552.086L389.354 659.155L813.847 677L968.157 640.597L1465 470H1156.38Z" fill="#E33029"/>
<path d="M-9 485.968V410L175.169 471.9L384.861 537.738L537 567H247.735L-9 485.968Z" fill="url(#paint22_linear_1420_366)"/>
<path d="M-9 740V665L213 740H-9Z" fill="#290620"/>
<path d="M-25 552V693.171L191.897 753H570L825 670.314L594.621 659.559L448.655 643.425L293.31 627.963L-25 552Z" fill="url(#paint23_linear_1420_366)"/>
<path fill-rule="evenodd" clip-rule="evenodd" d="M718.862 669.859L501 753H1465L1455.64 641C1392.9 650.62 1204.09 674.531 950.763 693.221C900.667 706.898 768.973 683.5 718.862 669.859Z" fill="url(#paint24_linear_1420_366)"/>
<path d="M832.682 562.291C843.344 552.453 1027.14 512.558 1027.14 512.558L1443.41 412.382L1437.38 558.465L1013.43 600C938.779 599.694 822.02 572.128 832.682 562.291Z" fill="url(#paint25_linear_1420_366)"/>
<path d="M402.5 601C346.833 587 185.4 544 -15 484V586L72 601L257 636L424 656L639.5 669H960L951.5 626H880L728 636L556 626L402.5 601Z" fill="url(#paint26_linear_1420_366)"/>
<path d="M1068.57 588.364L677 683.705L895.886 703L1453 658.167V455L1068.57 588.364Z" fill="url(#paint27_linear_1420_366)"/>
<defs>
<linearGradient id="paint0_linear_1420_366" x1="741" y1="312.5" x2="1146.5" y2="312.5" gradientUnits="userSpaceOnUse">
<stop offset="0.2" stop-color="#710710"/>
<stop offset="1" stop-color="#2D010D"/>
</linearGradient>
<linearGradient id="paint1_linear_1420_366" x1="345" y1="302.5" x2="657" y2="302.5" gradientUnits="userSpaceOnUse">
<stop stop-color="#51040F"/>
<stop offset="1" stop-color="#730811"/>
</linearGradient>
<linearGradient id="paint2_linear_1420_366" x1="1269" y1="295" x2="1280.5" y2="336" gradientUnits="userSpaceOnUse">
<stop stop-color="#22000C"/>
<stop offset="1" stop-color="#56050F"/>
</linearGradient>
<linearGradient id="paint3_linear_1420_366" x1="1139.5" y1="336.5" x2="1341.5" y2="371.5" gradientUnits="userSpaceOnUse">
<stop stop-color="#5B071B"/>
<stop offset="1" stop-color="#790F24"/>
</linearGradient>
<linearGradient id="paint4_linear_1420_366" x1="870.5" y1="354" x2="923.5" y2="418" gradientUnits="userSpaceOnUse">
<stop offset="0.3" stop-color="#3C020D"/>
<stop offset="1" stop-color="#A01720"/>
</linearGradient>
<linearGradient id="paint5_linear_1420_366" x1="800" y1="330" x2="1080" y2="362.5" gradientUnits="userSpaceOnUse">
<stop stop-color="#5B071B"/>
<stop offset="1" stop-color="#9D101A"/>
</linearGradient>
<linearGradient id="paint6_linear_1420_366" x1="374" y1="372.5" x2="571.5" y2="391.5" gradientUnits="userSpaceOnUse">
<stop stop-color="#981623"/>
<stop offset="1" stop-color="#F03B23"/>
</linearGradient>
<linearGradient id="paint7_linear_1420_366" x1="125" y1="354.206" x2="359.651" y2="354.206" gradientUnits="userSpaceOnUse">
<stop stop-color="#9A1520"/>
<stop offset="1" stop-color="#85020D"/>
</linearGradient>
<linearGradient id="paint8_linear_1420_366" x1="89.5" y1="310.5" x2="220" y2="422" gradientUnits="userSpaceOnUse">
<stop stop-color="#240112"/>
<stop offset="1" stop-color="#510922"/>
</linearGradient>
<linearGradient id="paint9_linear_1420_366" x1="1133" y1="366" x2="1435" y2="421" gradientUnits="userSpaceOnUse">
<stop stop-color="#FB4E21"/>
<stop offset="1" stop-color="#A81519"/>
</linearGradient>
<linearGradient id="paint10_linear_1420_366" x1="1121.5" y1="261.5" x2="1089.5" y2="333.5" gradientUnits="userSpaceOnUse">
<stop stop-color="#FE7119"/>
<stop offset="1" stop-color="#D11B0C"/>
</linearGradient>
<linearGradient id="paint11_linear_1420_366" x1="1056" y1="401.5" x2="1265" y2="476" gradientUnits="userSpaceOnUse">
<stop stop-color="#CB261B"/>
<stop offset="1" stop-color="#AC171A"/>
</linearGradient>
<linearGradient id="paint12_linear_1420_366" x1="1052.75" y1="227" x2="1052.75" y2="412.547" gradientUnits="userSpaceOnUse">
<stop stop-color="#D21102"/>
<stop offset="1" stop-color="#640107"/>
</linearGradient>
<linearGradient id="paint13_linear_1420_366" x1="453.988" y1="150.93" x2="372.071" y2="373.413" gradientUnits="userSpaceOnUse">
<stop stop-color="#FA9728"/>
<stop offset="1" stop-color="#D32413"/>
</linearGradient>
<linearGradient id="paint14_linear_1420_366" x1="433.582" y1="150.302" x2="271.687" y2="370.589" gradientUnits="userSpaceOnUse">
<stop stop-color="#960704"/>
<stop offset="1" stop-color="#3B000A"/>
</linearGradient>
<linearGradient id="paint15_linear_1420_366" x1="-60" y1="405.233" x2="418.969" y2="388.432" gradientUnits="userSpaceOnUse">
<stop stop-color="#2A0111"/>
<stop offset="1" stop-color="#3B0113"/>
</linearGradient>
<linearGradient id="paint16_linear_1420_366" x1="508.512" y1="362.535" x2="503.255" y2="425.339" gradientUnits="userSpaceOnUse">
<stop offset="0.257842" stop-color="#DC2815"/>
<stop offset="1" stop-color="#FB5D21"/>
</linearGradient>
<linearGradient id="paint17_linear_1420_366" x1="433.582" y1="387.651" x2="499.871" y2="396.067" gradientUnits="userSpaceOnUse">
<stop stop-color="#720818"/>
<stop offset="1" stop-color="#D82415"/>
</linearGradient>
<linearGradient id="paint18_linear_1420_366" x1="283.436" y1="544.354" x2="966.855" y2="484.682" gradientUnits="userSpaceOnUse">
<stop offset="0.2" stop-color="#5C0824"/>
<stop offset="1" stop-color="#A31926"/>
</linearGradient>
<linearGradient id="paint19_linear_1420_366" x1="91.0586" y1="418.495" x2="890.063" y2="418.495" gradientUnits="userSpaceOnUse">
<stop offset="0.2" stop-color="#300317"/>
<stop offset="1" stop-color="#15000B"/>
</linearGradient>
<linearGradient id="paint20_linear_1420_366" x1="603.825" y1="55.3142" x2="-17.7469" y2="401.212" gradientUnits="userSpaceOnUse">
<stop stop-color="#110003"/>
<stop offset="0.5" stop-color="#28000A"/>
<stop offset="0.538042" stop-color="#19000A"/>
<stop offset="0.75" stop-color="#39020D"/>
<stop offset="0.875" stop-color="#210010"/>
<stop offset="1" stop-color="#3A0319"/>
</linearGradient>
<linearGradient id="paint21_linear_1420_366" x1="704.739" y1="9.46171" x2="1321.96" y2="405.074" gradientUnits="userSpaceOnUse">
<stop stop-color="#FF8121"/>
<stop offset="0.5" stop-color="#E32A10"/>
<stop offset="1" stop-color="#B3191D"/>
</linearGradient>
<linearGradient id="paint22_linear_1420_366" x1="11.0183" y1="446.577" x2="535.497" y2="543.098" gradientUnits="userSpaceOnUse">
<stop stop-color="#8B0D18"/>
<stop offset="0.6" stop-color="#E3312A"/>
</linearGradient>
<linearGradient id="paint23_linear_1420_366" x1="-25" y1="652.5" x2="825" y2="652.5" gradientUnits="userSpaceOnUse">
<stop stop-color="#2A051D"/>
<stop offset="1" stop-color="#76112A"/>
</linearGradient>
<linearGradient id="paint24_linear_1420_366" x1="1457.2" y1="713.834" x2="510.174" y2="729.182" gradientUnits="userSpaceOnUse">
<stop stop-color="#180214"/>
<stop offset="1" stop-color="#7B132E"/>
</linearGradient>
<linearGradient id="paint25_linear_1420_366" x1="1009.2" y1="600" x2="1453.74" y2="434.608" gradientUnits="userSpaceOnUse">
<stop stop-color="#560413"/>
<stop offset="1" stop-color="#15000B"/>
</linearGradient>
<linearGradient id="paint26_linear_1420_366" x1="-15" y1="517.5" x2="960" y2="669.5" gradientUnits="userSpaceOnUse">
<stop offset="0.2" stop-color="#23000D"/>
<stop offset="0.5" stop-color="#960C14"/>
<stop offset="1" stop-color="#C6282B"/>
</linearGradient>
<linearGradient id="paint27_linear_1420_366" x1="690.749" y1="681.435" x2="1453.77" y2="585.137" gradientUnits="userSpaceOnUse">
<stop stop-color="#9E1723"/>
<stop offset="1" stop-color="#25010F"/>
</linearGradient>
</defs>
</svg>
