<svg width="239" height="228" viewBox="0 0 239 228" fill="none" xmlns="http://www.w3.org/2000/svg">
<path d="M-45 1.3037L12.3037 -56L157.954 89.6789L157.954 -41.9074L239 -41.9074L239 228L-30.9076 228L-30.9076 146.954L100.679 146.954L-45 1.3037ZM12.3037 -51.9816L-40.9817 1.33203L107.527 149.812L-28.0494 149.812L-28.0495 225.199L236.199 225.199L236.199 -39.0493L160.812 -39.0493L160.812 96.5268L12.3037 -51.9816Z" fill="#1F2DB0"/>
<path d="M238.5 227.5L-30.4072 227.5L-30.4072 147.454L101.886 147.454L101.032 146.601L-44.292 1.30272L12.3037 -55.293L157.601 90.0322L158.454 90.8857L158.454 -41.4072L238.5 -41.4072L238.5 227.5ZM160.312 -39.5488L160.312 95.3193L12.6572 -52.335L12.3037 -52.6885L11.9502 -52.335L-41.335 0.978503L-41.6885 1.33202L-41.335 1.68553L106.32 149.312L-28.5498 149.312L-28.5498 225.698L236.698 225.698L236.698 -39.5488L160.312 -39.5488Z" stroke="white" stroke-opacity="0.1"/>
</svg>
