<svg width="1440" height="1024" viewBox="0 0 1440 1024" fill="none" xmlns="http://www.w3.org/2000/svg">
<path d="M1602.86 -146H-158.99V1615.8H1602.86V-146Z" fill="url(#paint0_linear_596_5)"/>
<path d="M-158.99 564.57V-146H1602.81V-14.33C1596.46 -13.14 1592.01 -6.63 1585.27 -6.13C1579.69 -5.72 1575.82 -0.889999 1570.1 0.559998C1561.16 2.81999 1550.22 2.64999 1544.69 10.86C1540.06 17.75 1525.81 21.89 1522.28 26.95C1521.14 28.59 1523.6 30.3 1524.2 31.63C1524.68 32.7 1527.52 32.11 1529.16 31.42L1555.53 20.2C1561.7 17.57 1567.12 19.22 1573.56 18.44C1581.59 17.47 1580.21 7.39999 1602.8 8.39V584.91C1597.26 583.29 1591.18 583.47 1585.62 587.24C1582.28 589.5 1578.4 586.66 1575.39 587.37C1564.39 589.99 1555.01 587.2 1544.25 586.41C1533.49 585.62 1524.46 584.66 1514.64 581.39C1506.09 578.54 1496.59 582.09 1487.46 581.92C1465.33 581.51 1459.49 575.76 1437.61 578.83C1421.59 581.08 1406.38 571.2 1391.36 569.9C1382.05 569.09 1375.46 571.73 1366.18 567.37C1356.9 563.01 1344.48 557.77 1334.74 555.82C1290.81 563.96 1275.99 543.89 1251.8 538.9C1245.17 537.53 1239.23 539.84 1232.35 535.52C1229.26 533.58 1222.91 538.44 1219.12 537.24C1207.12 533.45 1197 527.49 1185.97 522.42C1176.11 522.49 1165.51 529.47 1155.75 527.72C1137.46 524.45 1121.59 513.63 1103.67 507.18C1087.41 510.77 1078.02 519.07 1061.22 512.85C1044.42 506.63 1026.25 497.58 1012.32 494.01L976.46 471.7C968.83 466.95 949.87 482.92 935.77 481.87C932.45 481.62 929.47 478.23 924.74 480.23C914.91 484.37 900.44 472.26 887.61 470.84C883.7 471.12 900.18 484.37 894.49 483.73C891.11 483.62 891.83 477.94 889.07 477.29C885.07 476.35 886.11 472.19 884.1 470.12C874.87 460.58 861.37 460.07 850.99 454.96C845.2 452.11 840.11 446.8 832.42 444.86C825.86 443.21 820.99 436.37 814.11 435.58C813.56 437.25 812.84 437.4 813.41 437.52C814.04 437.66 815.32 440.39 814.06 440.67C813.21 440.87 812.65 438.51 811.78 438.51C813.22 437.72 812.26 436.63 811.13 435.19C809.78 433.66 807.14 431.51 803.19 430.22C803.95 433.29 808.63 438.47 811.78 438.51C807.74 440.74 821.84 455.55 824.84 458.15C823.99 452.55 819.5 449.93 820.24 444.04C824.19 446.14 824 451.19 826.79 454.45C831.74 460.25 839.09 464.82 839.43 473.34C822.45 462.05 810.31 448.03 798.87 432.23C798.31 429.52 799.98 427.33 798.86 426.57C797.52 425.66 792.6 422.25 791.27 423.84C785.75 430.48 791.34 438.36 792.32 446.13C793.06 452.03 799.69 453.21 801.06 458.28C787.67 453.7 788.64 439.58 785.98 431.21C784.63 426.98 780.95 423.56 784.79 419.05C783.37 415.47 778.19 410.51 773.21 412.55L752.93 420.84C747.94 422.88 728.24 426.34 726.89 427.23C710.34 438.11 693.84 448.03 675.51 455.94C659.27 462.95 642.7 463.15 625.49 464.92C610.06 466.51 586.31 486.9 553.27 476.18C542.85 484.51 530.13 484.78 518.87 478.24C509.35 482.21 501.67 478.89 493.53 474.89L473.94 465.28L451.69 473.24C459.88 470.31 388.45 507.27 372.43 509.46C368.33 510.02 363.6 506.2 359.38 508.2C335.05 519.77 311.88 535.64 284.66 536.16L257.29 536.69L238.83 536.34C232.89 536.23 226.72 533.56 221.36 537.32C219.28 535.9 217.79 534.86 216.8 534.46C215.19 533.81 212.41 537.21 211.08 537.4L192.15 540.03C175.83 542.3 159.8 540.33 143.57 545.7C134.09 548.84 124.31 551.49 115.04 551.05C115.24 549.33 115.12 545.83 113.01 545.66C114.2 521.15 105.28 486.63 112.87 478.56C118.21 472.88 124.74 472.13 123.18 461.23C125 461.58 128.16 460.88 130.75 461.84C134.25 460.39 138.83 452.58 135.94 448.37C131.94 442.54 123.56 437.87 116.87 439.96C113.68 440.95 106.69 438.96 105.65 433.33C101.11 408.81 101.94 382.71 99.0798 356.45C98.3198 349.51 100.62 342.63 95.3398 337.09C91.5598 333.12 95.6998 326.23 94.9298 320.77C90.0098 285.97 94.2698 233.43 88.8398 211.05C88.6498 210.25 86.3898 210.38 87.2098 211.03C88.6098 212.14 85.3398 213.56 85.5198 214.13C89.8498 228.08 84.9198 242.78 87.0698 256.57C86.3898 255.69 84.0498 257.36 84.0198 258.89L82.8298 323.02L81.7698 336.26C81.5798 338.67 80.2998 340.39 80.1898 343.14C79.4898 361.02 81.1298 380.25 76.8898 397.97C75.1598 398.02 73.3098 399.61 73.3098 401.36V406.29C73.3298 412.55 73.3098 418.81 73.2398 425.08C73.2198 426.44 72.9198 427.81 73.3598 429.14C66.3798 435.34 34.3098 442.47 34.4698 451.88C34.6098 460.08 48.4898 464.43 51.0098 467.88C54.7898 473.05 63.0798 478.38 63.6998 484.66C64.6398 494.23 65.1198 503.07 63.1798 511.57C60.7298 522.31 64.3598 534.27 61.5998 545.53C59.9498 552.23 46.2298 557.94 39.3698 556.7L-12.5602 547.27L-34.7602 543.17C-40.0502 542.19 -46.6802 544.31 -52.2102 542.05C-57.7502 539.78 -62.1802 537.92 -67.7202 542.47C-75.1602 548.57 -99.8102 548.58 -111.98 552.09C-127.94 556.69 -142.73 563.93 -158.93 564.58L-158.99 564.57Z" fill="url(#paint1_linear_596_5)"/>
<path d="M1147.14 447.41C1147.98 446.23 1146.6 445.17 1146.92 443.96C1153.9 441.95 1180.59 444.23 1181.8 438.18C1181.95 437.41 1181.29 435.98 1180.32 435.58C1179.63 435.3 1178.85 437.04 1177.69 435.75C1182.18 435.99 1189.17 435.11 1194.41 434.5L1238.59 429.36C1251.97 427.8 1275.64 430.37 1276.1 419.74C1280.17 420.16 1284.58 418.53 1289.65 419.72C1295.73 421.14 1302.59 418.89 1308.81 418.76C1321.44 418.5 1333.4 420.94 1345.73 416.79C1355.32 413.56 1366.5 417.85 1377.63 416.54C1372.76 421.55 1366.13 418.78 1360.56 421.81C1338.77 433.66 1356.71 417.39 1348.07 431.26C1346.87 433.19 1342.87 431.12 1341.51 432.15C1331.25 439.88 1307.88 438.38 1312.28 437.46C1298.07 440.42 1285.06 440.54 1271.22 441.49L1194.75 446.72C1189.86 447.05 1185.91 445.1 1180.63 446.46C1169.77 449.26 1158.01 447.24 1147.15 447.39L1147.14 447.41Z" fill="#D279A5"/>
<path d="M1276.1 419.75C1275.64 430.38 1251.97 427.81 1238.59 429.37L1194.41 434.51C1189.17 435.12 1182.18 436 1177.69 435.76C1166.69 435.18 1155.94 436.99 1144.41 435C1157.85 429.93 1169.93 429.08 1182.48 425.11C1205.42 417.86 1252.78 417.32 1276.1 419.75Z" fill="#AD5E97"/>
<path d="M1453.2 293.65C1457.52 303.03 1408.69 298.86 1403.02 299.34C1423.85 286.65 1426.86 292.15 1439.68 290.18C1443.55 289.58 1448.25 295.67 1453.19 293.66L1453.2 293.65Z" fill="#8D4C90"/>
<path d="M1146.92 443.95C1146.59 445.17 1147.97 446.23 1147.14 447.4L1097.16 448.08C1084.65 448.25 1073.27 448.72 1060.74 447.01C1064.5 441.53 1148.47 443.51 1146.93 443.95H1146.92Z" fill="#B06099"/>
<path d="M811.79 438.49C808.64 438.45 803.96 433.27 803.2 430.2C807.15 431.49 809.79 433.63 811.14 435.17C812.27 436.61 813.23 437.69 811.79 438.49Z" fill="#3D2569"/>
<path d="M123.16 461.21C120.69 460.19 118.07 459.51 114.62 459.08C109.9 458.49 108.12 454.58 108.97 451.17L128.72 454.21C131.02 454.56 130.6 449.74 128.9 449.39C119.52 447.5 111.17 447.41 102.8 446.35C101.15 443.05 102.15 440.62 102.01 436.87C101.72 429.26 99.1202 421.53 99.9102 413.17C100.53 406.69 96.8502 402.69 91.7802 399.48C97.1002 388.39 91.8102 374.53 94.9802 359.47C96.0102 354.57 94.8202 349.49 94.8402 344.26C88.4802 344.13 84.1402 345.21 80.1602 343.13C80.2702 340.37 81.5502 338.66 81.7402 336.25L90.4202 341.1C91.7902 316.33 87.2502 318.15 89.2302 292.74C90.2402 279.78 88.8002 267.85 87.0402 256.56C84.8902 242.77 89.8302 228.07 85.4902 214.12C85.3102 213.55 88.5802 212.13 87.1802 211.02C86.3502 210.36 88.6102 210.24 88.8102 211.04C94.2402 233.42 89.9702 285.96 94.9002 320.76C95.6702 326.22 91.5302 333.11 95.3102 337.08C100.59 342.62 98.3002 349.51 99.0502 356.44C101.91 382.7 101.08 408.8 105.62 433.32C106.66 438.95 113.65 440.95 116.84 439.95C123.54 437.87 131.92 442.54 135.91 448.36C138.8 452.57 134.22 460.38 130.72 461.83C128.14 460.87 124.97 461.57 123.15 461.22L123.16 461.21Z" fill="#8CDAF6"/>
<path d="M81.73 336.25L82.79 323.01L83.98 258.88C84.01 257.35 86.35 255.68 87.03 256.56C88.79 267.85 90.23 279.78 89.22 292.74C87.24 318.16 91.78 316.33 90.41 341.1L81.73 336.25Z" fill="#127ABE"/>
<path d="M111.13 478.54C110.48 478.47 109.29 478.72 109.42 479.43C109.65 480.67 109.81 482.34 107.05 481.8C104.64 482.93 108.09 486.04 106.13 488.02C108.1 499.53 109.86 524.28 108.2 536.54C107.99 538.06 112.63 540.69 110.68 543.03L107.44 546.93C110.56 548.62 111.12 545.6 112.99 545.66C111.92 567.54 118.03 578.06 105.99 578.53C106.57 580.65 107.55 582.17 108.81 583.71C115.01 567.95 116.18 595.63 115.82 597.14C114.51 602.66 119.42 608.81 117.21 614.9C113.94 616.42 114.02 618.33 118.41 618.25L126.04 670.16C126.84 675.64 125.71 682.96 128.74 688.15C130.15 685.7 134.62 689.04 136.32 688.12C140.24 685.99 142.58 686.5 145.2 686.31C149.92 685.97 155 682.56 159.3 686.58C157.41 689.63 153.04 690.62 149.03 691.82L122.06 699.92C123.14 698.02 123.19 695.98 121.95 695.27C119.3 693.75 116.65 693.07 114.57 693.61C108.75 695.15 104.09 690.05 97.1201 692.59C103.05 694.51 108.81 695.92 114.74 695.33C115.11 697.56 117.85 698.35 118 700.65C114.31 701.32 111.59 703.56 107.83 704L81.7501 699.42C80.2301 699.44 78.6301 701.64 79.8701 702.44C77.6101 705.03 74.9401 703.27 72.0001 701.91C65.1401 698.73 57.1101 697.91 49.3301 696.7C50.9501 692.95 51.1201 696.52 50.7501 692.18C60.2901 684.16 52.6801 680.1 57.6101 679.72C62.3101 681.41 66.6401 662.11 63.3001 664.36C66.7701 654.19 72.6101 644 69.1101 633C66.5801 638.44 67.2701 643.96 63.9101 648.87C62.6801 650.68 60.2601 648.73 59.4101 647.68C58.0001 645.93 62.4701 644.6 62.5901 643.21C63.3801 634.39 60.8601 624.65 67.7001 617.53C69.0401 616.14 73.1001 615.42 72.8701 612.96L72.3501 607.61C74.2201 606.49 74.6401 603.13 75.7901 602.61C72.3201 604.18 83.8301 604.3 85.2601 606.83C85.8601 607.89 84.1401 609.04 86.3001 610.69L88.3401 606.55C89.1501 604.89 90.5201 606.39 91.2801 607.66C94.2501 612.63 84.0901 607.08 90.9901 613.32C91.5601 613.84 91.9101 614.58 93.7401 614.11L95.1801 588.27C95.2601 586.89 101.02 586.34 98.5301 584.33C92.0001 579.05 97.2301 576.3 93.6301 573.12C90.4401 570.31 95.3501 565.99 97.0101 562.96C98.5101 560.23 93.7701 558.06 93.5901 556.11C93.3901 553.85 94.5001 551.01 93.0501 549.38C92.1801 548.41 90.7501 547.45 88.1801 548.05C83.2401 549.22 87.4501 537.04 79.7401 538.87C78.1701 539.24 78.1101 542.74 76.2901 543.42C74.9101 543.94 72.3701 540.69 69.1301 542.75C67.4301 538.08 70.2801 533.92 66.8301 529.94C65.4901 534.87 64.3701 548.66 65.7801 547.87C65.0101 548.3 63.4201 549.25 62.9001 548.11C62.5701 547.39 63.7401 545.12 61.5401 545.51C64.3101 534.25 60.6701 522.29 63.1201 511.55C65.0601 503.05 64.5801 494.21 63.6401 484.64C63.0201 478.36 54.7401 473.03 50.9501 467.86C42.8401 460.88 95.3501 462.22 95.4601 462.23L113.31 464.38C115.74 464.67 121.45 465.87 119.64 468.93C117.1 473.25 112.26 474.8 111.1 478.54H111.13Z" fill="#262972"/>
<path d="M107.84 703.99C100.09 704.9 92.9499 708.19 85.0399 707.02C84.1599 704.5 80.9599 704.69 79.8699 702.42C78.6299 701.62 80.2299 699.43 81.7499 699.4L107.83 703.98L107.84 703.99Z" fill="#C76E94"/>
<path d="M167.92 684.89C165.32 685.95 162 686.08 159.29 686.57C154.98 682.54 149.91 685.96 145.19 686.3C144.37 685.21 145.79 684.34 145.54 683.23C153.11 682.03 161.31 680.77 167.92 684.89Z" fill="#684287"/>
<path d="M115.02 551.03C114.52 555.3 114.19 559.5 115.21 564.21C117.64 575.4 117.31 587.04 118.75 598.41L124.15 640.88C124.96 647.24 125.03 653.24 127.18 659.08C128.18 661.8 124.93 665.36 128.48 667.45C128.48 669.48 128.44 672.56 129.04 674.77C129.74 677.32 128.89 679.68 130.5 683.8C135.81 681.78 140.93 683.94 145.53 683.21C145.78 684.31 144.36 685.19 145.18 686.28C142.56 686.47 140.23 685.97 136.3 688.09C134.6 689.01 130.13 685.67 128.72 688.12C125.7 682.93 126.83 675.6 126.02 670.13L118.39 618.22C114.01 618.3 113.93 616.39 117.19 614.87C119.4 608.78 114.5 602.64 115.8 597.11C116.16 595.6 114.99 567.92 108.79 583.68C107.52 582.14 106.55 580.61 105.97 578.5C118.01 578.03 111.9 567.51 112.97 545.63C115.08 545.81 115.2 549.31 115 551.02L115.02 551.03Z" fill="#BA8BCA"/>
<path d="M112.85 478.54C105.27 486.61 114.19 521.13 112.99 545.64C111.12 545.58 110.56 548.6 107.44 546.91L110.68 543.01C112.63 540.67 107.99 538.04 108.2 536.52C109.87 524.26 108.1 499.52 106.13 488C108.09 486.02 104.64 482.91 107.05 481.78C109.8 482.32 109.64 480.65 109.42 479.41C109.29 478.71 110.48 478.46 111.13 478.52H112.85V478.54Z" fill="#D6C6E6"/>
<path d="M57.6199 679.72C57.2999 678.79 57.9099 677.14 57.7799 675.54C57.6899 674.4 61.6299 674.85 61.3299 673.74C59.9199 668.56 62.3999 667.07 63.3199 664.37C66.6499 662.12 62.3299 681.41 57.6299 679.73L57.6199 679.72Z" fill="#464C9F"/>
<path d="M99.1901 526.63C100.47 522.11 98.3501 518.25 98.2801 515.45L97.5601 485.22C103.54 492.61 102.66 504.23 101.46 512.78C100.89 516.83 105.19 523.11 99.1901 526.63Z" fill="#D5A7DC"/>
<path d="M113.14 665.99C106.01 664.29 109.23 656.17 108.72 650.66L107.17 634C107.08 633.02 105.96 630.85 105.05 630.08C103.8 629.02 105.5 626.52 107.35 626.99C108.31 627.24 107.4 630.19 107.66 630.87C107.97 631.67 109.23 631.39 111.27 632.21C108.34 634.7 108.53 638.97 111.4 641.64L113.13 665.99H113.14Z" fill="#BE84C4"/>
<path d="M104.39 559.82L104.07 580.33C98.6899 573.29 102.32 559.37 100.63 547.59C97.6099 545.85 100.43 545.37 103.56 545.44L102.67 557.32C106.29 555.25 107.45 557.89 104.4 559.82H104.39Z" fill="#AE8ED1"/>
<path d="M112.12 616.6C113.65 618.02 110.54 618.03 109.28 619.01C107.63 620.3 106.53 619.17 104.56 617.88C103.07 640.97 101.69 600.24 103.49 601.56C107.91 604.46 107.91 609.35 106.27 612.33C108.61 612.38 109.38 614.05 112.12 616.6Z" fill="#7762B8"/>
<path d="M112.05 674.93C119.45 676.92 112.67 688.18 115.11 688.04C113.16 688.15 111.88 687.05 110.25 686.55C107.87 685.82 112.26 684.71 111.95 683.83C110.95 681.07 109.43 675.94 112.06 674.93H112.05Z" fill="#B570B5"/>
<path d="M109.46 589.5C107.93 591.45 105.65 591.23 102.2 592.39C102.65 588.26 99.76 584.91 101.69 580.77C106.02 581.66 104.56 584.1 104.3 586.05C104.1 587.53 106.73 587.81 109.45 589.51L109.46 589.5Z" fill="#9579C5"/>
<path d="M122.05 699.91L118.01 700.64C117.85 698.35 115.12 697.56 114.75 695.32C114.65 694.75 114.49 694.19 114.57 693.6C116.65 693.05 119.29 693.74 121.95 695.26C123.19 695.97 123.13 698.01 122.06 699.91H122.05Z" fill="#D5D9EE"/>
<path d="M101.78 543.72C98.4598 539.47 97.9899 533.65 100.11 527.93C102.63 533.23 103.21 536.76 101.78 543.72Z" fill="#D5ABE0"/>
<path d="M114.57 693.61C114.49 694.2 114.65 694.76 114.75 695.33C108.82 695.92 103.06 694.51 97.1299 692.59C104.1 690.05 108.75 695.15 114.58 693.61H114.57Z" fill="#AA74B7"/>
<path d="M103.45 671.41C101.87 667.11 102 662.56 103.32 657.3C104.9 661.6 104.77 666.15 103.45 671.41Z" fill="#5A4FAB"/>
<path d="M104.06 479.18C100.65 476.73 104.01 474.83 105.13 471.61C106.25 473.4 107.45 476.49 104.06 479.18Z" fill="#B89FD7"/>
<path d="M88.5899 688.18C85.3699 686.86 84.8599 685.9 86.2399 684.93C87.8299 683.82 86.2199 681.64 88.5299 681.49C88.9199 684.25 88.9399 685.91 88.5899 688.18Z" fill="#5C4496"/>
<path d="M119.13 688.17C117.91 685.81 116.28 685 116.2 683.07C116.8 680.42 118.49 682.73 119.08 683.46C119.83 684.38 120.44 686.86 119.13 688.17Z" fill="#CC7CBA"/>
<path d="M114.5 670.52C113.48 671.68 110.36 672.25 108.77 669.53C110.23 666.63 110.71 669.06 114.5 670.52Z" fill="#B476BB"/>
<path d="M102.8 446.36C104.37 449.51 104.78 450.53 108.97 451.17C108.12 454.58 109.9 458.48 114.62 459.08C118.07 459.51 120.69 460.19 123.16 461.21C124.72 472.11 118.19 472.86 112.85 478.54H111.13C112.29 474.8 117.12 473.25 119.67 468.93C121.47 465.87 115.77 464.67 113.34 464.38L95.4901 462.23C95.3801 462.22 42.8701 460.88 50.9801 467.86C48.4601 464.42 34.58 460.07 34.44 451.86C34.28 442.45 66.3501 435.31 73.3301 429.12C74.0901 429.29 76.5801 430.17 76.3901 427.72C76.2801 426.3 73.8901 424.6 73.2101 425.06C73.2801 418.8 73.3001 412.53 73.2901 406.27C74.9801 406.1 76.4601 404.44 76.7301 402.83C77.0001 401.22 77.7901 399.3 76.8601 397.96C81.1101 380.23 79.46 361 80.16 343.13C84.14 345.21 88.4801 344.13 94.8401 344.26C94.8201 349.49 96.0101 354.57 94.9801 359.47C91.8101 374.54 97.1001 388.39 91.7801 399.48C96.8501 402.69 100.53 406.69 99.91 413.17C99.12 421.54 101.72 429.27 102.01 436.87C102.16 440.62 101.16 443.05 102.8 446.35V446.36Z" fill="#2352B2"/>
<path d="M76.72 402.84C75.19 403.15 74.85 400.69 73.27 401.35C73.27 399.61 75.12 398.01 76.85 397.96C77.78 399.3 76.99 401.21 76.72 402.83V402.84Z" fill="#499AD2"/>
<path d="M73.3199 429.13C72.8799 427.8 73.1799 426.43 73.1999 425.07C73.8799 424.6 76.2699 426.31 76.3799 427.73C76.5699 430.18 74.0799 429.3 73.3199 429.13Z" fill="#66C2E8"/>
<path d="M76.7203 402.84C76.4503 404.45 74.9703 406.11 73.2803 406.28V401.35C74.8503 400.69 75.1903 403.14 76.7203 402.84Z" fill="#DCECF5"/>
<path d="M36.9102 451.19C42.1102 448.97 47.2102 446.41 52.7402 446.37L71.6802 446.21C73.0502 446.2 74.7502 444.79 75.3802 445.18C76.1302 445.64 76.2502 447.17 75.9502 447.99C75.3302 449.68 72.7602 448.29 71.4802 448.08C65.8302 453.09 56.7002 453.95 48.7702 451.41C45.3402 450.31 41.0002 455.92 36.9102 451.2V451.19Z" fill="#54B9EC"/>
<path d="M108.97 451.17C104.77 450.52 104.37 449.5 102.8 446.36C111.17 447.42 119.52 447.51 128.9 449.4C130.6 449.74 131.02 454.57 128.72 454.22L108.97 451.18V451.17Z" fill="#EAFDFE"/>
<path d="M1602.81 762.43V834.69L1501.22 850.42L1327.13 880.46L1258.7 893.18L1211.7 902.8C1206.75 903.81 1201.61 904.02 1196.91 903.72L1091.86 896.97C1062.64 895.09 1033.52 892.6 1005.5 893C1003.12 894.34 998.74 893.01 996.5 893L885.5 894L923.5 886.5C916.192 884.391 963.129 888.041 962.977 881.317C962.54 880.718 962.192 880.086 961.96 879.47C962.644 880.16 962.965 880.773 962.977 881.317C964.482 883.377 967.05 885.045 969.63 884.27C976.37 882.26 982.27 885.54 988.69 885.73C1001.28 886.09 1013.78 885.26 1026.3 884.32L1069.43 881.09C1087 879 1097.5 879 1097.5 879C1110.5 878 1123.5 876.5 1123.5 876.5L1139.5 875C1139.5 875 1159 875 1170.5 873L1196.91 869C1207 867.5 1219.5 864.5 1242 859C1262 854.112 1278.33 851.3 1277.84 850.44L1303.78 844.4C1324.37 839.6 1480.76 792.73 1480.07 795.06L1481.09 791.59C1485.49 793.07 1491.64 792.78 1493.59 788.21C1496.05 790.32 1496.56 790.21 1497.12 789.91C1498.39 789.22 1497.79 788.19 1498.15 786.5C1502.21 788.78 1507.9 787.93 1509.88 783.97C1506.22 782.46 1500 785.17 1499.56 781.23L1516.82 780.78C1522.24 780.64 1534.15 781.58 1537.78 777.28C1538.59 776.33 1540.94 777.98 1542.59 777.6C1543.56 777.38 1544.21 777.16 1544.83 774.56C1545.68 774.92 1547.32 775.02 1549.18 775.04C1550.34 775.05 1551.09 774.09 1552.1 772.8L1552.18 772.7C1554.3 774.3 1555.15 774.24 1555.69 773.81C1556.5 773.15 1556.04 770.82 1557.99 770.85C1559.67 770.88 1560.09 772.58 1560.75 772.81C1562.24 773.32 1563.04 770.62 1563.89 769.59C1570.99 771.11 1580.89 768.87 1586.49 763.73C1588.43 765.53 1589.41 765.26 1589.87 765.13C1590.51 764.94 1590.56 763.49 1591.42 762.15C1595.06 764.67 1599.04 763.54 1602.81 762.42V762.43Z" fill="#171552"/>
<path d="M1602.81 709.09V762.43C1599.04 763.54 1595.06 764.67 1591.42 762.16C1590.57 763.5 1590.52 764.95 1589.87 765.14C1589.41 765.28 1588.43 765.54 1586.49 763.74C1580.89 768.88 1570.99 771.12 1563.89 769.6C1563.04 770.64 1562.24 773.34 1560.75 772.82C1560.09 772.59 1559.68 770.89 1557.99 770.86C1556.05 770.82 1556.5 773.16 1555.69 773.82C1555.16 774.25 1554.31 774.32 1552.18 772.71C1551.13 774.05 1550.37 775.06 1549.18 775.05C1547.33 775.03 1545.68 774.93 1544.83 774.57C1544.2 777.16 1543.55 777.38 1542.59 777.61C1540.94 777.99 1538.59 776.34 1537.78 777.29C1534.14 781.59 1522.23 780.65 1516.82 780.79L1499.56 781.24C1499.34 779.27 1499.14 779.33 1496.93 779.1C1496.09 779.01 1494.35 779.24 1493.59 778.81C1492.75 778.34 1492.45 776.17 1491.3 776.15C1490.6 776.14 1489.78 775.99 1488.61 778.09C1462.5 778.36 1481.02 771.04 1466.77 776.05C1463.37 777.25 1457.77 773.82 1456.54 777.91C1454.92 777.79 1452.91 778.17 1451.38 777.91C1453.74 771.14 1441.86 777.68 1442.04 770.59C1437.49 773.9 1430.91 773.33 1426.54 770.79C1423.9 770.44 1419.56 771.56 1416.07 769.37C1413.14 767.53 1406.57 770.33 1402.23 767.86C1398.23 765.58 1390.58 768.82 1384.15 766.29C1389.2 768.28 1351.57 761.97 1355.04 762.44L1270.21 750.99C1265.57 750.36 1255.37 750.31 1252.39 746.27C1248.96 740.37 1259.79 735.98 1265.38 736.63C1275.16 737.77 1283.08 735.72 1291.39 734.92C1304.15 733.69 1317.33 734.83 1330.38 734.08L1359.8 732.39C1368.77 731.87 1377.58 731.39 1386.81 730.74L1441.08 726.87L1474.45 725.68C1484.58 725.32 1494.91 723.97 1504.81 723.2C1517.09 722.24 1529.51 721.58 1542.69 719.34L1602.8 709.13L1602.81 709.09Z" fill="#271F4B"/>
<path d="M62.95 714.25C32.67 719.42 2.26999 725.84 -29.96 727.87L-114.27 733.17L-159 722.85V669.51C-145.37 670.34 -132.09 674.71 -117.65 677.94L-31.6 697.19C-2.67999 703.66 24.7 710.31 54.91 713.25C57.59 713.51 62.37 710.34 62.95 714.24V714.25Z" fill="#A84A60"/>
<path d="M1602.81 709.09L1542.7 719.3C1529.52 721.54 1517.1 722.21 1504.82 723.16C1510.23 721.67 1490.76 719.64 1489.14 720.59C1481.91 724.84 1473.44 721.84 1465.62 723.45C1448.15 727.05 1430.47 723.99 1413.55 721.05L1384.3 715.97C1389.1 712.2 1412.96 715.63 1426.63 713.4C1446.69 710.14 1466.7 709.7 1485.81 705.65L1497.84 703.1C1504.38 701.71 1511.57 706.42 1516.55 702.09C1522.18 705.73 1530.11 705.74 1535.71 703.93L1540.77 702.3C1537.44 703.38 1574.3 694.85 1578.5 693.29C1586.16 690.44 1595.04 690.66 1602.81 689.87V709.09Z" fill="#33275C"/>
<path d="M811.79 438.49C812.66 438.49 813.22 440.84 814.07 440.65C815.33 440.36 814.04 437.63 813.42 437.5C812.85 437.38 813.57 437.23 814.12 435.56C821 436.36 825.87 443.19 832.43 444.84C840.12 446.78 845.21 452.09 851 454.94C848.48 457.58 850.86 460.51 850.35 463.64C847.63 463.39 847.21 466.12 846.3 467.74C844.83 470.36 849.14 470.94 850.35 472.17L866.12 488.14C857.04 486.46 852.01 478.79 845.96 472.7C843.29 473.69 845.06 477.76 843.3 478.54C839.67 480.16 831.33 468.84 828.63 474.95L818.42 472.2C818.87 470.81 817.67 469.44 815.8 469.9C815.17 470.05 814.64 470.64 814.84 471.66C811.88 471.35 811.13 467.71 809.17 465.26C806.73 462.21 802.01 461.72 801.08 458.26C799.71 453.2 793.08 452.01 792.34 446.11C791.36 438.34 785.78 430.46 791.29 423.82C792.62 422.22 797.53 425.64 798.88 426.55C800 427.31 798.34 429.5 798.89 432.21C810.34 448.01 822.47 462.03 839.45 473.32C839.11 464.8 831.76 460.23 826.81 454.43C824.03 451.17 824.21 446.12 820.26 444.02C819.52 449.91 824.02 452.53 824.86 458.13C821.86 455.54 807.76 440.72 811.8 438.49H811.79Z" fill="#3D2569"/>
<path d="M894.48 483.7C895.08 485.59 897.54 487.88 897.67 490.12C897.74 491.35 895.18 492.9 895.4 494.19C893.33 493.64 892.95 490.81 890.53 490.66C890.16 486.56 886.94 483.38 884.06 479.92C883.37 485.22 887.04 487.94 890.53 490.66C888.13 493.43 885.29 489.04 882.36 489.07C884.24 492.74 881.17 493.48 880.78 490.14C870.9 485.96 865.83 478.32 859.59 472.01C856.97 469.36 849.46 469.02 850.33 463.64C850.84 460.5 848.46 457.58 850.98 454.94C861.36 460.06 874.85 460.57 884.09 470.1C886.09 472.17 885.05 476.32 889.06 477.27C891.82 477.92 891.1 483.6 894.48 483.71V483.7Z" fill="#482A6F"/>
<path d="M1012.32 494C1011.16 494.76 1009.29 495.65 1009.36 497.08L1009.63 502.91C1009.7 504.43 1011.11 505.67 1010.97 506.93C1010.8 508.5 1008.93 509.37 1007.47 509.38C995.46 505.19 984.39 478.51 977.25 474.92C978.3 473.09 976.13 473.26 976.46 471.68L1012.32 493.99V494Z" fill="#55337B"/>
<path d="M342.19 635.23C344.47 645.93 338.24 656.01 348.3 666.42C365.44 684.16 389.12 687.46 412.37 683.11C425.07 702.62 430.24 701.17 450.01 707.43C452.86 710.72 449.75 714.95 450.14 719.51C453.03 752.93 531.93 746.44 551.45 762.47C554.09 764.89 553.99 772.13 556.49 774.74C566.38 785.07 626.96 779.88 641.25 777.57C655.23 775.3 669.47 774.15 683.58 773.96C689.74 773.88 699.81 771.82 699.63 775.93C699.06 789.14 696.51 801.03 693.34 812.93C692.56 815.86 690.64 817.72 687.77 817.68L663.39 817.3L628.08 814.75C613.81 813.72 600.4 808.87 587.73 803.9C575.06 798.93 535.94 780.25 525.21 794.99C525.64 798.19 531.32 799.45 532.78 801.74C522.9 806.71 525.46 781.81 503.4 791.41C501.49 792.24 469.76 795.17 469.77 795.17C466 796.8 461.04 797.54 456.95 796.8C442.62 794.18 428.75 790.21 413.88 785.32L328 757.07C309.52 750.99 290.48 750.47 276.09 762.29C276.14 760.54 277.27 757.71 278.01 755.58C279.82 755.18 282.22 756.71 284.87 754.5L258.02 753L239.18 751.49C236.37 751.26 234.06 749.89 231.55 750.42C230.44 750.65 229.2 750.06 228.11 750.4C223.76 751.72 219.81 749.29 215.8 748.98C168.15 745.28 120.52 741.72 71.6502 742.9C53.9402 743.33 37.3402 742.86 20.2402 744.29C12.2402 744.96 5.08022 748.61 -4.43978 745.71C-3.58978 745.97 -31.9498 743.28 -26.8298 753.92L-114.28 733.22L-29.9698 727.92C2.25022 725.89 32.6502 719.47 62.9402 714.3C70.8702 712.95 78.1302 711.64 85.0302 707.07C92.9402 708.24 100.07 704.95 107.83 704.04C111.59 703.6 114.31 701.36 118 700.69L122.04 699.96L149.01 691.86C153.02 690.66 157.38 689.67 159.28 686.62C161.99 686.13 165.31 686.01 167.91 684.94C173.71 682.57 180.6 680.74 185.1 676.45H188.54C191.45 676.45 194.68 674.63 195.55 671.8C201.17 672.66 214.29 666.17 221.23 663.97C224.39 662.97 227.73 662.51 231.78 660.95C265.87 647.79 300.11 637.6 336.6 631.9C338.65 633.02 338.2 635.15 339.14 635.19C340.31 635.23 341.33 635.09 342.18 635.28L342.19 635.23Z" fill="url(#paint2_linear_596_5)"/>
<path d="M636.2 688.96C640.19 688.48 645.32 689.27 647.58 691.7L642.82 699.72L649.62 702.85C651.71 703.81 649.25 707.16 650.93 709.26C652.61 711.36 654.18 712.82 652.23 714.31C650.44 715.67 648.61 715.49 646.04 716.74C649.63 719.57 653.84 716.32 658.1 716.42L673.28 716.75C672.4 718.4 672.81 719.93 671.74 720.57C669.84 721.71 666.81 720.36 665 722.1C670.3 725.65 676.48 724.13 682.31 725.37L681.94 732.27C670.44 731.87 658.61 731.93 646.23 730.58C638.63 729.75 631.73 726.72 624.26 728.58C621.72 731.41 647.64 734.94 646.17 734.79C645.86 737.67 641.6 737.99 642.79 741.41C638.19 739.64 633.86 738.11 629.05 736.87L592.58 727.52C592.75 723.93 594.92 726.45 598.03 725.79C595.99 721.93 592.45 726.56 589.63 726.08C562.23 721.38 536.89 714.26 511.42 706.52C539.3 696.3 542.23 703.55 563.53 707.23C562.68 710.71 558.52 708.81 556.22 709.85C562.39 707.08 549.86 713.98 554.22 714.31L557.27 714.54C564.05 716.91 575.09 718.3 582.52 718.33C585.36 718.34 589.66 720.42 593.31 716.65C591.8 715.39 589.33 716.42 589.49 715.12C589.71 713.31 592.11 714.98 592.64 715.64C593.17 716.3 593.14 713.71 594.56 714.25C602.07 712.52 609.25 717.85 616.58 717.12L634.31 715.34C625.68 711.34 601.66 713.58 594.51 712.17C591.82 711.64 587.58 707.36 584.24 709.04C581.92 708.89 579.69 708.03 577.48 707.41C578.29 706.06 577.79 704.58 575.67 703.93L560.31 699.26C559.08 698.89 557.33 699.42 556.75 698.04C556.47 697.37 558.23 696.98 557.13 695.73C562.63 698.24 583.98 696.55 585.96 693.28C587.51 690.72 593.67 691.09 592.88 686.84C599.71 690.9 608.62 690.37 616.99 692.3C621.04 693.23 624.32 695.92 628.98 693.56C631.25 692.41 636.86 693.33 636.17 688.94L636.2 688.96Z" fill="#3F3786"/>
<path d="M988.59 676.27C986.83 679.64 989.97 682.02 992.51 684.91C981.03 693.09 968.34 694.56 957.13 701.13C948.53 706.17 938.99 708.46 929.48 711.68C921.6 714.35 914.61 719.86 905.99 721.34C906.01 719.04 906.91 716.72 905.01 714.2C903.47 712.15 887.76 714.78 886.65 718.93C881.72 720.02 867.73 715.73 866.25 714.79C857.66 709.31 833.05 713.3 826.23 704.54C839.35 701.37 847.73 703.39 856.05 699.12C858.37 697.93 862.28 699.14 864.75 699.28C870.2 699.59 878.72 702.8 882.92 698.85C890.85 691.37 905.4 693.32 911.29 693.7C916.14 694.01 920.57 697.48 926.95 694.96C923.17 690.49 917.8 691.16 913.31 689.44C909.23 687.87 905.83 683.4 901.23 683.19C900.79 680.92 898.42 680 895.68 679.34C912.11 676.18 915.22 673.22 931.81 681.57C937.81 684.59 943.06 690.67 950.56 687.81C953.57 686.66 956.89 688.18 959.29 682.9C960.59 680.04 968.89 683.06 969.61 678.49C969.64 675.47 972.79 673.52 974.7 673.55C976.22 673.57 976.17 675.24 977.66 677.32C981.26 673.44 985.76 675.73 988.58 676.27H988.59Z" fill="#312C6A"/>
<path d="M1109.59 657.13C1112.72 676.1 1125.73 669.65 1134.3 676.54C1128.11 685.62 1108.86 671.82 1103.44 675.54C1117.86 680.32 1132.2 683.5 1145.33 690.55C1145.98 694.14 1135.22 691.54 1137.39 691.83C1135.36 691.56 1134.84 695 1133.36 695.6C1123.23 699.73 1103.33 700.11 1108.6 705.01C1091.46 701.84 1075.48 694.78 1059.02 688.66C1050.89 683.19 1040.86 681.95 1033.04 675.27L1047.44 675.87C1044.79 674.61 1043.59 674.15 1041.81 672.57C1038.95 671.32 1043.65 671.23 1046.41 670.54C1065.63 665.74 1084.87 662.8 1103.88 655.7C1105.56 655.07 1106.69 654.4 1107.88 654.97C1108.7 655.37 1110.24 655.69 1109.59 657.12V657.13Z" fill="#372965"/>
<path d="M667.45 695.35C671.42 693.29 669.12 701.18 685.21 699.45L701.45 697.71C709.07 696.89 716.91 700.76 723.63 698.83C732.67 696.23 744.77 703.94 759.9 696.83C763.35 695.21 767.77 695.7 771.76 692.54C773.49 691.17 776.55 692.74 777.53 694.33C778 695.09 778.36 695.32 778.56 696.84C777.98 697.39 778.27 699 777.39 699.35C775.72 700.01 775 700.57 774.55 701.55C773.58 703.66 772.95 706.73 775.82 706.76C777.65 707.07 778.05 708.33 777.44 709.2C776.43 710.61 775.55 711.66 774.08 713.03C782.64 716.34 791.34 712.08 802.6 714.68C785.83 719.44 768.17 717.3 750.59 715.05C749.41 714.9 749.25 719.5 748.29 719.92C743.63 721.96 738.13 720.04 733.81 721.23C731.29 724.02 729.43 708.68 726.48 716.27L719.94 716.13C718.22 716.09 716.68 717.35 715.06 716.41C712.58 714.98 710.72 714.89 707.63 715.04L673.3 716.75L658.12 716.42C653.86 716.33 649.65 719.57 646.06 716.74C648.63 715.49 650.46 715.67 652.25 714.31C654.2 712.82 652.66 711.4 650.95 709.26C649.24 707.12 651.73 703.81 649.64 702.85L642.84 699.72L647.6 691.7C656.75 701.52 656.47 691.45 657.18 702.45C659.46 698.03 663.72 697.29 667.47 695.35H667.45Z" fill="#BBD0F7"/>
<path d="M413.74 664.4C401.86 659.88 442.08 677.5 438.33 677.49C432.48 677.47 427.55 679.67 422.28 680.3C418.79 680.72 415.81 682.46 412.37 683.1C389.12 687.45 365.43 684.14 348.3 666.41C338.24 656 344.47 645.93 342.19 635.22C366.91 640.84 389.6 655.21 413.74 664.4Z" fill="#FB9F9C"/>
<path d="M887 674.62C887.45 675.6 887.93 676.99 888.1 677.68C888.27 678.37 886.22 679.91 887.16 680.8C893.21 681.06 897.71 685.86 899.56 684.46L901.24 683.18C905.84 683.39 909.24 687.86 913.32 689.43C913.4 691.2 910.78 691.78 911.3 693.69C905.41 693.31 890.86 691.36 882.93 698.84C878.74 702.79 870.21 699.58 864.76 699.27C864.42 695.3 858.83 697.57 856.13 696.6C855.29 694.44 852.98 689.56 849.34 690.41C845.7 691.26 841.48 693.87 838.91 695.16C833.71 694.87 827.92 693.61 823.13 691.29C823.05 690.04 822.84 688.85 823.92 686.63C825.27 687.45 830.59 688.65 831.26 685.88C831.88 683.31 829.51 680.61 832.15 677.05C833.42 675.33 836.66 675.34 838.64 673.09C843.1 668 848.58 675.22 852.28 675.08C858.71 674.84 864.54 670.16 871.21 671.51C873.55 669.47 872.94 665.18 874.97 664.41C875.85 664.08 877.87 666.68 878.83 665.53C879.5 664.72 880.87 663.4 880.21 662.43C876.89 657.53 878.94 651.13 878.66 645.42C881.6 641.86 878.59 623.76 879.9 626.73C879.33 625.45 877.41 625.52 876.61 623.25C880.23 623.55 882.8 622.94 885.61 623.77C878.28 626.45 883.56 644.81 883.53 645.05C882.29 653.78 883.31 666.58 887.01 674.61L887 674.62Z" fill="#463B8B"/>
<path d="M725.34 681.53C723.99 684.04 726.49 685.78 727.06 688.7L727.97 693.28C727.88 692.81 739.72 698.67 746.06 696.71C750.43 695.35 756.56 693.62 759.9 696.83C744.77 703.94 732.67 696.23 723.63 698.83C716.91 700.76 709.07 696.9 701.45 697.71L685.21 699.45C669.13 701.18 671.42 693.29 667.45 695.35C668.93 692.55 668.9 687.04 672.84 686.61C674.08 688.03 674.31 692.23 676.08 691.52C676.98 691.16 679.23 689.37 680.3 689.82C687.22 692.7 690.43 687.15 693.89 686.6C698.1 685.93 700.87 686.54 703.68 684.28C705.55 682.78 723.52 681.59 725.34 681.52V681.53Z" fill="#7D7CD8"/>
<path d="M138.52 662.47C141.61 663.56 144.06 663.68 147.26 662.85C150.38 664.79 152.56 666.75 155.87 666.28C158.12 665.96 161.28 670 162.91 666.75C166.86 668.93 170.34 671.29 174.8 672.65C178.15 673.67 181.31 676.41 185.12 676.41C180.62 680.7 173.73 682.53 167.93 684.9C161.32 680.78 153.12 682.03 145.55 683.24C140.95 683.97 135.83 681.81 130.52 683.83C128.91 679.7 129.76 677.35 129.06 674.8L150.98 672.5C151.24 669.02 138.11 674.48 132.76 670.16C131.79 669.38 131.93 667.16 130.76 667.18C130.1 667.19 129.22 666.53 128.51 667.47C124.96 665.38 128.22 661.82 127.21 659.1C130.04 658.63 132.88 657.94 135.3 660.37C132.71 660.71 130.97 659.81 129.99 662.03C133.64 664.49 136.2 661.66 138.53 662.48L138.52 662.47Z" fill="#2C286B"/>
<path d="M780.6 688.56C780.66 691.69 781.13 694.4 778.55 696.84C778.34 695.32 777.98 695.09 777.52 694.33C776.55 692.74 773.48 691.17 771.75 692.54C767.76 695.69 763.34 695.2 759.89 696.83C756.56 693.61 750.42 695.35 746.05 696.71C739.71 698.68 727.87 692.82 727.96 693.28L727.05 688.7C726.47 685.77 723.98 684.04 725.33 681.53C725.86 681.51 727.18 681.6 727.54 682.04C727.88 682.45 726.97 684.46 728.09 685.26C732.99 688.75 736.48 682.62 739.84 681.14C743.42 679.56 746.99 681.98 750.22 678.04C752.36 675.43 758.19 679.33 760.79 680.39L768.88 676.89C774.62 681.28 769.25 685.88 776.07 685.15C776.73 685.08 777.27 683.01 778.18 683.39C779.22 684.84 778.04 685.99 778.49 687.07C778.9 688.06 779.31 689.31 780.59 688.56H780.6Z" fill="#7576D4"/>
<path d="M1339.33 662.5C1332.83 683.73 1311.08 669.8 1313.87 681.06C1311.36 680.94 1309.44 678.89 1306.88 679.84C1306.88 679.14 1306.86 678.46 1306.55 677.82C1305.7 673.7 1300.78 675.18 1296.93 673.65C1297.59 669.68 1298.6 669.41 1295.02 669.82L1281.69 663.68C1294.57 662.56 1306.36 662.74 1318.96 663.32C1326.2 663.65 1332.88 662.67 1339.35 662.5H1339.33Z" fill="#51377F"/>
<path d="M1041.81 672.57C1043.59 674.15 1044.79 674.61 1047.44 675.87L1033.04 675.27C1040.86 681.95 1050.89 683.18 1059.02 688.66C1052.29 688.17 1043.29 688.2 1036.72 684.83C1032.62 682.72 1028.03 680.64 1023.36 677.47C1021.8 676.41 1025.29 672.51 1026.96 672.87C1027.93 673.08 1028.58 674.16 1030.84 673.22C1029.5 670.54 1025.94 670.02 1026.41 667.36C1031.91 665.65 1037.38 668.65 1041.8 672.56L1041.81 672.57Z" fill="#E18AAB"/>
<path d="M636.2 688.96C636.89 693.34 631.28 692.43 629.01 693.58C624.35 695.94 621.08 693.25 617.02 692.32C608.65 690.39 599.73 690.92 592.91 686.86C589.31 684.72 585.54 686.56 581.51 682.69C588.29 682.01 592.55 684.97 599.09 685.87C598.46 682.97 597.42 683.5 596.25 683.68C594.42 683.97 594.97 680.68 594.81 679.44C596.87 678.55 599.09 680.5 601.59 681.75C604.37 681.7 601.98 683.12 600.92 685.72C612.37 691.52 624.17 690.4 636.2 688.96Z" fill="#9A61A1"/>
<path d="M1222 905C1221.76 907.21 1198.61 911.5 1196.92 912C1194.96 912.58 1192.8 911.09 1191.5 912C1190.43 916.35 1181.56 915.34 1179.5 916.5C1174.1 919.54 1164.95 919.48 1158 921L1032 948.5C1030.51 948.83 1016.53 952.02 1015 951.9C1012.34 951.69 1007.56 950.11 1005.93 951.9C1003.13 955 994.06 957.06 990.5 957C987.22 956.95 973.95 959.92 971 961C964.64 963.33 958.49 967.04 951 964.5C942.65 961.66 939.52 969.17 931.5 967.5C922.63 965.66 920.75 971.14 913 972.5C899.89 974.8 895.61 979.7 882.5 977.5C868.28 975.12 833.34 980.53 819.96 977.5C815.09 976.4 806 958.84 806 944.81C799.3 936.41 800.11 923.12 796.78 912.58C794.9 906.63 789.71 902.61 789.5 896.5C790.35 897.04 785 893.59 786 892.96C786.67 892.54 794.87 894.06 794.42 892.96H814C819 892.96 828.8 892.36 834.5 892.96C846 892.96 843.5 893.72 849.07 893.72L1005.93 891.48C1033.95 891.08 1062.65 895.09 1091.87 896.97L1212 903.71L1222 905Z" fill="url(#paint3_linear_596_5)"/>
<path d="M789.13 931.23C790.86 934.13 793.15 939.3 794.19 942.91C796.05 949.35 800.37 951.03 802.81 954.65C808.49 963.08 815.24 972.9 825.77 975.26C826.67 974.38 826.53 972.18 827.27 972.02C828.01 971.86 829.5 972.83 830.47 972.16C835.92 973.85 840 975.26 846.5 977.07C851 978.323 863.5 981.78 865.5 982.58C870.5 984.58 890 989.37 898 991.37C915 995.62 926.97 998.75 942 1002.5L1086.95 1037.92C1089.65 1038.59 1092.16 1036.47 1093.68 1038.34C1096.24 1044.75 1060.98 1034.56 1053.94 1033.08C1036.46 1029.39 1019.8 1025.93 1002.86 1021.99L952.24 1010.23L871.71 991.37C863.95 989.55 855.65 984.85 849.36 989.26C845.67 991.85 823.48 979.46 813.1 982.58L812.94 980.89C812.86 980.01 815.2 977.65 813.95 977.07C804.81 972.83 802.4 964.43 796.47 957.59C793.5 954.16 789.06 953.44 787.46 947.72L776.5 909C777.1 908.61 779 909 779 909C777.11 908.77 787.99 916.54 787.46 914.78C787.76 915.77 787.66 916.9 787.32 918.11C786.95 919.45 785.76 918.38 782.4 918.64C783.39 923.46 786.84 927.37 789.14 931.24L789.13 931.23Z" fill="#C0F3FC"/>
<path d="M532.78 801.72C533.33 801.37 533.81 801.63 534.37 801.78C536.3 805.8 541.42 806.09 545.78 809.46C542.65 811.54 541.44 820.08 544.45 821.52C552.15 825.17 561.21 824.25 568.48 825.2L585.43 827.4C625.12 832.56 611.24 827.47 644.48 827.71C646.63 827.73 647.66 826.73 648.7 826.01C650.35 824.88 649.92 823.14 649.74 821.37C655.21 819.42 661.27 817.98 667.54 820.27C674.57 822.85 685.92 817.66 687.89 824.51C686.16 828.76 685.9 833.44 686.12 838.08C686.49 845.93 679.79 852.98 681.28 859.37C682.17 863.17 682.74 867.14 678.94 867.47C674.48 865.22 669.98 868.25 664.97 868.13C661.17 868.04 656.22 872.2 653 873C632.32 878.15 631.27 883.32 610 882.5C608.42 882.44 586.55 856.51 578.74 858.33C575.44 859.1 570.44 858.44 567.92 859.79L553.35 867.63C538.48 867.83 523.37 866.72 508.27 868C505.77 868.21 505.13 867.35 504.13 866.48C501.26 864 502.4 863.02 502.83 860.57C498.94 872.18 489.65 858.39 482.75 865.82L411.69 852.71L222 817C230.62 810.23 259.5 815.5 272.5 812.5C284.5 809.731 288.5 810.5 302 808.76C310.5 807.665 316.33 808.96 322.71 808.76C367.45 807.4 412.32 803.18 456.93 798.7C462.19 798.17 467.25 798.39 473.21 797.6L489.72 795.42C494.45 794.79 500.96 795.84 503.39 791.39C525.45 781.79 522.89 806.68 532.77 801.72H532.78Z" fill="url(#paint4_linear_596_5)"/>
<path d="M215.82 748.94C215.23 749.82 215.72 750.62 216.09 751.28C216.83 752.63 230.67 752.81 228.13 750.36C229.22 750.03 230.47 750.61 231.57 750.38C231.65 751.07 231.22 752.69 231.85 753.62L248.16 754.17C250 758.35 267.45 751.79 264.26 758.99C222.47 766.92 181.29 777.62 139.82 788.98C135.54 790.15 131.12 789.05 126.45 792.99C129.96 794.5 143.4 794.58 140.39 798.56L-26.7899 753.89C-31.9099 743.24 -3.5499 745.94 -4.3999 745.68C5.1201 748.58 12.2801 744.93 20.2801 744.26C37.3801 742.82 53.9801 743.29 71.6901 742.87C120.55 741.69 168.19 745.25 215.84 748.95L215.82 748.94Z" fill="#5C2C53"/>
<path d="M276.09 762.26C272.23 768.94 268.07 775.07 276.61 782.87C284.33 789.92 292.94 795.87 301.98 800.23C302.02 802.66 324.98 807.27 327 809C284.7 813.75 298.5 813.207 282.5 813.5C273.75 813.66 240.98 818.14 231.35 817.23C200.11 814.28 170.51 804.36 140.37 798.56C133 797.142 127.51 796.02 124 794.5C128.67 790.56 135.52 790.15 139.8 788.98C181.27 777.62 222.45 766.91 264.24 758.99C268.81 758.12 273.57 757.17 278 755.55C277.26 757.69 276.12 760.52 276.08 762.26H276.09Z" fill="#23204E"/>
<path d="M596.5 860.569L622.5 870C632.5 873.5 643.67 887.95 643.5 893C623 893 502.85 876 482.77 865.819C489.67 858.389 494.5 859 502.85 860.569C506.845 861.32 518 864 522 864C527.5 864 541 862.709 543.5 862.499C559 861.197 568.5 855 580.5 856.999L596.5 860.569Z" fill="#AC629A"/>
<path d="M599.98 885.66C627.72 889.82 635.75 890.64 665.18 889.73C663.29 891.64 661.02 895.52 656.55 896.21C653.98 896.61 649.3 907.519 646.5 900C637.8 906.019 614.59 897.16 610.5 900C598.49 893.31 577.97 888.21 563.67 884.12C562.14 883.7 561.65 883.89 562.45 882.48C562.7 882.04 562.3 881.47 563.26 881.16C561.77 880.93 579 883.5 583 883.5L599.98 885.66Z" fill="#E99FC8"/>
<path d="M-114.26 733.18L-26.8102 753.88L140.37 798.55C170.5 804.34 218.5 814.591 227.5 817C234.15 818.781 237.5 819.5 245.5 821L411.7 852.7L482.76 865.81C502.26 869.41 521.57 874.61 541.25 877.7L563.26 881.16C562.31 881.47 562.71 882.04 562.45 882.48C561.65 883.89 562.13 883.7 563.67 884.12C577.97 888.21 592.98 886.27 604.99 892.96C605.56 894.28 630 896.2 647.7 896.47C647.7 896.47 653.98 896.6 656.55 896.2C657.64 897.23 659.2 898.01 660 899.47C645.03 911.54 658.88 915.4 646.67 921.24C649.28 922.6 650.06 923.93 649.04 925.29C647.01 928 646.18 929.77 642.42 929.55C645.28 933.12 644.48 935.49 643.28 938.67C642.08 941.85 637.86 940.52 635.72 942.77C635.66 941.99 617 980.422 610.5 983.5C601 988 586.48 994.18 584 995C577.38 997.18 548.01 1004.99 541.25 1005C499.45 1005.06 476.09 1036.88 435 1032.5H354.5C357.94 1032.87 302.42 1037.29 308 1042C302.26 1041.05 168.65 1033.41 161.5 1032.5C75.68 1021.61 85.36 1058.02 2 1032.5L-158.99 805.44V722.86L-114.26 733.18Z" fill="url(#paint5_linear_596_5)"/>
<path d="M582 972C602.189 976.5 622.241 979.353 631 980C567.513 1001.35 477.524 1019.23 457.755 1024.37C441.34 1028.65 424.013 1034.74 402.547 1038.1C383.744 1041.04 368.007 1042.87 346.499 1048.59C313.334 1057.4 293.804 1059.89 275.369 1063.92L275.323 1063.93C257.289 1067.88 237.774 1072.16 218.541 1078.33C194.159 1086.15 174.697 1089.39 154.97 1095.31C130.852 1102.55 101.089 1113.08 78.4999 1117.55C38.9389 1125.38 -20.9276 1132.6 -68.3688 1142.41C-125.016 1154.13 -153.685 1166.67 -162.981 1153.12C-171.333 1140.95 -171.117 1123.87 -174.141 1107.33C-176.948 1091.96 -180.14 1076.29 -183.344 1057.96C-186.548 1039.63 -202.415 976.552 -184.904 942.257C-180.908 934.432 -175.981 927.233 -168.477 925.302C-160.894 923.351 -152.294 920.101 -142.463 919.428C-123.241 918.114 -102.689 914.73 -80.8718 911.25C-62.4292 908.308 27.3856 895.649 61.4928 890.138C100.647 883.812 196.853 881.653 212.698 883.812C229.532 886.107 249.329 882.729 329.581 906.19C406.663 928.725 472.263 946.994 495.5 953.5C511.5 957.98 566 968.434 582 972Z" fill="#6A4081"/>
<path d="M642.72 974.132C640.31 976.412 638.71 980.562 636.07 982.642C627.21 988.222 616.96 990.752 606.61 995.212L539.55 1024.11C538.42 1021.51 536.29 1020.11 536.44 1016.89C540.85 1013.33 545.36 1010.01 552.05 1008.84C551.87 1005.71 552.54 1003.41 550.93 1001.82C538.36 1004.61 499.68 1015.9 491.58 1016.94L479.31 1018.52C479.8 1016.23 482.02 1017.52 482.78 1016.23C483.13 1015.63 482.62 1014.35 482.78 1013.63C487.12 1012.51 492.81 1013.37 495.69 1008.26C497.93 1014.79 515.46 1006.65 522.17 1005.16C530.21 1003.37 538.53 1002.81 545.57 999.282C550.63 996.752 557.13 996.072 560.83 993.592C566.42 989.832 569.37 990.552 575.8 990.962C582.23 991.372 588.79 985.922 594.98 985.402C601.43 984.862 606.69 979.562 611.51 975.662C615.56 975.492 619.72 973.162 623.76 973.912C622.99 973.372 623.21 974.242 623.76 973.912C641.15 962.782 650 944.501 659.5 926.501C661.5 939.501 642.8 963.932 642.75 974.142L642.72 974.132Z" fill="#BAE8FA"/>
<path d="M765.269 894.83C766.469 896.63 765.369 897.79 765.269 900.05C765.139 903.14 766.359 906.96 768.179 910.17C770.589 914.44 768.169 917.85 768.949 920.7L776.199 947.16C781.889 967.94 792.269 967.68 801.349 980.71L718.499 983C693.079 983 665.91 981.68 638.5 980C640.5 977 640.459 976.801 642.729 974.15C645 971.5 644.999 970.98 646.129 969.17C647.779 969.39 649.839 968.35 650.569 967.04L663.489 943.87C665.799 939.72 666.299 937.51 667.559 933.43C671.019 922.22 675.68 911.65 676.74 900.08C676.84 899.02 673.479 895.96 673.499 894.83C676.74 895.14 679.88 895.19 681.11 895.14C708.619 893.91 738.019 894.56 765.269 894.83Z" fill="#906DC2"/>
<path d="M47.58 692.3C27.71 696.09 6.26004 688.21 -12.67 679.99C-12.13 678.33 -15.34 676.99 -14.04 675.58C-13.16 674.62 -10.83 674.46 -9.25997 674.94L47.59 692.3H47.58Z" fill="#F18C97"/>
<path d="M63.32 664.36C62.4 667.06 59.92 668.55 61.33 673.73C61.63 674.84 57.69 674.39 57.78 675.53C57.91 677.13 57.3 678.78 57.62 679.71C52.69 680.09 60.3 684.15 50.76 692.17C49.43 692.71 48.32 692.9 47.58 692.29L-9.27 674.93C-10.84 674.45 -13.17 674.61 -14.05 675.57C-15.35 676.98 -12.14 678.33 -12.68 679.98C-12.45 680.59 -13.2 681.83 -13.57 681.53C-13.94 681.23 -16.14 679.57 -15.79 679.25C-15.07 678.57 -14.55 675.98 -14.79 674.82C-15.05 673.53 -15.81 672.79 -17.92 673.17C-18.2 672.07 -17.63 671.45 -17 671.2C-16.2 670.88 -14.98 671.04 -14.52 671.83C-6.67 674.25 2.83 671.36 11.36 673.43C24.53 676.63 35.68 677.76 49.16 671.85C44.71 668.53 40.3 671.85 35.41 672.5C28.43 673.42 -3.40001 671.52 -12.38 666.95C-12.02 664.43 -4.2 666.69 -2.02 662.86C-1.41 661.78 -1.97002 659.94 -3.09001 658.86C-4.11002 657.87 -6.18001 657.21 -7.59001 657.48C-10.86 658.09 -14.72 656.59 -17.91 657.48C-30.29 660.93 -25.25 654.98 -35.12 658.79L-64.79 649.21C-67.27 648.41 -67.76 654.23 -66.51 655.17C-67.92 654.61 -67.73 654.23 -68.43 653.75C-69.38 653.1 -68.51 649.39 -69.44 648.39C-74.28 649.6 -79.33 651.23 -83.54 650.06C-87.39 646.87 -97.15 642.81 -102.22 643.39C-100.26 643.5 -124.64 635.04 -121.15 640.27C-133.13 636.39 -146.34 636.13 -159 636.83V564.57C-142.8 563.91 -128.01 556.68 -112.05 552.08C-99.88 548.57 -75.23 548.56 -67.79 542.46C-62.24 537.91 -57.81 539.77 -52.28 542.04C-46.74 544.31 -40.11 542.19 -34.83 543.16L-12.63 547.26L39.3 556.69C46.15 557.93 59.88 552.22 61.53 545.52C63.73 545.13 62.56 547.4 62.89 548.12C63.42 549.26 65 548.31 65.77 547.88C64.36 548.67 65.48 534.88 66.82 529.95C70.27 533.94 67.42 538.09 69.12 542.76C72.36 540.7 74.9 543.95 76.28 543.43C78.1 542.75 78.16 539.25 79.73 538.88C87.44 537.05 83.23 549.23 88.17 548.06C90.74 547.45 92.17 548.42 93.04 549.39C94.5 551.02 93.38 553.86 93.58 556.12C93.75 558.08 98.5 560.24 97 562.97C95.34 566 90.43 570.31 93.62 573.13C97.22 576.31 91.99 579.06 98.52 584.34C101.01 586.35 95.24 586.9 95.17 588.28L93.73 614.12C91.9 614.59 91.55 613.85 90.98 613.33C84.08 607.09 94.24 612.64 91.27 607.67C90.51 606.4 89.15 604.91 88.33 606.56L86.29 610.7C84.13 609.04 85.84 607.9 85.25 606.84C83.83 604.3 72.31 604.19 75.78 602.62C74.63 603.14 74.22 606.5 72.34 607.62L72.86 612.97C73.1 615.43 69.03 616.14 67.69 617.54C60.86 624.66 63.37 634.4 62.58 643.22C62.46 644.61 57.99 645.95 59.4 647.69C60.25 648.74 62.67 650.69 63.9 648.88C67.26 643.96 66.56 638.45 69.1 633.01C72.6 644.01 66.76 654.2 63.29 664.37L63.32 664.36Z" fill="#242B67"/>
<path d="M-12.3698 666.95C-3.3898 671.52 28.4402 673.42 35.4202 672.5C40.3102 671.86 44.7202 668.53 49.1702 671.85C35.6902 677.76 24.5402 676.63 11.3702 673.43C2.84021 671.36 -6.6598 674.25 -14.5098 671.83C-17.0198 668.65 -20.1198 670.56 -23.0298 667.51C-20.0198 663.67 -15.9098 665.14 -12.3798 666.94L-12.3698 666.95Z" fill="#DD7494"/>
<path d="M49.2799 667.159C43.8999 667.729 39.3399 662.599 33.3399 664.419C32.2799 664.739 26.0199 657.559 56.1999 659.049C55.5299 661.919 53.1999 666.739 49.2799 667.159Z" fill="#8D478B"/>
<path d="M90.6202 579.1C88.1802 580.71 85.1702 580.59 81.7402 579.29C84.1802 577.68 87.1902 577.8 90.6202 579.1Z" fill="#39418F"/>
<path d="M1602.81 655.51V676.4C1589.27 675.84 1575.91 669.71 1561.31 668.18C1565.98 672.5 1572.69 671.94 1577.9 673.65C1586.63 676.52 1594.25 679.44 1602.82 678.11V689.86C1595.05 690.65 1586.17 690.43 1578.51 693.28C1574.31 694.84 1537.45 703.37 1540.78 702.29L1535.72 703.92C1537.13 699.32 1519.76 699.3 1516.56 702.08C1511.58 706.41 1504.39 701.7 1497.85 703.09L1485.82 705.64C1489.8 700.74 1453.39 707.59 1451.37 708.03C1445.05 709.42 1437.71 707.77 1433.06 709.4C1428.41 711.03 1420.7 710.33 1414.78 711.69C1397.75 715.58 1381.14 707.17 1364.27 711.54C1358.83 712.95 1352.99 713.36 1347.45 711.45C1341.06 709.24 1333.64 712.56 1327.1 709.87C1319.59 706.78 1311.58 710.57 1305.17 710.81C1273.9 711.98 1253.43 692.32 1227.75 690.16C1226 686.8 1220.84 689.53 1217.42 688.19C1204.83 683.25 1192.61 681.63 1179.56 679.94C1171.95 678.95 1165.41 674.69 1159.06 673.06C1158.89 671.98 1159.97 672.01 1160.64 671.53C1161.67 671.4 1162.67 670.63 1162.37 669.52C1171.78 674.24 1188.73 667.28 1195.34 666.98C1199.08 666.81 1202.81 673.48 1208.17 670.77C1209.88 659.47 1223.43 668.85 1235.13 672.49C1238.07 673.41 1241.03 679.35 1244.37 675.11C1245.61 673.54 1242.06 671.08 1244.37 670.11C1247.42 668.83 1249.6 670.68 1251.27 670.51C1259.74 669.68 1270.2 659.62 1275.4 663.49C1280.2 667.06 1284.49 670.87 1291.62 670.54C1292.84 671.83 1295.98 671.91 1295.02 669.82C1298.61 669.42 1297.59 669.68 1296.93 673.65C1300.78 675.18 1305.71 673.7 1306.55 677.82C1296.83 680.04 1291.71 671.22 1282.49 675.74C1291.31 678.91 1298.95 680.95 1306.88 681.55C1310.97 681.86 1314.65 684.57 1318.92 683.27C1318.52 686.28 1322.05 684.2 1323.94 685.08C1333.34 689.47 1342.74 692.69 1353.43 691.83C1352.2 687.07 1348.18 689.45 1344.63 688.49L1318.93 681.54C1317.33 681.11 1315.49 681.12 1313.88 681.04C1311.09 669.77 1332.84 683.71 1339.34 662.48L1430.76 660.06C1438.94 659.84 1447.24 656.91 1454.35 654.49C1462.61 651.69 1463.13 658.87 1466.47 658.81C1472.99 658.68 1485.54 658.45 1488.52 666.33L1491.48 659.13C1495.87 659.99 1500.58 656.62 1504.56 658.1L1518.43 663.24C1521.88 664.52 1539.71 652.91 1550.49 659.88C1551.67 660.64 1572.49 662.25 1575.17 661.45C1580.31 659.9 1567.06 652.49 1602.8 655.49L1602.81 655.51Z" fill="#3F2D6A"/>
<path d="M1162.36 669.52C1162.66 670.63 1161.66 671.4 1160.63 671.53C1161.27 669.8 1158.65 669.22 1159.03 668.53C1159.45 667.78 1161 667.41 1161.53 667.78C1162.24 668.27 1162.5 668.87 1162.35 669.52H1162.36Z" fill="#A36BA5"/>
<path d="M1485.81 705.65C1466.71 709.7 1446.69 710.14 1426.63 713.4C1412.95 715.63 1389.1 712.2 1384.3 715.97C1383.33 715.8 1359.27 711.88 1361.93 715.97C1339.41 710.98 1326.02 713.37 1305.15 712.53V710.81C1311.56 710.57 1319.57 706.78 1327.08 709.87C1333.62 712.56 1341.04 709.24 1347.43 711.45C1352.97 713.37 1358.81 712.95 1364.25 711.54C1381.12 707.17 1397.73 715.59 1414.76 711.69C1420.68 710.34 1428.16 711.11 1433.04 709.4C1437.92 707.69 1445.03 709.42 1451.35 708.03C1453.37 707.59 1489.79 700.74 1485.8 705.64L1485.81 705.65Z" fill="#67447C"/>
<path d="M1508.32 683.4C1502.02 686.54 1494.26 685.47 1486.91 687.83C1480.18 689.99 1473.32 686.28 1466.69 689.39L1491.95 694.61C1499.03 696.07 1507.07 694.09 1515.09 698.01C1502.39 699.31 1474.87 693.66 1460.08 691.1C1459.48 691 1410.97 683.84 1416.95 688.28C1413.52 689.28 1409.31 686.89 1404.84 686.23C1406.7 682.73 1410.05 686.68 1411.95 686.27C1414.25 681.89 1419.55 683.69 1423.51 684.16L1452.17 687.5C1450.9 687.35 1505.94 685.25 1501.29 681.57C1503.69 681.91 1505.49 684.59 1508.31 683.4H1508.32Z" fill="#81538B"/>
<path d="M1305.16 710.81V712.53C1294.04 712.08 1282.35 714.07 1271.32 710.03C1260.29 705.99 1250.28 700.96 1239.59 695.92C1235.27 693.88 1231.45 693.39 1227.74 691.89V690.17C1253.42 692.33 1273.89 711.98 1305.16 710.82V710.81Z" fill="#FED5CD"/>
<path d="M1318.92 683.28V681.56L1344.62 688.51C1348.17 689.47 1352.19 687.08 1353.42 691.85C1342.74 692.71 1333.34 689.49 1323.93 685.1C1322.05 684.22 1318.51 686.3 1318.91 683.29L1318.92 683.28Z" fill="#F1AECA"/>
<path d="M1336.19 695.9C1326.52 699.57 1312.7 704.32 1303.71 698.58C1312.2 695.86 1330.59 693.66 1336.19 695.9Z" fill="#E28AB2"/>
<path d="M1416.95 688.28C1430.76 691.51 1442.37 691.68 1453.42 696.55C1453.5 698.72 1410.35 689.72 1416.95 688.28Z" fill="#AB719C"/>
<path d="M1306.55 677.82C1306.87 678.46 1306.88 679.14 1306.88 679.84V681.56C1298.95 680.95 1291.31 678.92 1282.49 675.75C1291.7 671.23 1296.83 680.04 1306.55 677.83V677.82Z" fill="#F9C9D3"/>
<path d="M1313.87 681.07C1315.48 681.14 1317.32 681.13 1318.92 681.57V683.29C1314.64 684.59 1310.97 681.88 1306.88 681.57V679.85C1309.44 678.9 1311.37 680.96 1313.87 681.07Z" fill="#6D488A"/>
<path d="M1388.07 668.69C1388.75 667.01 1390 669.3 1390.45 669.6C1391.47 670.26 1390.8 671.16 1390.22 671.3C1389.01 671.6 1387.01 671.32 1388.07 668.69Z" fill="#BF7BA8"/>
<path d="M1504.82 723.16C1494.92 723.93 1484.59 725.28 1474.46 725.64L1441.09 726.83L1386.82 730.7C1377.6 731.36 1368.78 731.84 1359.81 732.35L1330.39 734.04C1317.34 734.79 1304.16 733.65 1291.4 734.88V733.16C1315.8 732.91 1328.76 730.84 1352.28 729.73L1377.73 728.53C1378.36 728.5 1414.94 724.67 1410.12 722.84C1410.94 722.69 1411.95 723.1 1412.68 722.84C1413.41 722.58 1413.8 721.86 1413.56 721.03C1430.49 723.97 1448.16 727.03 1465.63 723.43C1473.44 721.82 1481.92 724.82 1489.15 720.57C1490.76 719.62 1510.24 721.65 1504.83 723.14L1504.82 723.16Z" fill="#604079"/>
<path d="M129.05 674.78C128.45 672.57 128.5 669.49 128.49 667.46C129.2 666.52 130.09 667.18 130.74 667.17C131.91 667.15 131.78 669.37 132.74 670.15C138.09 674.46 151.22 669 150.96 672.49L129.04 674.79L129.05 674.78Z" fill="#7B4D99"/>
<path d="M1059.02 688.66C1075.49 694.78 1091.46 701.84 1108.6 705.01C1119.75 707.07 1130.21 710.68 1143.21 711.88C1136.57 716.18 1130.04 712.91 1124.08 712.77L1107.28 712.38C1105.51 712.34 1104.33 711.24 1103.03 710.98C1101.14 710.6 1100.61 713.42 1098.99 713.26C1078.68 711.19 1059.74 705.13 1043.43 693.98C1040.5 691.98 1039.55 686.51 1036.71 684.84C1043.28 688.21 1052.28 688.18 1059.01 688.67L1059.02 688.66Z" fill="#D1799B"/>
<path d="M747.87 790.49C741.58 786.25 739.59 776.38 744.17 770.25L787.22 774.8C784.61 776.64 782.84 776.98 785.15 778.19C787.47 776.84 791.03 778.13 790.06 779.26C789.51 779.9 789.17 782.32 787.45 782.68C773.45 785.66 760.79 788.73 747.88 790.48L747.87 790.49Z" fill="#5158B2"/>
<path d="M1026.42 667.37C1025.95 670.03 1029.5 670.55 1030.85 673.23C1028.59 674.17 1027.94 673.09 1026.97 672.88C1025.29 672.52 1021.81 676.42 1023.37 677.48C1028.04 680.65 1032.63 682.73 1036.73 684.84C1039.57 686.52 1040.53 691.98 1043.45 693.98C1059.76 705.13 1078.7 711.19 1099.01 713.26C1100.63 713.43 1101.16 710.6 1103.05 710.98C1104.36 711.24 1105.54 712.34 1107.3 712.38L1124.1 712.77C1130.05 712.91 1136.59 716.18 1143.23 711.88C1130.22 710.68 1119.77 707.07 1108.62 705.01C1103.35 700.11 1123.24 699.73 1133.38 695.6C1134.85 695 1135.38 691.56 1137.41 691.83C1135.25 691.54 1146 694.15 1145.35 690.55C1160.7 692.42 1216.36 687.26 1227.76 691.88C1231.47 693.38 1235.29 693.87 1239.61 695.91C1250.3 700.95 1260.48 706.05 1271.34 710.02C1282.2 713.99 1294.06 712.07 1305.18 712.52C1326.04 713.36 1339.44 710.97 1361.96 715.96C1362 715.96 1404.81 720.23 1410.13 722.84C1414.94 724.68 1378.37 728.5 1377.74 728.53L1352.29 729.73C1328.78 730.84 1315.81 732.91 1291.41 733.16L1215.67 733.92C1189.05 734.19 1164.2 733.53 1138.27 729.85L1086.7 722.53C1076.24 721.05 1066.28 717.84 1055 720.06C1065.27 726.17 1076.86 723.68 1087.77 725.18L1171.41 736.64C1233.24 745.11 1293.5 759.06 1353.35 764.13C1355.62 766.9 1360.54 766.49 1364.28 766.81L1382.03 768.3L1398.61 770.26C1403.37 770.82 1408.24 770.69 1413.11 771.51L1451.43 777.89C1452.96 778.15 1454.97 777.77 1456.59 777.89C1470.96 778.96 1485.35 781.59 1499.61 781.21C1500.05 785.15 1506.28 782.44 1509.93 783.95C1507.95 787.91 1502.26 788.76 1498.2 786.48C1497.84 788.17 1498.44 789.2 1497.17 789.89C1496.62 790.19 1496.1 790.3 1493.64 788.19C1491.69 792.76 1485.54 793.05 1481.14 791.57L1480.12 795.04C1480.8 792.71 1324.42 839.58 1303.83 844.38L1277.89 850.42C1234.49 860.53 1190.29 874.25 1145.18 874.25H1141.74C1138.1 877.44 1133.14 876.21 1128.52 876.61L1105.07 878.63L1080.66 880.19C1076.45 880.46 1073.07 880.81 1069.48 881.07L1026.35 884.3C1013.83 885.24 1001.33 886.07 988.74 885.71C982.32 885.53 976.42 882.24 969.68 884.25C966.34 885.25 963.03 882.18 962.01 879.45C971.15 888.65 910.35 882.48 918.25 884.77L907.01 881.52C905.76 881.16 904.12 880.99 902.71 882.2C901.81 882.97 902.34 884.13 901.69 885.47C898.11 886.33 896.26 882.09 892.75 881.12C889.95 887.37 884.52 888.22 878.31 886.18C870.72 892.17 868.84 882.99 856.21 884.36C858.84 880.13 787.23 874.38 788.7 874.74L772.05 870.67C766.88 868.3 758.95 822.58 758.56 823.54C759.05 822.35 761.24 822.03 763.27 819.94L749.88 817.47C748.91 806.79 747.17 801.68 747.9 790.48C760.81 788.73 773.47 785.65 787.47 782.68C789.19 782.31 789.53 779.9 790.08 779.26C791.05 778.13 787.5 776.84 785.17 778.19C782.86 776.98 784.63 776.64 787.24 774.8L744.19 770.25C741.86 771 740.87 768.27 739.92 765.86C739.49 764.77 738.91 763.42 742.65 761.43C738.04 760.7 737.61 756.33 737.5 752.5C743.75 749.81 751.14 748.84 758.06 748.68C762.55 748.57 766.79 748.27 771.81 747.41L804.52 741.8C813.25 740.3 822.41 740.83 832.07 740.31C855.17 739.07 876 730.61 897.61 725.53C900.65 724.81 902.95 721.89 906.03 721.36C914.64 719.88 921.64 714.37 929.52 711.7C939.03 708.48 948.57 706.19 957.17 701.15C968.38 694.58 981.07 693.11 992.55 684.93C990.01 682.04 986.87 679.66 988.63 676.29C1003.16 679.08 1017.63 665.06 1026.46 667.39L1026.42 667.37Z" fill="url(#paint6_linear_596_5)"/>
<path d="M1291.39 733.18V734.9C1283.08 735.7 1275.16 737.75 1265.38 736.61C1259.79 735.96 1248.96 740.35 1252.39 746.25C1255.37 750.29 1265.57 750.34 1270.21 750.97L1355.04 762.42C1355.29 763.56 1354.45 764.39 1353.32 764.14C1293.47 759.07 1233.21 745.12 1171.38 736.65L1087.74 725.19C1076.83 723.7 1065.24 726.18 1054.97 720.07C1066.24 717.85 1076.21 721.06 1086.67 722.54L1138.24 729.86C1164.17 733.54 1189.02 734.2 1215.64 733.93L1291.38 733.17L1291.39 733.18Z" fill="#F39CB0"/>
<path d="M1451.4 777.91L1413.08 771.53C1408.21 770.72 1403.34 770.85 1398.58 770.28L1382 768.32L1364.25 766.83C1360.51 766.52 1355.6 766.92 1353.32 764.15C1354.46 764.4 1355.29 763.56 1355.04 762.43C1351.57 761.96 1389.2 768.27 1384.15 766.28C1390.58 768.81 1398.23 765.57 1402.23 767.85C1406.57 770.32 1413.15 767.52 1416.07 769.36C1419.56 771.55 1423.9 770.44 1426.54 770.78C1430.92 773.32 1437.49 773.89 1442.04 770.58C1441.85 777.68 1453.74 771.13 1451.38 777.9L1451.4 777.91Z" fill="#493973"/>
<path d="M1384.3 715.97L1413.55 721.05C1413.79 721.88 1413.37 722.62 1412.67 722.86C1411.97 723.1 1410.92 722.7 1410.11 722.86C1404.78 720.24 1361.97 715.99 1361.94 715.98C1359.27 711.89 1383.34 715.81 1384.31 715.98L1384.3 715.97Z" fill="#BF80A4"/>
<path d="M456.95 796.78V798.7C412.34 803.17 367.47 807.4 322.73 808.76C329.83 808.11 315.5 806.794 302.5 800.5C293 795.9 284.32 789.92 276.61 782.87C268.07 775.07 272.23 768.95 276.09 762.26C290.48 750.44 309.52 750.96 328 757.04L413.88 785.29C428.74 790.18 442.62 794.16 456.95 796.77V796.78Z" fill="#E7868D"/>
<path d="M562.33 742.48L579.17 747.23C589.53 750.15 599.66 754.03 609.83 753.99C610.01 754.84 608.39 755.87 608.99 756.1C609.68 756.37 610.69 757.36 611.74 757.6L641.16 764.16L683.76 771.03C682.94 771.82 682.8 773.09 683.6 773.94C669.49 774.13 655.25 775.28 641.27 777.55C642.17 775.82 640.43 775.44 639.33 774.14C638.35 772.98 637.86 774.27 635.89 774.29C626.71 773.03 618.46 770.74 609.61 770.03C581.15 767.76 555.9 749.25 551.48 762.46C531.95 746.43 453.05 752.92 450.17 719.5C449.78 714.94 452.89 710.71 450.04 707.42C452.78 708.29 456.47 707.34 460.52 708.94C494.34 722.31 528.26 732.86 562.35 742.48H562.33Z" fill="#F399A4"/>
<path d="M422.28 680.3C427.02 683.51 433.5 681.92 439.33 683.81L486.02 699.03C520.81 710.37 526.8 696.47 536.86 696.6C552.07 696.8 565.04 703.94 577.51 707.41C579.72 708.03 581.95 708.89 584.27 709.04C577.96 712.2 570.4 708.41 563.55 707.22C542.24 703.54 539.32 696.29 511.44 706.51C536.91 714.26 562.25 721.37 589.65 726.07C592.46 726.55 596 721.92 598.05 725.78C594.94 726.43 592.77 723.92 592.6 727.51L629.07 736.86C628.78 739.13 624.98 739.09 625.52 741.73C612.64 736.83 579.48 739.46 565.93 738.8C564.09 738.71 561.84 741.56 562.34 742.45C528.25 732.83 494.33 722.28 460.51 708.91C456.46 707.31 452.77 708.26 450.03 707.39C430.26 701.13 425.09 702.58 412.39 683.07C415.83 682.43 418.81 680.69 422.3 680.27L422.28 680.3Z" fill="#D87A97"/>
<path d="M641.26 777.55C626.98 779.87 566.4 785.05 556.5 774.72C554 772.11 554.1 764.87 551.46 762.45C555.89 749.24 581.13 767.75 609.59 770.02C618.43 770.73 626.69 773.02 635.87 774.28C637.85 774.26 638.33 772.96 639.31 774.13C640.41 775.43 642.15 775.81 641.25 777.54L641.26 777.55Z" fill="#EB91A5"/>
<path d="M587.74 803.88C584.68 806.73 582.89 810.14 581.28 813.94L534.37 801.78C533.81 801.64 533.34 801.37 532.78 801.72C531.32 799.43 525.64 798.17 525.21 794.97C535.94 780.23 574.83 798.82 587.73 803.88H587.74Z" fill="#EA8CA4"/>
<path d="M687.78 817.67C688.28 820.69 689.01 821.78 687.9 824.51C685.93 817.66 674.58 822.85 667.55 820.27C661.29 817.97 655.22 819.42 649.75 821.37C642.74 823.87 635.09 822.39 627.04 821.37C616.84 820.09 607.25 821.06 598.04 820.57C600.58 817.84 583.34 814.47 581.27 813.94C582.89 810.14 584.68 806.73 587.73 803.88C600.4 808.85 613.82 813.7 628.08 814.73L663.39 817.28L687.77 817.66L687.78 817.67Z" fill="#B871AE"/>
<path d="M278.02 755.54C273.59 757.16 268.83 758.11 264.26 758.98C267.45 751.79 250 758.34 248.16 754.16L231.85 753.61C231.22 752.68 231.65 751.07 231.57 750.37C234.08 749.84 236.38 751.22 239.2 751.44L258.04 752.95L284.89 754.45C282.24 756.66 279.84 755.13 278.03 755.53L278.02 755.54Z" fill="#E26C82"/>
<path d="M503.4 791.39C500.97 795.84 494.46 794.79 489.73 795.42L473.22 797.6C467.26 798.39 462.2 798.17 456.94 798.7V796.78C461.03 797.53 465.99 796.78 469.76 795.15C469.76 795.15 501.48 792.22 503.39 791.39H503.4Z" fill="#4E4083"/>
<path d="M228.12 750.359C230.66 752.809 216.82 752.629 216.08 751.279C215.72 750.619 215.23 749.819 215.81 748.939C219.82 749.249 223.76 751.679 228.12 750.359Z" fill="#CC5F7D"/>
<path d="M794.17 683.1C794.8 682.76 795.29 682.73 795.89 683.12C796.03 684.05 795.54 685.21 795.9 685.88C796.36 686.74 797.74 687.04 798.82 687.39L827.44 696.58C829.91 697.37 831.3 699.22 834.52 698.74C836.29 698.48 837.48 695.88 838.91 695.17C841.48 693.88 845.6 691.28 849.34 690.42C853.08 689.56 855.3 694.45 856.13 696.61C856.42 697.35 855.91 698.35 856.06 699.12C847.74 703.38 839.36 701.37 826.24 704.54C833.07 713.31 857.68 709.32 866.26 714.79C867.74 715.73 881.73 720.02 886.66 718.93C887.77 714.78 903.47 712.15 905.02 714.2C906.92 716.72 906.02 719.04 906 721.34C902.92 721.87 900.62 724.8 897.58 725.51C875.97 730.59 855.14 739.06 832.04 740.29C822.38 740.81 813.22 740.29 804.49 741.78C809.57 736.96 774.96 745.09 776.4 744.63C770.31 746.57 763.84 743.98 758.04 745.22C747.19 747.54 747.61 746.5 735.9 746.62C735.31 742.73 736.83 737.68 735.21 733.61C733.37 728.99 731.71 725.67 733.8 721.23C738.11 720.04 743.61 721.96 748.28 719.92C749.25 719.5 749.41 714.89 750.58 715.05C768.16 717.3 785.82 719.43 802.59 714.68C791.33 712.09 782.63 716.34 774.07 713.03C775.54 711.65 776.43 710.61 777.43 709.2C778.04 708.34 777.65 707.07 775.81 706.76C776.52 705.62 777.26 704.57 777.89 703.82C779.03 702.47 778.08 700.67 777.37 699.35C778.26 699 777.97 697.39 778.54 696.84C781.12 694.4 780.64 691.69 780.59 688.56C781.33 685.16 784.95 682.14 787.27 679.84C786.43 682.84 787.95 682.65 790.58 684.18C792.01 685.01 792.25 684.13 794.15 683.1H794.17Z" fill="#5C52A8"/>
<path d="M823.12 691.28C827.91 693.6 833.7 694.86 838.9 695.15C837.48 695.86 836.29 698.46 834.51 698.72C831.29 699.2 829.9 697.36 827.43 696.56L798.81 687.37C797.73 687.02 796.35 686.72 795.89 685.86C795.53 685.2 796.02 684.03 795.88 683.1C800.4 686.04 823.87 691.63 823.11 691.26L823.12 691.28Z" fill="#AB74BE"/>
<path d="M794.17 683.1C792.27 684.13 792.03 685.01 790.6 684.18C787.97 682.66 786.45 682.84 787.29 679.84C789.17 681.89 792.9 680.46 794.17 683.1Z" fill="#CC98D3"/>
<path d="M804.49 741.78L771.78 747.39C766.76 748.25 762.52 748.55 758.03 748.66V745.22C763.84 743.98 770.3 746.57 776.39 744.63C774.95 745.09 809.56 736.97 804.48 741.78H804.49Z" fill="#7368B9"/>
<path d="M758.04 745.22V748.66C751.12 748.82 743.73 749.79 737.48 752.48C737.42 750.33 736.21 748.65 735.9 746.61C747.61 746.49 747.18 747.53 758.04 745.21V745.22Z" fill="#B2B1EF"/>
<path d="M795.96 726.85C783.03 732.24 757.74 734.55 742.99 737.49C742.18 733.7 742.67 732.63 743.57 731.5C745.31 729.3 748.33 729.7 752.26 728.16C754.15 727.41 753.97 725.66 753.48 723.26C763.71 725.27 773.37 723.87 784.01 724.2C787.39 724.3 791.64 728.4 795.96 726.86V726.85Z" fill="#706BC6"/>
<path d="M848.9 718.31C839.18 725.45 826.22 717.08 816.27 710.62L848.9 718.31Z" fill="#EEA0CD"/>
<path d="M775.82 706.76C772.94 706.73 773.58 703.66 774.55 701.55C775 700.57 775.72 700.01 777.39 699.35C778.09 700.68 779.05 702.47 777.91 703.82C777.28 704.57 776.54 705.61 775.83 706.76H775.82Z" fill="#DBF2FC"/>
<path d="M792.78 706.54C793.43 704.85 794.69 707.16 795.15 707.45C796.09 708.06 795.5 709.02 794.95 709.15C793.55 709.48 791.76 709.15 792.78 706.54Z" fill="#EBEDF9"/>
<path d="M522.28 657.42C522.26 661.13 547.05 679.1 549.8 679.63C559.13 681.43 566.63 684.05 575.81 682.39C567.5 680.79 560.63 676.65 553.59 672.84C553.61 671.44 553.17 668.21 554.88 670.77C561.79 675.69 570.19 676.2 577.37 676.47C579.14 676.54 581.14 676.75 582.69 675.83C585.97 672.91 594.39 675.91 594.81 679.45C594.96 680.69 594.41 683.98 596.25 683.69C597.42 683.51 598.46 682.97 599.09 685.88C592.56 684.98 588.29 682.02 581.51 682.7C585.54 686.56 589.31 684.73 592.91 686.87C593.7 691.12 587.54 690.75 585.99 693.31C585.76 694.71 550.05 691.65 557.16 695.76C558.25 697.01 556.49 697.4 556.78 698.07C557.36 699.45 559.12 698.91 560.34 699.29L575.7 703.96C577.82 704.6 578.32 706.09 577.51 707.44C565.04 703.97 552.07 696.83 536.86 696.63C526.8 696.5 520.81 710.4 486.02 699.06L439.33 683.84C433.5 681.94 427.02 683.53 422.28 680.33C427.55 679.69 432.48 677.5 438.33 677.52C442.08 677.54 401.86 659.91 413.74 664.43C413.48 663.09 415.41 662.16 416.39 662.72L419.05 664.26C425.73 668.13 424.66 671.22 442.35 668.39C444.62 669.35 447.45 670.87 448.55 672.36C444.98 672.27 443.7 674.99 447.72 674.68L452.62 676.67C451.53 676.23 468.05 672.45 470.72 672.99C472.22 673.29 473.4 671.5 473.99 670.34C474.98 668.38 473.7 667.98 470.68 667.41C474.62 661.82 479.53 666.95 482.88 666.98C496.56 667.13 518.42 656.04 522.29 657.45L522.28 657.42Z" fill="#352D70"/>
<path d="M553.59 672.84C560.62 676.65 567.49 680.79 575.81 682.39C566.63 684.04 559.14 681.43 549.8 679.63C547.05 679.1 522.26 661.13 522.28 657.42C533.14 661.38 543.35 667.29 553.59 672.84Z" fill="#F8A3BB"/>
<path d="M470.71 672.96C468.04 672.42 451.52 676.2 452.61 676.64L447.71 674.65C443.69 674.96 444.97 672.24 448.54 672.33C451.67 674.62 470.83 667.72 470.71 672.96Z" fill="#CD6FA0"/>
<path d="M582.69 675.83C581.14 676.75 579.14 676.54 577.37 676.47C577.13 674.77 578.47 674.38 579.95 674.67C580.77 674.83 583.14 674.04 582.69 675.83Z" fill="#C86DB3"/>
<path d="M510.09 693.15L479.03 691.39C474.18 691.11 469.94 690.71 465.35 688.99C476.72 687.42 496.73 689.63 510.08 693.15H510.09Z" fill="#D885AC"/>
<path d="M585.99 693.3C584.01 696.57 562.66 698.26 557.16 695.75C550.05 691.64 585.76 694.7 585.99 693.3Z" fill="#5E428A"/>
<path d="M515.55 679.98C514.5 682.46 512.98 683.44 511.12 683.4C509.26 683.36 508.08 681.39 503.74 680.86C507.51 678.77 510.88 680.13 515.55 679.98Z" fill="#DE6DA3"/>
<path d="M715.05 716.41C715.33 724.05 711.6 731.23 711.4 738.63C707.84 738.12 703.54 737.71 700.93 739.97C692.37 737.77 682.53 738.34 673.24 737.43L646.18 734.78C647.65 734.92 621.72 731.39 624.27 728.57C631.74 726.71 638.64 729.74 646.24 730.57C658.62 731.92 670.46 731.86 681.95 732.26C685.76 732.39 689.49 733.5 693.83 732.62C694.33 730.03 694.51 727.71 693.93 725.88C689.57 724.56 685.8 726.1 682.32 725.36C676.5 724.11 670.32 725.64 665.01 722.09C666.82 720.35 669.84 721.7 671.75 720.56C672.82 719.92 672.41 718.39 673.29 716.74L707.62 715.03C710.71 714.88 712.57 714.96 715.05 716.4V716.41Z" fill="#A07CCE"/>
<path d="M642.8 741.41C652.17 745.02 662.02 747.71 672.02 748.62C669.05 755.99 685.96 749.06 683.86 753.76C672.85 761.61 658.71 763.38 644.12 762.7C641.7 759.82 640.37 761.19 641.16 764.16L611.74 757.6C610.69 757.37 609.69 756.37 608.99 756.1C608.38 755.87 610.01 754.83 609.83 753.99C627.19 753.93 644.63 756.91 662.14 749.95C648.49 747.28 636.83 746.06 625.51 741.75C624.97 739.11 628.77 739.15 629.06 736.88C633.87 738.11 638.2 739.65 642.8 741.42V741.41Z" fill="#C67BB4"/>
<path d="M700.93 739.97C700.43 742.42 702.32 744.87 700.4 746.89C696.67 750.82 690.17 747.66 689.3 750.27C683.81 751 677.51 749.11 672.01 748.61C662.01 747.7 652.16 745.01 642.79 741.4C641.6 737.97 645.86 737.65 646.17 734.78L673.23 737.43C682.53 738.34 692.37 737.77 700.92 739.97H700.93Z" fill="#4D4EAE"/>
<path d="M584.27 709.05C587.62 707.37 591.85 711.65 594.54 712.18L594.59 714.26C593.17 713.72 593.19 716.29 592.67 715.65C592.15 715.01 589.73 713.33 589.52 715.13C589.36 716.43 591.83 715.4 593.34 716.66C589.69 720.43 585.39 718.35 582.55 718.34C582.69 717.95 582.72 716.9 582.25 716C573.17 717.79 560.53 707.87 557.3 714.56L554.25 714.33C549.89 714 562.42 707.1 556.25 709.87C558.55 708.83 562.71 710.73 563.56 707.25C570.4 708.43 577.97 712.23 584.28 709.07L584.27 709.05Z" fill="#613D84"/>
<path d="M594.59 714.25L594.54 712.17C601.68 713.58 625.71 711.34 634.34 715.34L616.61 717.12C609.29 717.85 602.1 712.52 594.59 714.25Z" fill="#B571B1"/>
<path d="M1159.05 673.06C1165.4 674.69 1171.94 678.95 1179.55 679.94C1192.6 681.63 1204.83 683.24 1217.41 688.19C1220.83 689.53 1225.99 686.8 1227.74 690.16V691.88C1216.34 687.26 1160.68 692.41 1145.33 690.55C1132.19 683.49 1117.86 680.31 1103.44 675.54C1108.86 671.81 1128.11 685.62 1134.3 676.54C1125.74 669.66 1112.72 676.11 1109.59 657.13C1108.71 652.86 1146.94 669.82 1146.48 669.53C1151.25 672.59 1154.86 671.99 1159.04 673.06H1159.05Z" fill="#F79DAD"/>
<path d="M1192.7 685.02C1182.41 688.06 1173.44 686.86 1163.53 682.61C1173.35 679.89 1182.32 681.93 1192.7 685.02Z" fill="#7E4077"/>
<path d="M1141.9 670.11C1144.23 673.73 1120.25 667.95 1122.56 664.13C1129.82 665.09 1134.94 667.77 1141.9 670.11Z" fill="#603A77"/>
<path d="M819.95 893.53L794.41 892.96C792.94 890.33 790.92 892.3 789.04 893C787.75 892.34 785.45 891.6 785.54 889.82L819.67 889.45C820.31 891.69 819.9 892.56 819.96 893.53H819.95Z" fill="#E3ABDB"/>
<path d="M776.98 910.27L787.46 947.72C789.06 953.44 793.5 954.17 796.47 957.59C802.4 964.43 804.81 972.83 813.95 977.07C815.2 977.65 812.85 980.01 812.94 980.89L801.33 980.7C792.25 967.67 781.87 967.93 776.18 947.15L768.93 920.69C768.15 917.85 770.58 914.43 768.16 910.16C766.35 906.95 764.87 902.59 765 899.5C767.21 900.3 764.75 893.5 766.5 893.5C766.45 890.61 768.88 893.3 770 893.5C772.95 894.03 776.02 906.89 776.96 910.27H776.98Z" fill="#529AEB"/>
<path d="M743.23 822.92L746.22 829.5C748.75 835.08 749.51 857.61 753.24 866.21C749.78 867.23 746.93 867.11 744.1 867.48L701.41 867.27C700.13 864.26 696.28 865.67 692.74 866.04C692.7 863.17 696.21 860.85 695.87 859.26C693.95 855.94 697.08 820.72 701.26 822.77L743.22 822.93L743.23 822.92Z" fill="#4C4DA8"/>
<path d="M701.41 867.26L744.1 867.47C749.5 867.75 752.62 866.53 755 867.75L761.5 891.5C761.93 892.62 765 893.171 765 895C737.74 894.72 708.6 893.9 681.1 895.13C679.87 895.18 679.5 895.13 676.5 895.13C676.5 892.13 687 899.369 692 867.269C694.61 866.809 698.85 867.26 701.42 867.27L701.41 867.26Z" fill="#D198D9"/>
<path d="M743.23 822.92L701.27 822.76C700.51 818.86 703.06 814.38 703.82 810.2C706.01 798.21 705.39 786.09 709.84 774.26C718.31 772.24 727.32 772.37 735.09 773.7C740.09 787.59 738.94 805.29 742.3 812.84C743.92 816.47 741.78 819.71 743.23 822.92Z" fill="#6B70D1"/>
<path d="M678.95 867.46C679.95 876.41 672.4 886.629 665.18 889.719C635.75 890.629 627.71 889.81 599.98 885.65L613.5 878C634.77 878.82 634.74 872.86 655.42 867.7C658.64 866.9 661.18 868.02 664.98 868.11C669.99 868.23 674.49 865.21 678.95 867.45V867.46Z" fill="#C483C5"/>
<path d="M711.4 738.63C711.29 742.88 707.17 747.53 707.48 751.64C708.36 763.46 702.18 759.14 700.67 770.3C695.34 772.27 688.35 771.77 683.75 771.03L641.15 764.16C640.36 761.19 641.7 759.82 644.11 762.7C658.69 763.38 672.84 761.61 683.85 753.76C685.48 752.6 688.88 752.74 689.3 750.28C690.17 747.66 696.67 750.83 700.4 746.9C702.32 744.88 700.44 742.43 700.93 739.98C703.55 737.72 707.84 738.13 711.4 738.64V738.63Z" fill="#5754BB"/>
<path d="M733.8 721.23C731.71 725.67 733.37 729 735.21 733.61C736.83 737.67 735.31 742.73 735.9 746.62C736.21 748.66 737.41 750.34 737.48 752.49C737.59 756.32 738.02 760.69 742.63 761.42C738.88 763.41 739.47 764.77 739.9 765.85C740.85 768.26 741.84 770.99 744.17 770.24C739.59 776.38 741.58 786.25 747.87 790.48C747.14 801.68 748.88 806.79 749.85 817.47C750.16 820.89 749.24 825.1 748.98 828.94C748.94 829.53 746.46 829.03 746.22 829.49L743.23 822.91C741.77 819.71 743.91 816.46 742.3 812.83C738.94 805.28 740.09 787.57 735.09 773.69C727.32 772.37 718.31 772.23 709.84 774.25C705.39 786.08 706.01 798.2 703.82 810.19C703.06 814.38 700.51 818.85 701.27 822.75C697.09 820.7 693.96 855.92 695.88 859.24C696.22 860.84 692.71 863.15 692.75 866.02C696.29 865.65 700.13 864.23 701.42 867.25C698.86 867.24 695.87 867.27 693.26 867.73C688.26 899.83 677.17 890.63 677.06 896.79C677.04 897.92 676.82 898.99 676.73 900.05C674.61 900.47 676.29 897.93 674.54 896.56C667.45 909.23 666.62 923.88 660.43 937.8C655.46 948.97 652.03 959.7 646.12 969.13C644.99 970.94 644.21 972.7 642.72 974.11C642.77 963.9 659.64 941.45 658.72 928.15C650.14 947.07 641.6 964.52 624.21 975.65C623.44 975.11 623.18 974.21 623.73 973.88C626.38 970.53 631.44 968.71 632.54 963.79C629.65 963.45 628.68 966.37 627.2 964.66C625.87 963.12 625.48 961.75 625.07 960.11C627.26 955.13 632.39 947.62 635.73 942.76C637.86 940.5 642.06 941.89 643.29 938.66C644.52 935.43 645.3 933.11 642.43 929.54C646.2 929.76 647.03 927.99 649.05 925.28C650.07 923.91 649.29 922.58 646.68 921.23C658.89 915.39 645.04 911.53 660.01 899.46C659.21 898 657.65 897.22 656.56 896.19C661.03 895.5 663.3 891.62 665.19 889.71C672.41 886.61 679.96 876.4 678.96 867.45C682.76 867.12 682.19 863.15 681.3 859.35C679.81 852.96 686.51 845.91 686.14 838.06C685.92 833.42 686.18 828.74 687.91 824.49C689.02 821.76 688.3 820.67 687.79 817.65C690.66 817.7 692.58 815.83 693.36 812.9C696.53 801 699.08 789.11 699.65 775.9C699.83 771.79 689.76 773.85 683.6 773.93C682.81 773.08 682.94 771.81 683.76 771.02C688.36 771.76 695.35 772.26 700.68 770.29C702.18 759.13 708.37 763.45 707.49 751.63C707.18 747.52 711.3 742.87 711.41 738.62C711.61 731.22 715.34 724.04 715.06 716.4C716.68 717.34 718.22 716.08 719.94 716.12L710.28 769.96C718.23 771.28 724.6 770.78 733.27 771.08C735.94 759.37 726.94 729.42 726.48 716.26C729.43 708.68 731.29 724.02 733.81 721.22L733.8 721.23Z" fill="#BEE2F9"/>
<path d="M623.73 973.9C619.7 973.15 615.54 975.48 611.48 975.65C602.02 983.31 631.25 955.17 625.06 960.13C625.47 961.78 625.86 963.14 627.19 964.68C628.67 966.4 629.65 963.47 632.53 963.81C631.44 968.73 626.37 970.54 623.72 973.9H623.73Z" fill="#77C8F4"/>
<path d="M726.47 716.27C726.93 729.43 735.92 759.38 733.26 771.09C724.59 770.78 718.23 771.29 710.27 769.97L719.93 716.13L726.47 716.27Z" fill="#818DE4"/>
<path d="M676.72 900.07C675.66 911.64 671 922.21 667.54 933.42C666.28 937.5 665.78 939.71 663.47 943.86L650.55 967.03C649.82 968.34 647.76 969.38 646.11 969.16C652.02 959.73 655.46 948.99 660.42 937.83C666.61 923.9 667.43 909.25 674.53 896.59C676.28 897.96 674.6 900.5 676.72 900.08V900.07Z" fill="#699FEE"/>
<path d="M687.65 876C681.77 876.73 681.17 874.91 685.38 872.55C683.84 869.45 689.51 820.32 694.98 821.77C693.81 840.86 689.45 858.15 687.66 876H687.65Z" fill="#49A7EB"/>
<path d="M646.32 943.72C642.54 942.75 660.8 898.81 663.85 899.75C659.28 914.94 653.17 928.03 646.32 943.72Z" fill="#32AEEE"/>
<path d="M581.27 813.94C583.34 814.48 600.58 817.84 598.04 820.57C594.48 820.38 589.83 823.36 586.16 823.77C585.49 825.25 584 826.78 585.44 827.39L568.49 825.19C561.21 824.24 552.16 825.16 544.46 821.51C541.45 820.08 542.66 811.53 545.79 809.45C541.42 806.08 536.31 805.8 534.38 801.77L581.29 813.93L581.27 813.94Z" fill="#90518A"/>
<path d="M598.05 820.57C607.26 821.06 616.85 820.08 627.05 821.37C635.09 822.38 642.74 823.86 649.76 821.37C649.94 823.14 650.37 824.88 648.72 826.01C647.68 826.73 646.65 827.72 644.5 827.71C611.26 827.46 625.14 832.56 585.45 827.4C584.01 826.79 585.5 825.26 586.17 823.78C589.85 823.38 594.49 820.39 598.05 820.58V820.57Z" fill="#764B91"/>
<path d="M800.854 817.5C787.775 818.684 750.036 822.873 750.036 822.873C749.62 826.237 752.955 831.94 753.805 835.304C755.512 842.058 756.249 848.336 758.832 855.194C761.377 861.948 764.75 869.925 773 871.5C781.771 873.174 786.5 874.168 800.854 875.5C813.614 876.683 830.704 888.171 841 888.996C851.676 889.851 873.797 886.856 882.5 888.996C891.469 891.201 912.36 889.124 927.981 888.996C949.461 888.819 959.637 886.523 986.661 886.294C1006.41 886.127 1084.78 879.455 1104 879C1125.34 878.494 1143 875.5 1143 875.5C1158.5 874.5 1161 874.055 1179.5 872C1194.21 870.365 1234.76 861.992 1249.5 858L1305 844C1294.76 841.131 1251.28 827.786 1227.75 821.664C1181.21 809.558 1172.39 806.452 1151.45 800.751C1104.5 787.967 1091.78 781.077 1070.5 777.207C1049.22 773.338 1041.16 766.418 1026.5 766.5C994.619 766.677 980.193 774.818 970.461 777.207C955.317 780.925 942.86 786.263 923.583 791.544C913.15 794.402 887.154 802.589 856.951 808.43C828.203 813.99 806.968 816.947 800.854 817.5Z" fill="url(#paint7_linear_596_5)"/>
<path d="M776.062 867.709C766.286 869.017 763.082 869.849 761.159 867.709C759.702 866.088 768.745 877.028 768.852 878.462C769.166 880.985 771.545 879.816 773.646 883.561C776.59 887.312 780.625 890.212 784.331 892.144C788.114 894.116 801.324 893.564 801.324 893.564C801.324 893.564 814.937 893.345 828 893.564C840.978 893.782 859.747 893.514 866 893.564C879.503 893.673 893.174 894.003 898.5 893.564C906.602 892.897 923.091 894.303 930.417 892.741C947.247 889.153 966 886.676 966 886.676C966 886.676 958.472 881.667 952.989 878.462C942.819 872.517 936.026 869.27 927.227 864.373C918.528 859.532 908.623 855.535 902.214 853.819C892.277 851.157 879.508 845.762 873.807 846.008C860.723 846.573 851.86 849.343 845.982 851.299C841.684 852.729 837.394 853.584 817.466 859.122C811.952 860.655 797.195 864.882 776.062 867.709Z" fill="#D198D9"/>
<mask id="mask0_596_5" style="mask-type:alpha" maskUnits="userSpaceOnUse" x="750" y="766" width="555" height="125">
<path d="M750.036 823.091C750.036 823.091 787.775 818.902 800.854 817.719C806.968 817.165 828.203 814.208 856.951 808.648C887.154 802.807 913.15 794.62 923.583 791.762C942.86 786.481 955.317 781.144 970.461 777.426C980.193 775.036 994.619 766.718 1026.5 766.718C1028.54 766.718 1029.98 766.686 1030.96 766.635C1026.51 765.372 1036.81 766.332 1030.96 766.635C1032.18 766.979 1034.48 767.487 1038.5 768.218C1059.78 772.088 1104.5 788.186 1151.45 800.969C1172.39 806.67 1181.21 809.776 1227.75 821.882C1251.28 828.004 1294.76 841.35 1305 844.218L1249.5 858.218C1234.76 862.211 1194.21 870.583 1179.5 872.218C1161 874.274 1158.5 874.718 1143 875.718C1143 875.718 1125.34 878.712 1104 879.218C1084.78 879.674 1006.41 886.346 986.661 886.513C959.637 886.741 949.461 889.037 927.981 889.214C912.36 889.343 891.469 891.42 882.5 889.214C873.797 887.074 851.676 890.069 841 889.214C830.704 888.39 813.614 876.902 800.854 875.718C786.5 874.386 781.771 873.393 773 871.718C764.75 870.143 761.377 862.166 758.832 855.413C756.249 848.555 755.512 842.276 753.805 835.523C752.955 832.159 749.62 826.455 750.036 823.091Z" fill="url(#paint8_linear_596_5)"/>
</mask>
<g mask="url(#mask0_596_5)">
<path d="M1026.5 769C1033 767.239 1044.19 768.65 1047 767.239C1054.41 768.225 1064.18 767.668 1071.43 767.239C1083.74 767.388 1090.86 766.373 1131.41 775.869C1160.37 782.65 1211.8 794.858 1241.83 803.023C1280.66 813.581 1291.91 817.149 1296.18 820.09C1300.7 823.2 1314.9 828.659 1316.5 835.348C1318.33 842.996 1312.58 850.856 1306.04 858.478C1300.09 865.417 1285.5 858.478 1285.5 858.478C1264.41 858.619 1256.34 871.399 1239.5 865.5C1226.89 861.086 1171.21 892.6 1164.5 890.5C1153.38 887.023 1140.5 882.001 1121 869C1113.07 863.712 1095.19 854.03 1080 844C1053.5 826.5 1061.5 831.911 1049 822.5C1044.13 818.835 1030 809.5 1018.5 797C1015 793.197 1011.42 781.007 1015 775.869C1018.58 770.73 1021.97 770.227 1026.5 769Z" fill="url(#paint9_linear_596_5)"/>
</g>
<path d="M771.91 870.22C770.39 872.8 770.27 876.66 773.29 878.67C772.08 886.62 783.15 885.98 783.7 889.32C780.66 892.06 785.73 894.78 783.77 897.88C782.32 897.35 781.78 895.97 779.96 894.24C776.51 899.62 779.78 904.59 778.76 909.68C778.1 909.6 777.48 909.41 776.88 909.81C775.93 906.43 772.48 894.85 769.53 894.32C768.41 894.12 766.46 893.16 766.51 896.06C766.54 897.85 767.21 901.81 765 901C765.1 898.74 764.46 896.16 763.26 894.36C762.74 893.58 761.07 892.82 760.64 891.7L751.8 868.92C749.42 867.7 745.35 870.41 744 867C746.83 866.64 749.68 866.76 753.14 865.73C749.41 857.13 748.65 834.6 746.12 829.02C746.36 828.56 748.84 829.06 748.88 828.47C749.14 824.63 750.06 820.42 749.75 817L763.14 819.47C761.11 821.57 758.92 821.88 758.43 823.07C758.82 822.11 766.76 867.83 771.92 870.2L771.91 870.22Z" fill="#B7DAF7"/>
<path d="M764.44 868.09C759.2 866.43 764.09 863.43 762.42 861.47C758.05 853.05 754.87 843.48 756.25 832.96C764.16 843.97 763.67 856.32 764.44 868.09Z" fill="#3E99E4"/>
<path d="M625.5 741.75C636.81 746.06 648.47 747.28 662.13 749.95C644.62 756.92 627.18 753.94 609.82 753.99C599.65 754.02 589.52 750.15 579.16 747.23L562.32 742.48C561.82 741.59 564.07 738.74 565.91 738.83C579.46 739.48 612.62 736.85 625.5 741.76V741.75Z" fill="#3C337A"/>
<path d="M689.3 750.28C688.88 752.74 685.48 752.6 683.85 753.76C685.95 749.06 669.04 755.99 672.01 748.62C677.51 749.12 683.8 751.01 689.3 750.28Z" fill="#DBA2D2"/>
<path d="M785.53 889.81C785.44 891.59 787.74 892.33 789.03 892.99C788.56 894.23 789.5 895.5 791.5 897C793.5 902.5 794.88 906.62 796.76 912.57C800.09 923.12 803.26 932.87 809.96 941.27C812.07 943.91 810.81 948.35 813.56 951.39C820.48 959.05 825.72 970.69 830.47 972.17C829.5 972.83 828.02 971.87 827.27 972.03C826.52 972.19 826.67 974.38 825.77 975.27C815.24 972.91 808.49 963.09 802.81 954.66C810.13 948.2 796.06 942.11 793.06 926.08C789.35 926.94 789.78 929.71 789.12 931.24C786.82 927.38 783.37 923.46 782.38 918.64C785.74 918.38 786.93 919.45 787.3 918.11C787.64 916.9 787.74 915.77 787.44 914.78C787.97 916.54 776.62 909.28 778.5 909.5C779.52 904.41 776.55 898.37 780 892.99C781.82 894.73 782.05 896.98 783.5 897.5C785.51 897 780.45 892.23 783.5 889.5C784.06 889.27 784.96 889.81 785.51 889.81H785.53Z" fill="#8FCFF7"/>
<path d="M802.82 954.649C800.38 951.029 796.06 949.349 794.2 942.909C793.16 939.299 790.86 934.139 789.14 931.229C789.8 929.689 789.37 926.929 793.08 926.069C796.07 942.099 810.15 948.189 802.83 954.649H802.82Z" fill="#68BFF2"/>
<defs>
<linearGradient id="paint0_linear_596_5" x1="559.98" y1="-608.596" x2="1910.32" y2="1339.25" gradientUnits="userSpaceOnUse">
<stop offset="0.3" stop-color="#1B1D48"/>
<stop offset="0.653494" stop-color="#77468A"/>
<stop offset="0.8" stop-color="#D180B2"/>
<stop offset="0.86" stop-color="#F9AEB9"/>
<stop offset="1" stop-color="#FEC9B4"/>
</linearGradient>
<linearGradient id="paint1_linear_596_5" x1="563.17" y1="-340.27" x2="883.54" y2="768.84" gradientUnits="userSpaceOnUse">
<stop offset="0.3" stop-color="#1B1D48"/>
<stop offset="0.63" stop-color="#77468A"/>
<stop offset="0.8" stop-color="#D180B2"/>
<stop offset="0.86" stop-color="#F9AEB9"/>
<stop offset="1" stop-color="#FEC9B4"/>
</linearGradient>
<linearGradient id="paint2_linear_596_5" x1="127.85" y1="659.83" x2="595.52" y2="926.83" gradientUnits="userSpaceOnUse">
<stop offset="0.34" stop-color="#21204D"/>
<stop offset="1" stop-color="#373D8B"/>
</linearGradient>
<linearGradient id="paint3_linear_596_5" x1="827.62" y1="872.24" x2="1070.8" y2="941.74" gradientUnits="userSpaceOnUse">
<stop stop-color="#906DC2"/>
<stop offset="1" stop-color="#5158B2"/>
</linearGradient>
<linearGradient id="paint4_linear_596_5" x1="646.04" y1="793.18" x2="362.53" y2="871.8" gradientUnits="userSpaceOnUse">
<stop stop-color="#40418F"/>
<stop offset="1" stop-color="#2B2659"/>
</linearGradient>
<linearGradient id="paint5_linear_596_5" x1="-151.19" y1="817.72" x2="625.67" y2="853.08" gradientUnits="userSpaceOnUse">
<stop offset="0.17" stop-color="#D87A97"/>
<stop offset="0.77" stop-color="#906DC2"/>
</linearGradient>
<linearGradient id="paint6_linear_596_5" x1="1377.79" y1="670.91" x2="800.06" y2="894.18" gradientUnits="userSpaceOnUse">
<stop offset="0.4" stop-color="#271C47"/>
<stop offset="1" stop-color="#5D4FA5"/>
</linearGradient>
<linearGradient id="paint7_linear_596_5" x1="750" y1="832.503" x2="1305" y2="832.503" gradientUnits="userSpaceOnUse">
<stop stop-color="#6862C3"/>
<stop offset="1" stop-color="#242455"/>
</linearGradient>
<linearGradient id="paint8_linear_596_5" x1="750" y1="832.721" x2="1179.5" y2="828.218" gradientUnits="userSpaceOnUse">
<stop stop-color="#6862C3"/>
<stop offset="1" stop-color="#271C47"/>
</linearGradient>
<linearGradient id="paint9_linear_596_5" x1="1165.18" y1="767.239" x2="1165.18" y2="890.601" gradientUnits="userSpaceOnUse">
<stop stop-color="#F39CB0"/>
<stop offset="1" stop-color="#D27591"/>
</linearGradient>
</defs>
</svg>
