<svg width="1440" height="750" viewBox="0 0 1440 750" fill="none" xmlns="http://www.w3.org/2000/svg">
<path d="M16.546 230.5L65.6123 218C65.7792 218.833 72.2213 220.9 96.6543 222.5C127.196 224.5 133.704 226 173.258 230.5C206.503 233.7 243.853 231.833 258.373 230.5L293.42 234L332.473 237.5L385.545 242L454.138 253.5C466.154 255.333 492.089 259.8 499.699 263C507.31 266.2 522.897 267.667 529.74 268L582.311 277.5C591.991 276.333 615.356 274.7 631.377 277.5C647.399 280.3 672.433 280.667 682.947 280.5L772.568 285H792.095C800.773 286.5 817.83 289.4 816.628 289C815.25 288.541 837.892 288.924 840.094 288.991C840.405 288.817 866 286.287 879.213 285H920.268L965.83 280.5L982.853 275.5L1138.06 262L1254.22 254.5L1294.77 262H1336.33L1386.9 271.5L1419.44 275.5L1450.48 280.5L1454.49 362.5H-15.998V230.5H16.546Z" fill="#0B203D"/>
<path d="M1461 345.5L1354.86 322L1427.95 310L1456.99 307L1461 345.5Z" fill="#102444"/>
<path d="M1162.1 316.5L1108.02 304L1089.5 312.5L1093.5 331.5L1112.53 339L1163.6 334L1207.66 321.5C1195.98 320.5 1172.61 318.4 1172.61 318C1172.61 317.6 1165.6 316.833 1162.1 316.5Z" fill="#1E2F59"/>
<path d="M810.12 321C764.859 325.8 751.207 326.667 750.039 326.5L747.035 350L932.786 344L1097.01 321.5L1153.08 315.5L1125.05 309.5C1105.42 305.1 1100.85 305.333 1101.01 306H1041.93L998.375 302.5C992.534 301.333 977.947 299 966.332 299C952.313 300.5 936.291 302 914.762 306L913.793 306.18C892.433 310.15 865.851 315.09 810.12 321Z" fill="url(#paint0_linear_1025_198)"/>
<path d="M779.385 332.5H743V357.5L885.606 368L1037.01 373L1118 360L1099.22 335.5L1058.14 325H1013.54L961.897 328L901.451 332.5L831.615 335.5L779.385 332.5Z" fill="#14274B"/>
<path d="M1162.1 322.5L1120.54 327C1122.04 330.667 1125.05 338.1 1125.05 338.5C1125.05 338.9 1168.1 349.333 1189.63 354.5L1312.3 350.5L1380.39 356.5L1430.46 342.5L1344.84 334L1324.31 327L1288.77 314L1283.26 304L1211.16 314L1162.1 322.5Z" fill="url(#paint1_linear_1025_198)"/>
<path d="M1277.75 347.5H1231.19L1206.66 371.5L1304.79 380L1451.49 394L1447.98 339L1385.9 343L1426.45 347.5H1385.9H1277.75Z" fill="#182A52"/>
<path d="M1200.65 345L1140.57 340L1146.07 356C1150.48 368.8 1182.29 374 1197.64 375L1317.81 407L1355.36 380L1317.81 369L1296.28 364L1263.73 361L1246.71 359.5L1230.19 364L1246.71 358L1265.23 359.5L1287.77 361H1302.79L1310.3 358L1299.78 356L1279.75 354.5L1263.73 352.5L1254.22 350L1238.7 346.5H1232.69C1230.02 346 1221.78 345 1210.16 345H1200.65Z" fill="url(#paint2_linear_1025_198)"/>
<path d="M1182.12 350.881C1152.88 352.881 1143.57 351.714 1142.57 350.881L1145.57 395.881L1182.12 403.381C1219.37 430.981 1270.41 416.881 1291.27 406.381L1349.35 392.381C1345.85 387.381 1332.63 376.881 1307.79 374.881C1282.96 372.881 1283.09 372.048 1286.26 371.881H1274.75L1234.69 361.881H1224.68L1231.69 359.381L1239.7 353.381H1253.22C1241.7 351.548 1211.36 348.481 1182.12 350.881Z" fill="#16284D"/>
<path d="M1181.63 379C1164.41 374.2 1151.76 367.667 1147.59 365C1147.09 365.5 1145.99 370 1145.59 384C1145.18 398 1155.77 403.5 1161.11 404.5H1206.67L1232.2 399L1224.19 390.5C1221.69 388.667 1209.67 383.8 1181.63 379Z" fill="#1A2B52"/>
<path d="M854.179 342L849.172 345V349L875.207 362.5L934.788 370.5L972.338 366C967.332 363.833 955.616 359.5 948.807 359.5C941.997 359.5 933.953 358.167 930.782 357.5L917.264 355.5C913.759 354.333 903.946 351.2 892.731 348C878.712 344 883.719 345 865.194 343.5C858.384 342.3 855.013 342 854.179 342Z" fill="#1F2F5B"/>
<path d="M766.562 373L853.68 366H892.232C891.731 366 933.788 376 933.788 376.5C933.788 376.9 956.819 374.333 968.335 373C986.648 375.966 1023.16 381.765 1024.38 381.511C1024.41 381.495 1024.42 381.492 1024.41 381.5C1024.41 381.505 1024.4 381.508 1024.38 381.511C1023.13 382.245 984.434 408.622 964.83 422L849.174 450L764.058 398.5L754.045 387L766.562 373Z" fill="url(#paint3_linear_1025_198)"/>
<path d="M807.116 374.5L761.555 380.5L750.039 342H847.671H855.682V344L857.184 348L869.2 350.5L886.223 357L907.252 363C912.759 363.667 923.874 365 924.275 365C924.675 365 933.788 366.333 938.294 367L990.865 363L1042.43 360L1085.99 350.5V386L1061.46 395.5L976.846 377L940.296 380.5L910.756 377L886.223 371H863.693L807.116 374.5Z" fill="url(#paint4_linear_1025_198)"/>
<path d="M776.352 341L848.45 343L776.352 349L744.309 351.5V332.953C742.222 330.996 743.031 329.094 744.309 328V332.953C746.037 334.574 749.75 336.232 756.826 337.5L776.352 341Z" fill="#1C2D57"/>
<path d="M1251.19 393.699L1173.61 406.784L1251.19 436.477L1456.99 440V367.529L1437.6 363L1357.86 375.078L1251.19 393.699Z" fill="#071C35"/>
<path d="M-16 272.282C-2.71304 267.865 23.9605 259.474 24.3591 261.241C24.7577 263.007 46.4487 269.338 57.2443 272.282C63.9718 273.9 76.6829 277.173 76.8021 278.039C78.9942 276.678 97.9579 266.59 108.067 261.241C120.69 264.921 146.034 272.282 146.433 272.282H166.363C165.965 272.282 189.45 268.356 201.242 266.393L232.134 261.241H278.97L324.312 266.393L496.71 272.282H518.634C518.235 272.282 544.045 297.309 557 309.822L496.71 320.864L312.852 393L157.395 351.779L-16 339.266V272.282Z" fill="#051833"/>
<path d="M366.739 294.373H335.348L318 332.988L377.478 335.997H463.391L549.304 336.499L642.652 337L679 329.478L674.87 308.415L666.609 305.908C663.855 305.406 656.2 304.303 647.609 303.902C639.017 303.501 636.319 304.069 636.043 304.403H625.304L612.913 305.406H590.609L557.565 307.412H536.913C531.957 306.911 522.043 305.807 522.043 305.406C522.043 304.905 495.609 300.893 495.609 301.394C495.609 301.795 487.348 298.887 483.217 297.382H467.522L454.304 294.373C444.391 293.203 419.278 291.164 398.13 292.367C376.983 293.571 368.391 294.206 366.739 294.373Z" fill="url(#paint5_linear_1025_198)"/>
<path d="M503.949 327.222C495.216 327.625 491.011 332.092 490 334.274L575.516 365H658L653.755 331.252L641.625 329.237H634.347C631.516 329.069 625.977 328.734 626.462 328.734H614.939H595.531L609.48 330.245L612.513 332.763C610.895 333.267 606.205 334.274 600.383 334.274H583.401H567.025L533.668 327.222C527.401 327.055 512.683 326.82 503.949 327.222Z" fill="#1D2F59"/>
<path d="M452.401 323.849L520 326.264L460.851 335.925L361.868 348L326.861 338.943L345.365 323.652C303.538 322.677 332.199 318.315 354.625 316L345.365 323.652C350.818 323.779 357.47 323.849 365.489 323.849H452.401Z" fill="#182A51"/>
<path d="M455.707 333.03L426.47 336.556L362.624 338.57L331 374.837L377.541 384.911L522.536 397H646.646L655 360.23H620.989H600.105C590.558 359.054 571.583 356.704 572.061 356.704C572.538 356.704 550.381 351.667 539.243 349.148L524.923 344.615L517.166 338.57L522.536 334.541L517.166 333.03H499.265C499.743 333.03 497.077 330.343 495.685 329C483.155 329.504 458.213 330.612 458.691 331.015C459.168 331.418 456.901 332.526 455.707 333.03Z" fill="#13264A"/>
<path d="M416.901 371.125C403.75 373.525 386.513 377.458 379.539 379.125L383.524 389.625L525.998 417.625L624.136 413.125L639.081 389.625L601.719 387.125C578.604 386.325 568.508 384.458 566.349 383.625L535.463 379.125C525.334 378.291 505.275 376.625 506.072 376.625C506.869 376.625 489.134 372.958 480.167 371.125L459.245 368.125C454.097 367.791 438.422 367.925 416.901 371.125Z" fill="url(#paint6_linear_1025_198)"/>
<path d="M234.821 308.943C223.973 307.235 218.574 308.232 217.23 308.943L211 315.351L223.094 331.904L292.358 352.194L329.372 357L340 324.962H318.744H303.352L288.693 321.759C284.784 320.691 274.401 317.914 264.139 315.351C251.312 312.147 248.381 311.079 234.821 308.943Z" fill="#1B2C56"/>
<path d="M297.841 335.5C265.162 329.5 247.361 324 242.545 322L198.209 304H173.799L164.334 312L179.279 322L257.988 348H365.591C356.624 346.333 330.52 341.5 297.841 335.5Z" fill="#0D2140"/>
<path d="M154.371 290.5L126.474 284H118.504L120.995 290.5L148.394 303L193.726 310L219.63 316H231.586L241.051 313.5V310L219.63 305L193.726 298.5L154.371 290.5Z" fill="#1A2A54"/>
<path d="M69.6831 291L11.8965 301.5L87.1187 326.5L164.832 314.5L195.718 312C189.408 310.333 174.994 306.5 167.821 304.5C160.647 302.5 158.854 300.667 158.854 300C157.857 299.167 154.868 297.5 150.883 297.5C146.898 297.5 143.245 295.833 141.916 295L129.462 291.5L121.492 288V282L69.6831 291Z" fill="#051D37"/>
<path d="M63.2077 308.5L8.9082 298L11.399 303.5L93.5955 334L131.456 322L116.511 318.5L63.2077 308.5Z" fill="#162850"/>
<path d="M588.268 401.5C569.936 405.1 552.401 403 545.925 401.5C525.168 399.167 474.588 393.5 438.322 389.5L392.99 384.5L388.008 376L361.605 394.5L404.945 398.5L452.271 401.5L495.611 433L550.906 448.5L603.711 422L638.084 398.5C629.118 398 606.601 397.9 588.268 401.5Z" fill="#21315D"/>
<path d="M108.54 330L43.7794 313L-5.5385 289L-8.0293 347L26.8419 349.5L108.54 330Z" fill="#0B1F3B"/>
<path d="M313.434 346.913L365.242 348.913L336.349 388.413L275.075 395.413L222.768 381.413H183.414L135.59 369.413C131.273 361.913 126.624 345.013 142.565 337.413C151.332 336.213 172.122 337.913 181.421 338.913L215.296 342.913C227.252 342.079 257.44 340.913 282.548 342.913C307.655 344.913 313.6 346.413 313.434 346.913Z" fill="url(#paint7_linear_1025_198)"/>
<path d="M-7.0332 339.5L94.0933 323L133.946 311.5L164.832 308L174.297 311.5C178.116 313.5 188.345 318.3 198.707 321.5C209.069 324.7 213.652 325.833 214.648 326L230.091 330.5L236.567 334.5V337.5L220.128 343L183.264 347.5C179.611 347.333 170.312 346.9 162.341 346.5C156.112 346.187 154.346 346.058 154.188 346.016C152.093 346.217 147.391 347.059 143.909 349C141.917 350.2 143.079 350.833 143.909 351L154.869 357.5C164.334 360.333 192.928 367.8 231.586 375C270.243 382.2 278.911 382.667 278.413 382H317.767L313.284 423L220.128 434L39.2957 417.5L-7.0332 397V339.5Z" fill="url(#paint8_linear_1025_198)"/>
<path d="M175.118 416.077C237.711 421.295 272.358 421.596 281.858 421.094H295.848L206.726 461.229C137.086 493.336 90.6592 482.968 76.1509 473.771L-8.82628 440.66L-14.0078 393L46.098 403.535C95.8407 411.562 96.877 409.555 175.118 416.077Z" fill="#182952"/>
<path d="M1344.5 410H1451.5V467.5L1344.5 471.5L1222.5 446L1093 399L1154.5 362L1197.5 384L1250 404.5L1344.5 410Z" fill="url(#paint9_linear_1025_198)"/>
<path d="M1142 222H999L1000 231.5L1063 233.5L1099.5 261L1078 292.5L1112.5 336V362L1138 386.5L1146.5 383L1157 367.5L1159 359.5C1159 358.667 1159.5 356.7 1161.5 355.5C1163.5 354.3 1162.33 351.333 1161.5 350L1159 347V337L1160.5 335L1151.5 325L1150.5 322L1151.5 319.5H1149L1145.5 314L1144.5 311.5L1142 310.5L1140.5 311.5C1138.83 310.5 1135.6 308.6 1136 309C1136.4 309.4 1133.17 306.833 1131.5 305.5H1126C1126.8 305.5 1122.33 303.167 1120 302L1110.5 301L1105.5 299.5V297L1125 281L1134 272.5C1135.83 267.667 1139.5 258.1 1139.5 258.5C1139.5 259 1144.5 251.5 1142 248C1140 245.2 1141.17 229.5 1142 222Z" fill="url(#paint10_linear_1025_198)"/>
<path d="M1109 402.5L1082 391L1059 396.5L1121 441L1266 482.5L1306.5 457L1259.5 447.5C1247.83 445.167 1224.4 440.6 1224 441C1223.5 441.5 1195 433.5 1195.5 433C1195.9 432.6 1184.33 429.5 1178.5 428C1166.83 424.333 1143.6 417.1 1144 417.5C1144.4 417.9 1120.83 407.667 1109 402.5Z" fill="url(#paint11_linear_1025_198)"/>
<path d="M904.485 404.203C904.892 404.203 867.665 409.235 849 411.752L866.307 450L956.407 431.379L1018 404.203L1003.75 384.575L988.476 373C983.216 375.516 965.06 383.065 934.518 393.131C896.34 405.712 903.976 404.203 904.485 404.203Z" fill="#061C34"/>
<path d="M1023 407.5L996.5 395.5L984.5 381L981 362.5V359.5L992 356.5L1023 372.5L1075.5 388V372.5L1081.49 366.007C1081.45 365.888 1081.22 364.405 1080.5 359C1079.7 353 1076.83 347.167 1075.5 345L1068 339L1057.5 336.5L1044 334.5H1029L1020 307L1031.5 294L1043 284L1056 272H1029H991H986V258V239V224.5L991 223H996.5L1006 224.5L1041.5 232L1096 249.5L1074.5 296C1079.17 294.667 1090.3 300.9 1097.5 336.5C1104.7 372.1 1093.83 386.333 1087.5 389L1023 407.5Z" fill="#2D3671"/>
<path d="M999.5 379.547L992 359.047V356.547L1047.5 354.547L1049 364.047L1051.5 368.547L1055.5 371.547L1060 374.047L1066 374.547H1072L1074.5 373.047H1080.5C1080.9 373.047 1084 370.047 1085.5 368.547C1089.1 365.747 1091.67 363.714 1092.5 363.047L1094 358.547C1094 357.214 1094.2 353.947 1095 351.547C1095.8 349.147 1095.33 348.881 1095 349.047L1094 348.047L1093 343.047C1092.5 342.547 1091 341.447 1089 341.047C1087 340.647 1088.17 338.881 1089 338.047L1088.5 336.047C1087.67 336.214 1085.8 336.247 1085 335.047C1084.2 333.847 1083.67 333.547 1083.5 333.547C1082.5 333.714 1080.3 333.747 1079.5 332.547C1078.3 331.747 1077.33 332.214 1077 332.547L1075 330.047C1073.33 330.047 1069.4 329.747 1067 328.547C1064.6 327.347 1064.33 329.047 1064.5 330.047C1062.33 329.547 1057 328.547 1053 328.547H1042L1035.5 301.547L1072 267.047H1023H999.5V264.047V223.047H1047.5H1072C1076 223.214 1085.3 223.447 1090.5 223.047C1095.7 222.647 1096.33 224.881 1096 226.047L1111.5 229.547L1117.5 233.547L1122 238.047L1126 244.047C1126.33 246.381 1126.8 252.147 1126 256.547C1124.8 260.547 1122.83 265.214 1122 267.047L1117.5 273.547L1109.5 282.047L1101 290.047L1100 295.047V299.547C1099.67 300.047 1098.4 301.547 1096 303.547C1093.6 305.547 1097 304.381 1099 303.547L1120.5 313.047L1131.5 322.547L1140 332.547L1145 341.547V358.547L1140 369.047L1131.5 379.547L1147.5 385.547C1145 387.214 1137.6 391.647 1128 396.047C1118.49 400.406 1123.9 402.18 1127.89 402.537L1087.5 399.047L1031.5 408.547C1023 402.714 1006 390.947 1006 390.547C1006 390.147 1001.67 383.047 999.5 379.547Z" fill="#6E539F"/>
<path d="M961.5 419.583L895 438.583L932.5 464.083L1051 432.583L1085 406.083C1074.33 399.917 1053.4 387.883 1055 389.083C1057 390.583 1050.5 393.583 1020.5 402.583C996.5 409.783 971.167 416.917 961.5 419.583Z" fill="#0A1E3A"/>
<path d="M1012 432.5L975 451.5L1073 488L1252 465C1226.67 458.5 1171 443.5 1151 435.5C1131 427.5 1122.33 423.833 1120.5 423L1086 404L1052 419L1012 432.5Z" fill="#182950"/>
<path d="M430.109 392.127L315 355.522L327.166 340.631L376.298 347.456L439 367.93L430.109 392.127Z" fill="#21315D"/>
<path d="M229.722 401.416C230.232 430.9 215.48 413.701 208.04 401.416L195.924 366.435C206.977 365.81 229.212 371.932 229.722 401.416Z" fill="#0A1E39"/>
<path d="M275.637 166.47L269.26 175.84L349.611 187.709L375.757 220.816L354.712 294.526L297.319 356.992L333.03 374.482L450.368 386.976L448.455 374.482V368.861C447.393 369.069 444.247 369.36 440.165 368.861C436.084 368.361 438.465 366.154 440.165 365.113L442.078 363.239V356.992C441.228 355.118 438.635 351.37 435.064 351.37C430.6 351.37 428.049 353.244 421.034 353.244C414.019 353.244 417.208 351.37 412.744 350.121C409.173 349.121 407.43 350.537 407.004 351.37C405.729 351.995 400.5 353.244 389.786 353.244H370.655C370.145 353.244 366.191 351.995 364.278 351.37L354.712 353.244H333.03L325.378 350.121L343.234 337.003L375.757 317.638L393.613 300.148L407.004 287.03H410.193L412.744 286.405L424.223 275.161L428.049 267.665L431.237 261.419L435.064 253.923L436.339 250.799L438.89 243.303L445.267 238.931V235.808L441.441 230.186L440.803 227.062L443.991 223.314V220.816L440.803 216.443L440.165 212.07L442.078 208.322L438.89 204.574L436.977 197.703L433.15 187.709L421.672 178.963L409.555 168.969L399.99 161.473L386.598 155.226H366.191H354.712C351.099 154.81 340.3 154.227 326.016 155.226C308.16 156.475 313.899 156.475 300.507 158.349C289.794 159.849 279.463 164.388 275.637 166.47Z" fill="url(#paint12_linear_1025_198)"/>
<path d="M220.795 405.789L264.797 360.188L347.699 300.221L382.773 233.382L359.815 187.157L285.203 185.908L236.1 233.382L233.549 250.248L289.03 257.744L297.32 250.248L308.799 211.519L334.307 217.765L342.597 222.138L347.699 227.76L348.974 235.256L347.699 243.377L342.597 252.747L338.133 261.492C334.094 265.864 321.425 278.358 303.059 293.35C284.693 308.341 273.725 316.67 270.536 318.961L238.013 342.073L212.505 360.188L210.592 395.169L220.795 405.789Z" fill="#202C6A"/>
<path d="M220.795 361.438V402.041L236.1 421.405L422.948 370.183L403.817 361.438L378.308 359.564L349.612 361.438L319.002 359.564L354.713 332.703L375.12 317.711L408.918 277.108C412.532 268.363 419.887 250.872 420.397 250.872C420.907 250.872 420.185 248.374 419.759 247.125L418.484 245.875L422.948 235.256L422.31 224.012V219.639L419.759 215.267L415.933 213.393C414.658 213.185 412.107 212.393 412.107 210.894C412.107 209.895 414.658 210.061 415.933 210.269L417.209 207.146L416.571 202.774C415.933 202.149 413.893 200.525 410.832 199.026C408.281 198.026 411.044 195.694 412.745 194.653L407.005 194.028C405.73 193.195 402.669 191.155 400.628 189.656C398.588 188.156 395.952 186.116 394.889 185.283C393.613 184.658 390.935 183.034 390.425 181.535C389.915 180.036 388.512 180.077 387.874 180.286C386.386 179.245 382.9 177.162 380.859 177.162C379.329 177.162 377.671 175.913 377.033 175.288L359.815 170.916L335.582 165.918H315.813L291.58 167.792L273.087 170.916L257.782 177.787C255.019 180.286 249.364 185.283 248.854 185.283C248.216 185.283 245.028 194.028 242.477 200.9C240.436 206.397 237.8 208.604 236.738 209.02C236.525 212.768 236.227 220.264 236.738 220.264C237.248 220.264 233.974 226.927 232.274 230.259V234.007L230.998 244.626L303.059 247.749C302.847 245.667 302.549 240.003 303.059 234.007C303.569 228.01 305.397 224.845 306.248 224.012L310.074 217.141L315.813 212.768C317.726 211.935 321.553 210.394 321.553 210.894C321.553 211.394 325.804 209.853 327.93 209.02L335.582 207.771L340.046 209.02C342.384 209.853 347.954 212.143 351.525 214.642C355.096 217.141 356.414 218.182 356.626 218.39C357.689 220.889 359.815 227.135 359.815 232.133V239.629L354.713 252.122L344.51 262.741L341.322 269.612L313.262 295.223L271.174 326.457L220.795 361.438Z" fill="url(#paint13_linear_1025_198)"/>
<path d="M63.2813 417.657L3.97461 425.777L113.66 427.651L312.625 405.788L348.336 387.673L335.582 384.55L331.118 387.673L326.654 385.799H319.639C316.876 386.424 310.712 388.173 308.161 390.172C305.61 392.171 307.098 398.501 308.161 401.416H304.335L302.421 390.172L295.407 385.799H290.305L280.739 387.673L271.174 390.796L259.695 393.92L251.405 395.794H233.549H219.52C220.03 395.794 216.756 396.627 215.056 397.043L209.954 395.794L210.592 385.174C208.253 386.216 202.174 388.798 196.562 390.796C190.95 392.795 191.673 393.712 192.736 393.92C190.61 394.336 183.425 396.044 171.691 399.542C159.958 403.04 158.725 403.081 159.575 402.665H146.183C145.12 403.914 140.316 407.287 129.603 410.786C116.211 415.158 106.645 413.284 93.8913 413.284H74.1224H65.8322L63.2813 417.657Z" fill="#0A1E39"/>
<path d="M-4.87041 428.32H-70L-54.0369 477H92.1854C150.291 470.013 281.189 453.471 339.933 443.195C398.678 432.918 422.729 421.785 427.411 417.503L410.171 362.062L344.403 391.811L286.297 406.009L195.627 417.503L133.051 425.616L77.4994 428.32H-4.87041Z" fill="url(#paint14_linear_1025_198)"/>
<path d="M510.951 395.169L540.924 402.04L551.765 406.413L536.46 421.405L479.066 447.641L464.399 417.032L445.268 383.3L448.456 377.054L464.399 381.426L474.602 383.3L479.066 385.799L489.269 388.922L510.951 395.169Z" fill="url(#paint15_linear_1025_198)"/>
<path d="M222.071 441.394L93.2539 458.26H311.35L419.76 441.394L489.908 427.652L482.893 420.78L466.95 403.914L460.573 396.418V390.172L437.616 374.555L413.383 362.062L400.629 383.925L413.383 403.914L400.629 412.66L317.089 441.394H222.071Z" fill="url(#paint16_linear_1025_198)"/>
<path d="M834.536 450.337C801.704 454.413 813.588 437.479 823.635 428.503C830.475 421.467 851.465 409.434 880.707 417.586C909.948 425.737 903.15 433.598 896.097 436.509C889.257 439.42 867.368 446.262 834.536 450.337Z" fill="#2F3368"/>
<path d="M845.067 451.247L838.654 429.413H850.197L879.053 433.78C880.122 436.206 879.823 442.222 870.076 446.88C860.329 451.538 849.342 451.732 845.067 451.247Z" fill="#2F3368"/>
<path d="M120.337 496.372C88.0181 498.118 106.871 480.602 120.337 471.626L160.736 464.348C160.736 474.294 152.657 494.625 120.337 496.372Z" fill="#343977"/>
<path d="M475.783 604.339L297.436 547.882L538.337 454.728L713.357 403.211L839.797 435.674L926.308 466.725L1107.98 503.422C1062.06 522.006 940.949 565.102 823.825 588.814C748.76 610.832 560.52 608.338 475.783 604.339Z" fill="url(#paint17_linear_1025_198)"/>
<path d="M632.484 487.108C571.886 472.658 567.007 466.752 572.143 465.605L684.48 414.856L762.796 441.521L800.028 475.066C815.006 483.955 854.849 505.688 894.392 521.514C933.934 537.341 943.82 545.312 943.82 547.319C936.331 546.172 863.579 532.524 632.484 487.108Z" fill="#373B7E"/>
<path d="M141.07 491.356L303.173 477.311L485.377 429.157L628.676 366.958L706.114 349.447C708.3 348.703 710.588 348.166 712.97 347.897L706.114 349.447C689.257 355.185 678.455 373.207 677.307 374.984C676.01 376.99 722.468 395.043 707.783 405.08C684.644 420.894 601.227 454.906 563.187 473.298L383.576 555.561L320.032 570.609L185.162 565.593L131.992 541.516L141.07 491.356Z" fill="#343979"/>
<path d="M159.565 481.943L105.059 499.283L312.184 492.189L379.516 488.249L429.534 477.214L518.027 455.145C531.707 451.204 572.919 437.49 628.323 414.16C683.728 390.83 672.784 400.236 660.386 407.855L689.884 397.609C701.854 401.55 731.437 411.638 754.009 420.466C776.581 429.293 780.942 429.398 780.301 428.347L824.547 434.653H859.816H904.063L863.023 423.618C858.106 423.618 843.016 421.727 821.982 414.16C800.949 406.594 787.996 399.973 784.148 397.609L757.216 381.057L738.619 358.2V337.708L612.933 374.752L509.05 407.067L352.583 448.84L159.565 481.943Z" fill="url(#paint18_linear_1025_198)"/>
<path d="M78.3637 448.269L14 457.747L103.578 487.638H218.371L319.23 470.87L428.715 448.269L521.611 407.443L619.152 381.926L682.188 270.382L641.712 55.314H593.937C590.177 72.811 584.913 110.721 593.937 122.386L633.086 136.967V179.981V270.382L593.937 337.454C577.127 344.745 543.508 359.034 543.508 357.868C543.508 356.702 517.851 373.421 505.022 381.926L437.341 407.443C397.97 416.192 319.23 433.251 319.23 431.501C319.23 429.314 216.381 448.269 218.371 448.269H137.419H78.3637Z" fill="url(#paint19_linear_1025_198)"/>
<path d="M752.084 0H678.34L719.38 360.998L739.9 384.288L762.344 399.572L789.918 411.217L831.6 425.046H845.066L885.465 435.963L853.403 440.33V465.803C885.337 478.321 903.733 482.408 936.766 488.366L1023.34 503.65L1102.21 516.023L1301 478.176L1168.9 465.803C1140.8 459.551 1063.09 434.673 979.089 403.939C900.086 373.662 891.45 368.518 897.008 369.731L789.918 307.867L762.986 281.665L762.344 269.293V250.369V222.712V198.694C762.344 189.378 763.199 191.416 763.627 193.6V189.233C761.879 183.541 762.386 169.8 762.344 167.398C759.779 165.215 762.344 162.303 762.344 152.114C762.344 141.924 762.344 146.291 763.627 139.013C764.653 133.191 763.199 133.191 762.344 133.918C762.344 130.037 762.601 121.254 763.627 117.179C764.653 113.103 763.199 113.054 762.344 113.54L761.062 74.2374L762.344 57.4976L763.627 51.6751L762.344 43.6691V33.4796C759.005 26.3041 762.233 10.5829 762.344 7.27818C762.585 0.120856 752.576 0.274946 752.084 0Z" fill="url(#paint20_linear_1025_198)"/>
<path d="M607.1 53.8584L598.122 114.995L639.163 118.634L653.27 112.084L651.347 126.64C650.373 130.103 654.364 138.855 655.194 147.019C655.512 150.143 652.113 150.662 653.27 153.569L651.988 211.067V243.819L651.347 302.044C651.133 307.139 650.192 317.474 648.14 318.056C646.088 318.639 647.285 321.21 648.14 322.423L645.575 328.246L639.163 336.252L628.261 338.435L626.979 341.346L621.207 342.802C620.352 346.684 615.564 355.903 603.252 361.725C595.557 365.801 592.778 367.791 592.351 368.276L582.732 370.459C579.312 371.187 571.574 373.807 567.983 378.465C563.366 383.705 563.922 384.53 564.777 384.288V390.11H572.472L592.351 386.471L614.154 379.921L630.826 377.01L653.27 368.276L666.095 366.82L677.638 363.909L694.311 360.27H716.113H729.58L748.176 362.453L761.001 370.459H771.261L779.598 366.82L798.194 374.826H821.279L782.804 350.808L767.414 338.435C755.099 335.826 745.448 326.736 750.1 318.784C750.1 318.784 745.162 314.107 748.176 312.962L742.405 304.956C742.832 301.559 743.174 294.475 741.122 293.31L739.84 292.583C739.412 291.855 738.686 289.38 739.199 285.305C739.712 281.229 740.695 283.121 741.122 284.577C741.55 283.849 742.405 279.919 742.405 270.02C742.405 264.198 741.977 264.198 741.764 264.926C741.55 263.955 740.738 261.723 739.199 260.559C737.66 259.394 738.13 258.133 738.557 257.647C739.199 257.647 740.609 256.046 741.122 249.641C741.122 247.312 741.977 248.186 742.405 248.914L741.764 246.002V240.18L739.199 239.452L737.916 234.357C737.916 232.659 738.301 229.117 739.84 228.535C741.379 227.952 740.481 223.925 739.84 221.984V216.89C739.199 216.647 737.916 215.434 737.916 212.523C737.916 209.611 739.199 209.854 739.84 210.339V205.245C739.626 203.546 739.327 198.985 739.84 194.327C740.353 192.581 740.054 190.203 739.84 189.233C739.84 188.262 740.225 185.739 741.764 183.41C743.303 181.081 742.405 180.984 741.764 181.227C741.977 180.499 742.277 178.606 741.764 176.86C741.251 175.113 741.55 173.706 741.764 173.221L739.84 172.493C739.626 170.794 739.327 167.398 739.84 167.398C740.353 167.398 739.626 164.002 739.199 162.303V159.392C738.771 158.179 737.66 155.316 736.633 153.569C735.607 151.823 735.351 149.93 735.351 149.203V142.652H737.916C737.702 141.197 734.109 137.254 735.351 138.285C735.586 138.481 736.346 134.678 734.068 132.463L738.557 108.445L734.068 94.6162L738.557 87.3381L743.687 79.3321L738.557 69.8704V53.8584V42.2134L734.068 29.1126L727.656 18.9232L719.961 12.3728L703.288 2.9112H694.952H688.539L680.203 1.45557C670.432 17.8844 637.75 43.8563 632.75 40.7577C631.624 40.0602 610.306 48.7637 610.947 48.7637C611.46 48.7637 608.596 52.1602 607.1 53.8584Z" fill="#6E539F"/>
<path d="M1085 630.5C1022.2 645.7 1045.83 624.167 1065.5 611.5L1146 588.5C1151.83 596.167 1147.8 615.3 1085 630.5Z" fill="#5255A7"/>
<path d="M1163.38 482C1006.51 542.015 533.851 592.588 220 564.086L396.354 671.155L820.847 689L975.157 652.597L1472 482H1163.38Z" fill="#5255A7"/>
<path d="M-2 497.968V422L182.169 483.9L391.861 549.738L544 579H254.735L-2 497.968Z" fill="url(#paint21_linear_1025_198)"/>
<path d="M-2 752V677L220 752H-2Z" fill="#4E50A3"/>
<path d="M-18 564V705.171L198.897 765H577L832 682.314L601.621 671.559L455.655 655.425L300.31 639.963L-18 564Z" fill="url(#paint22_linear_1025_198)"/>
<path fill-rule="evenodd" clip-rule="evenodd" d="M725.862 681.859L508 765H1472L1462.64 653C1399.9 662.62 1211.09 686.531 957.763 705.221C907.667 718.898 775.973 695.5 725.862 681.859Z" fill="url(#paint23_linear_1025_198)"/>
<path d="M839.682 574.291C850.344 564.453 1034.14 524.558 1034.14 524.558L1450.41 424.382L1444.38 570.465L1020.43 612C945.779 611.694 829.02 584.128 839.682 574.291Z" fill="url(#paint24_linear_1025_198)"/>
<path d="M409.5 613C353.833 599 192.4 556 -8 496V598L79 613L264 648L431 668L646.5 681H967L958.5 638H887L735 648L563 638L409.5 613Z" fill="url(#paint25_linear_1025_198)"/>
<path d="M1075.57 600.364L684 695.705L902.886 715L1460 670.167V467L1075.57 600.364Z" fill="url(#paint26_linear_1025_198)"/>
<defs>
<linearGradient id="paint0_linear_1025_198" x1="747.035" y1="324.5" x2="1153.08" y2="324.5" gradientUnits="userSpaceOnUse">
<stop offset="0.2" stop-color="#09214C"/>
<stop offset="1" stop-color="#0F294C"/>
</linearGradient>
<linearGradient id="paint1_linear_1025_198" x1="1275.75" y1="307" x2="1287.24" y2="348.008" gradientUnits="userSpaceOnUse">
<stop stop-color="#02162C"/>
<stop offset="1" stop-color="#0E223F"/>
</linearGradient>
<linearGradient id="paint2_linear_1025_198" x1="1146.07" y1="348.5" x2="1348.33" y2="383.592" gradientUnits="userSpaceOnUse">
<stop stop-color="#162950"/>
<stop offset="1" stop-color="#323964"/>
</linearGradient>
<linearGradient id="paint3_linear_1025_198" x1="876.711" y1="366" x2="929.697" y2="430.07" gradientUnits="userSpaceOnUse">
<stop stop-color="#17294F"/>
<stop offset="1" stop-color="#23315D"/>
</linearGradient>
<linearGradient id="paint4_linear_1025_198" x1="806.115" y1="342" x2="1086.48" y2="374.587" gradientUnits="userSpaceOnUse">
<stop stop-color="#0E213F"/>
<stop offset="1" stop-color="#102444"/>
</linearGradient>
<linearGradient id="paint5_linear_1025_198" x1="318" y1="314.5" x2="679" y2="314.5" gradientUnits="userSpaceOnUse">
<stop stop-color="#0B203B"/>
<stop offset="1" stop-color="#102445"/>
</linearGradient>
<linearGradient id="paint6_linear_1025_198" x1="379.539" y1="384.5" x2="576.326" y2="403.362" gradientUnits="userSpaceOnUse">
<stop stop-color="#0D213F"/>
<stop offset="1" stop-color="#182A51"/>
</linearGradient>
<linearGradient id="paint7_linear_1025_198" x1="131.455" y1="366.206" x2="365.242" y2="366.206" gradientUnits="userSpaceOnUse">
<stop stop-color="#1F2E5A"/>
<stop offset="1" stop-color="#172950"/>
</linearGradient>
<linearGradient id="paint8_linear_1025_198" x1="96.086" y1="322.5" x2="226.51" y2="433.525" gradientUnits="userSpaceOnUse">
<stop stop-color="#041C35"/>
<stop offset="1" stop-color="#102344"/>
</linearGradient>
<linearGradient id="paint9_linear_1025_198" x1="1150" y1="362" x2="1452" y2="417" gradientUnits="userSpaceOnUse">
<stop stop-color="#866088"/>
<stop offset="1" stop-color="#192B52"/>
</linearGradient>
<linearGradient id="paint10_linear_1025_198" x1="1080.8" y1="222" x2="1080.8" y2="386.5" gradientUnits="userSpaceOnUse">
<stop stop-color="#E59BBB"/>
<stop offset="1" stop-color="#AD7AB3"/>
</linearGradient>
<linearGradient id="paint11_linear_1025_198" x1="1073" y1="397.5" x2="1282" y2="472" gradientUnits="userSpaceOnUse">
<stop stop-color="#6C547E"/>
<stop offset="1" stop-color="#29345F"/>
</linearGradient>
<linearGradient id="paint12_linear_1025_198" x1="359.814" y1="154.674" x2="359.814" y2="386.976" gradientUnits="userSpaceOnUse">
<stop stop-color="#E89DBC"/>
<stop offset="1" stop-color="#A676B3"/>
</linearGradient>
<linearGradient id="paint13_linear_1025_198" x1="334.307" y1="165.918" x2="322.374" y2="421.429" gradientUnits="userSpaceOnUse">
<stop stop-color="#6E539F"/>
<stop offset="1" stop-color="#22386E"/>
</linearGradient>
<linearGradient id="paint14_linear_1025_198" x1="-70" y1="419.531" x2="408.966" y2="402.643" gradientUnits="userSpaceOnUse">
<stop stop-color="#242B53"/>
<stop offset="1" stop-color="#2D3267"/>
</linearGradient>
<linearGradient id="paint15_linear_1025_198" x1="498.516" y1="377.054" x2="493.314" y2="439.538" gradientUnits="userSpaceOnUse">
<stop offset="0.257842" stop-color="#AF7CB6"/>
<stop offset="1" stop-color="#A579B7"/>
</linearGradient>
<linearGradient id="paint16_linear_1025_198" x1="423.586" y1="402.04" x2="489.864" y2="410.498" gradientUnits="userSpaceOnUse">
<stop stop-color="#2B2F64"/>
<stop offset="1" stop-color="#BB7FB6"/>
</linearGradient>
<linearGradient id="paint17_linear_1025_198" x1="297.436" y1="544.354" x2="980.855" y2="484.682" gradientUnits="userSpaceOnUse">
<stop stop-color="#3B4086"/>
<stop offset="1" stop-color="#6259A8"/>
</linearGradient>
<linearGradient id="paint18_linear_1025_198" x1="105.059" y1="418.495" x2="904.063" y2="418.495" gradientUnits="userSpaceOnUse">
<stop offset="0.2" stop-color="#343977"/>
<stop offset="1" stop-color="#2F3368"/>
</linearGradient>
<linearGradient id="paint19_linear_1025_198" x1="617.825" y1="55.314" x2="-3.74689" y2="401.211" gradientUnits="userSpaceOnUse">
<stop stop-color="#333975"/>
<stop offset="0.5" stop-color="#122A5D"/>
<stop offset="0.538042" stop-color="#142A5D"/>
<stop offset="0.75" stop-color="#1D2B5B"/>
<stop offset="0.875" stop-color="#2B3065"/>
<stop offset="1" stop-color="#363A7F"/>
</linearGradient>
<linearGradient id="paint20_linear_1025_198" x1="718.739" y1="9.46171" x2="1335.96" y2="405.074" gradientUnits="userSpaceOnUse">
<stop stop-color="#F1A3BE"/>
<stop offset="0.5" stop-color="#A073B3"/>
<stop offset="1" stop-color="#7D68AE"/>
</linearGradient>
<linearGradient id="paint21_linear_1025_198" x1="18.0183" y1="458.577" x2="542.497" y2="555.098" gradientUnits="userSpaceOnUse">
<stop stop-color="#4F4FA4"/>
<stop offset="0.6" stop-color="#7163AE"/>
</linearGradient>
<linearGradient id="paint22_linear_1025_198" x1="-18" y1="664.5" x2="832" y2="664.5" gradientUnits="userSpaceOnUse">
<stop stop-color="#373C7D"/>
<stop offset="1" stop-color="#444992"/>
</linearGradient>
<linearGradient id="paint23_linear_1025_198" x1="1464.2" y1="725.834" x2="517.174" y2="741.182" gradientUnits="userSpaceOnUse">
<stop stop-color="#1F2E67"/>
<stop offset="1" stop-color="#333975"/>
</linearGradient>
<linearGradient id="paint24_linear_1025_198" x1="1016.2" y1="612" x2="1460.74" y2="446.608" gradientUnits="userSpaceOnUse">
<stop stop-color="#313770"/>
<stop offset="1" stop-color="#1A2858"/>
</linearGradient>
<linearGradient id="paint25_linear_1025_198" x1="-8" y1="529.5" x2="967" y2="681.5" gradientUnits="userSpaceOnUse">
<stop offset="0.2" stop-color="#131A52"/>
<stop offset="0.5" stop-color="#3B4185"/>
<stop offset="1" stop-color="#4B4F9F"/>
</linearGradient>
<linearGradient id="paint26_linear_1025_198" x1="697.749" y1="693.435" x2="1460.77" y2="597.137" gradientUnits="userSpaceOnUse">
<stop stop-color="#2C3464"/>
<stop offset="1" stop-color="#132A62"/>
</linearGradient>
</defs>
</svg>
