<svg width="43" height="52" viewBox="0 0 43 52" fill="none" xmlns="http://www.w3.org/2000/svg">
<g filter="url(#filter0_d_982_3867)">
<mask id="mask0_982_3867" style="mask-type:luminance" maskUnits="userSpaceOnUse" x="0" y="0" width="43" height="47">
<path d="M0 0V47H42.6457V0H0Z" fill="white"/>
<path d="M0.5 0.5H42.1455V46.5H0.5V0.5Z" stroke="white"/>
</mask>
<g mask="url(#mask0_982_3867)">
<path d="M26.6538 11.7503C26.6547 12.2085 26.5101 12.6511 26.2451 13.0036L18.2846 23.5003L25.9608 34.0165C26.1085 34.2163 26.2187 34.4474 26.2851 34.6961C26.3517 34.9428 26.3732 35.2013 26.3484 35.4579C26.3237 35.7144 26.2531 35.9631 26.1408 36.1903C26.0285 36.4175 25.8768 36.6172 25.6943 36.7778C25.5125 36.9403 25.3034 37.0617 25.0789 37.1362C24.8543 37.2086 24.6191 37.2321 24.3861 37.2047C24.1534 37.1773 23.9277 37.1009 23.7223 36.9756C23.5167 36.8522 23.3354 36.6858 23.1889 36.4841L14.6064 24.7341C14.345 24.3835 14.2021 23.9448 14.2021 23.4905C14.2021 23.0381 14.345 22.5975 14.6064 22.247L23.4909 10.497C23.6402 10.2992 23.8234 10.1347 24.03 10.0152C24.2369 9.89575 24.4631 9.82135 24.6957 9.79785C24.9284 9.77435 25.1632 9.7998 25.3863 9.87617C25.6095 9.9545 25.8169 10.0779 25.9964 10.2424C26.2002 10.4245 26.3649 10.6556 26.4786 10.9161C26.5922 11.1765 26.652 11.4605 26.6538 11.7503Z" fill="white" fill-opacity="0.5"/>
<path d="M14.7021 23.4902C14.7022 23.1428 14.8112 22.809 15.0039 22.5488H15.0049L23.8896 10.7988V10.7979C24.0009 10.6504 24.1349 10.5323 24.2803 10.4482C24.4281 10.3629 24.5866 10.311 24.7461 10.2949C24.9091 10.2785 25.0715 10.2972 25.2246 10.3496C25.3825 10.4056 25.5297 10.4935 25.6582 10.6113L25.6631 10.6152C25.8103 10.7468 25.9339 10.918 26.0205 11.1162C26.1064 11.3135 26.1519 11.5302 26.1533 11.7529C26.1537 12.1055 26.0429 12.4404 25.8467 12.7021V12.7012L17.8857 23.1982L17.6611 23.4941L17.8809 23.7949L25.5566 34.3115L25.5586 34.3135C25.6675 34.4608 25.7509 34.6347 25.8018 34.8252L25.8027 34.8262C25.8535 35.0142 25.8696 35.2123 25.8506 35.4092V35.4102C25.8316 35.6071 25.7774 35.7969 25.6924 35.9688C25.6077 36.14 25.4955 36.2868 25.3643 36.4023L25.3613 36.4053L25.2588 36.4873C25.1886 36.5383 25.1148 36.5816 25.0381 36.6162L24.9219 36.6611C24.7658 36.711 24.6038 36.7268 24.4443 36.708C24.2821 36.6889 24.1252 36.636 23.9824 36.5488L23.9795 36.5469C23.8332 36.4591 23.7019 36.3391 23.5938 36.1904L23.5928 36.1895L15.0098 24.4395L15.0068 24.4355C14.8123 24.1747 14.7021 23.8411 14.7021 23.4902Z" stroke="#002440" stroke-opacity="0.5"/>
</g>
</g>
<defs>
<filter id="filter0_d_982_3867" x="10.2021" y="9.78906" width="20.4521" height="41.4268" filterUnits="userSpaceOnUse" color-interpolation-filters="sRGB">
<feFlood flood-opacity="0" result="BackgroundImageFix"/>
<feColorMatrix in="SourceAlpha" type="matrix" values="0 0 0 0 0 0 0 0 0 0 0 0 0 0 0 0 0 0 127 0" result="hardAlpha"/>
<feOffset dy="10"/>
<feGaussianBlur stdDeviation="2"/>
<feComposite in2="hardAlpha" operator="out"/>
<feColorMatrix type="matrix" values="0 0 0 0 0 0 0 0 0 0 0 0 0 0 0 0 0 0 0.25 0"/>
<feBlend mode="normal" in2="BackgroundImageFix" result="effect1_dropShadow_982_3867"/>
<feBlend mode="normal" in="SourceGraphic" in2="effect1_dropShadow_982_3867" result="shape"/>
</filter>
</defs>
</svg>
