<svg width="1440" height="960" viewBox="0 0 1440 960" fill="none" xmlns="http://www.w3.org/2000/svg">
<path d="M177.028 764.633C126.257 782.783 103.386 796.183 0 784.017V960H1440V784.017C1084.36 784.971 902.134 776.489 638.82 728.927C390.529 794.051 309.43 786.795 177.028 764.633Z" fill="url(#paint0_linear_1110_11)"/>
<path d="M0 784.017C103.386 796.183 126.257 782.783 177.028 764.633C309.43 786.795 390.529 794.051 638.82 728.927C902.134 776.489 1084.36 784.971 1440 784.017V671.286L1270.56 608.544C1181.69 634.478 1126.56 645.772 1019.68 660.574C899.483 640.298 840.675 619.658 745.037 572.837C633.98 647.985 576.684 664.914 488.093 626.397C354.041 650.615 285.862 642.197 187.144 554.984C109.965 572.902 63.9814 585.977 0 589.16V784.017Z" fill="#041433"/>
<path d="M0 589.16C63.9814 585.977 109.965 572.902 187.144 554.984C285.862 642.197 354.041 650.615 488.093 626.397C576.684 664.914 633.98 647.985 745.037 572.837C840.675 619.658 899.483 640.298 1019.68 660.574C1126.56 645.772 1181.69 634.478 1270.56 608.544L1440 671.286V0H0V589.16Z" fill="url(#paint1_linear_1110_11)"/>
<defs>
<linearGradient id="paint0_linear_1110_11" x1="720" y1="0" x2="720" y2="960" gradientUnits="userSpaceOnUse">
<stop stop-color="#77A7FF"/>
<stop offset="0.605769" stop-color="#375C92"/>
<stop offset="1" stop-color="#022642"/>
</linearGradient>
<linearGradient id="paint1_linear_1110_11" x1="720" y1="0" x2="720" y2="960" gradientUnits="userSpaceOnUse">
<stop stop-color="#272237"/>
<stop offset="1" stop-color="#0060C3"/>
</linearGradient>
</defs>
</svg>
