<svg width="236" height="470" viewBox="0 0 236 470" fill="none" xmlns="http://www.w3.org/2000/svg">
<g filter="url(#filter0_f_1932_3)">
<path d="M162.009 457.901C171.659 457.881 181.309 456.617 190.592 454.151C193.188 453.458 196.001 452.49 197.245 450.258C198.327 448.301 197.883 445.947 197.429 443.786C168.641 308.505 183.733 168.637 205.023 32.1536C205.986 26.0082 206.43 18.5684 201.118 14.8383C199.376 13.6154 197.245 13.0039 195.135 12.4841C181.028 9.03943 165.936 9.18207 151.905 12.8816C150.239 13.3198 148.486 13.8701 147.415 15.1339C146.203 16.5607 146.138 18.5276 146.138 20.3417C145.652 145.279 145.965 270.236 144.689 395.163C144.494 413.293 133.524 457.952 162.009 457.901Z" fill="#9CD4FF"/>
</g>
<g filter="url(#filter1_f_1932_3)">
<path d="M189.931 36.721C188.773 32.3896 188.178 27.8035 186.404 23.625C163.61 21.016 139.636 24.6849 120.087 34.5197C149.968 149.469 142.568 269.748 131.598 387.592C130.181 402.818 128.688 418.126 124.49 432.893C136.899 439.538 151.006 444.043 165.287 445.103C165.86 441.169 167.18 437.347 167.905 433.433C168.089 432.455 169.527 432.047 170.35 432.536C175.91 435.91 180.811 440.129 185.604 444.389L185.614 444.399C199.321 442.687 212.715 438.814 225.405 433.637C216.566 406.885 213.169 378.777 210.162 350.923C198.737 245.299 204.893 139.971 226 35.6611C216.772 30.6673 206.462 27.141 195.719 25.062C195.005 28.9857 193.977 32.8584 193.122 36.7617C192.787 38.3007 190.31 38.1376 189.931 36.721Z" fill="#9CD4FF"/>
</g>
<g filter="url(#filter2_f_1932_3)">
<path d="M41.2395 34.5826C40.9069 39.7165 40.4671 44.8706 39.1583 49.8832C38.7506 51.4497 36.5836 51.1869 36.0579 49.8832C34.32 45.568 31.9384 41.5154 29.589 37.473C22.8841 39.4235 16.3294 41.8287 10 44.719C33.9553 173.551 38.8901 305.152 16.072 434.045C31.0373 438.684 46.3781 442.605 62.03 444.05C63.7572 439.391 65.184 434.641 66.7395 429.932C67.1257 428.749 68.4882 428.567 69.4322 429.265C71.5992 430.861 72.4789 433.974 73.1011 436.369C73.7877 438.987 74.2705 441.746 74.2812 444.444C74.2812 444.454 74.2705 444.474 74.2705 444.484C89.9117 443.767 105.167 437.693 118.877 430.407C98.0112 324.404 102.581 215.572 108.728 107.912C110.101 83.9406 111.56 59.8579 116.989 36.4118C92.3898 30.2472 66.0637 29.4387 41.2395 34.5826Z" fill="#9CD4FF"/>
</g>
<g filter="url(#filter3_f_1932_3)">
<path d="M89.0324 19.253C70.6771 11.8655 49.672 16.4839 31.5098 24.2656C34.5994 50.8546 36.5089 77.5649 37.2063 104.295C37.6246 120.223 37.6246 136.15 37.6246 152.077C37.6139 252.915 38.8369 351.924 38.8261 452.762C56.3983 463.202 80.772 462.262 97.368 450.499C87.8524 314.774 89.3435 180.232 96.8316 44.3969C97.2929 36.019 97.2178 22.5476 89.0324 19.253Z" fill="#9CD4FF"/>
</g>
<defs>
<filter id="filter0_f_1932_3" x="132.452" y="0" width="83.1675" height="467.901" filterUnits="userSpaceOnUse" color-interpolation-filters="sRGB">
<feFlood flood-opacity="0" result="BackgroundImageFix"/>
<feBlend mode="normal" in="SourceGraphic" in2="BackgroundImageFix" result="shape"/>
<feGaussianBlur stdDeviation="5" result="effect1_foregroundBlur_1932_3"/>
</filter>
<filter id="filter1_f_1932_3" x="110.087" y="12.8105" width="125.913" height="442.292" filterUnits="userSpaceOnUse" color-interpolation-filters="sRGB">
<feFlood flood-opacity="0" result="BackgroundImageFix"/>
<feBlend mode="normal" in="SourceGraphic" in2="BackgroundImageFix" result="shape"/>
<feGaussianBlur stdDeviation="5" result="effect1_foregroundBlur_1932_3"/>
</filter>
<filter id="filter2_f_1932_3" x="0" y="21.1992" width="128.877" height="433.285" filterUnits="userSpaceOnUse" color-interpolation-filters="sRGB">
<feFlood flood-opacity="0" result="BackgroundImageFix"/>
<feBlend mode="normal" in="SourceGraphic" in2="BackgroundImageFix" result="shape"/>
<feGaussianBlur stdDeviation="5" result="effect1_foregroundBlur_1932_3"/>
</filter>
<filter id="filter3_f_1932_3" x="21.5098" y="5.52832" width="85.8584" height="464.472" filterUnits="userSpaceOnUse" color-interpolation-filters="sRGB">
<feFlood flood-opacity="0" result="BackgroundImageFix"/>
<feBlend mode="normal" in="SourceGraphic" in2="BackgroundImageFix" result="shape"/>
<feGaussianBlur stdDeviation="5" result="effect1_foregroundBlur_1932_3"/>
</filter>
</defs>
</svg>
