<svg width="193" height="426" viewBox="0 0 193 426" fill="none" xmlns="http://www.w3.org/2000/svg">
<rect x="32" y="23.0029" width="125" height="376" fill="url(#paint0_linear_1932_2)"/>
<path d="M135.582 423.951C144.189 423.932 152.796 422.736 161.075 420.401C163.391 419.745 165.9 418.829 167.009 416.716C167.974 414.864 167.579 412.636 167.173 410.591C141.497 282.544 154.957 150.156 173.947 20.9703C174.806 15.1535 175.202 8.1116 170.464 4.58099C168.91 3.4234 167.009 2.84464 165.128 2.35266C152.545 -0.907837 139.084 -0.772827 126.569 2.72885C125.083 3.14365 123.52 3.66455 122.565 4.86072C121.484 6.21121 121.426 8.073 121.426 9.79007C120.992 128.046 121.272 246.321 120.133 364.568C119.959 381.729 110.175 423.999 135.582 423.951Z" fill="url(#paint1_linear_1932_2)"/>
<mask id="mask0_1932_2" style="mask-type:luminance" maskUnits="userSpaceOnUse" x="118" y="0" width="57" height="424">
<path d="M135.582 423.95C144.189 423.931 152.796 422.735 161.075 420.4C163.391 419.744 165.9 418.828 167.009 416.715C167.974 414.863 167.579 412.635 167.173 410.59C141.497 282.543 154.957 150.155 173.947 20.9693C174.806 15.1525 175.202 8.11063 170.464 4.58002C168.91 3.42242 167.009 2.84366 165.128 2.35168C152.545 -0.908813 139.084 -0.773804 126.569 2.72787C125.083 3.14267 123.52 3.66357 122.565 4.85974C121.484 6.21024 121.426 8.07202 121.426 9.78909C120.992 128.045 121.272 246.32 120.133 364.567C119.959 381.728 110.175 423.998 135.582 423.95Z" fill="white"/>
</mask>
<g mask="url(#mask0_1932_2)">
<path d="M132.098 434.195C124.842 425.581 121.677 413.369 120.731 402.362C120.191 396.101 120.789 390.014 121.368 383.783C122.082 376.066 122.777 368.339 123.452 360.612C126.183 329.232 128.499 297.814 130.149 266.357C131.789 235.063 132.774 203.722 132.822 172.381C132.87 141.088 131.992 109.794 129.908 78.5689C128.866 62.8837 127.495 47.2275 125.836 31.6003C124.466 18.6643 122.912 5.00494 126.82 -7.65121C127.775 -10.7574 129.097 -13.6899 130.757 -16.4874C132.339 -19.1691 128.171 -21.5903 126.588 -18.9182C119.728 -7.31354 119.004 6.36511 119.892 19.5132C120.915 34.6196 122.902 49.6681 124.08 64.7648C126.579 96.7042 127.775 128.73 127.968 160.757C128.161 192.687 127.351 224.626 125.816 256.517C124.282 288.428 122.044 320.309 119.351 352.152C118.676 360.178 117.972 368.204 117.238 376.22C116.611 383.079 115.569 390.014 115.636 396.921C115.752 408.536 118.367 420.738 124.06 430.935C125.382 433.308 126.936 435.536 128.692 437.62C130.689 439.983 134.086 436.559 132.098 434.195Z" fill="#8ECBFF"/>
</g>
<mask id="mask1_1932_2" style="mask-type:luminance" maskUnits="userSpaceOnUse" x="118" y="0" width="57" height="424">
<path d="M135.582 423.95C144.189 423.931 152.796 422.735 161.075 420.4C163.391 419.744 165.9 418.828 167.009 416.715C167.974 414.863 167.579 412.635 167.173 410.59C141.497 282.543 154.957 150.155 173.947 20.9693C174.806 15.1525 175.202 8.11063 170.464 4.58002C168.91 3.42242 167.009 2.84366 165.128 2.35168C152.545 -0.908813 139.084 -0.773804 126.569 2.72787C125.083 3.14267 123.52 3.66357 122.565 4.85974C121.484 6.21024 121.426 8.07202 121.426 9.78909C120.992 128.045 121.272 246.32 120.133 364.567C119.959 381.728 110.175 423.998 135.582 423.95Z" fill="white"/>
</mask>
<g mask="url(#mask1_1932_2)">
<path d="M116.138 12.9341C118.589 9.94365 122.034 8.17834 125.604 6.83748C129.715 5.2844 133.951 4.04964 138.245 3.14287C146.755 1.32934 155.526 0.837384 164.192 1.58981C169.103 2.01425 173.957 2.90173 178.723 4.15577C181.724 4.94678 183.008 0.297178 180.007 -0.493832C161.963 -5.26883 142.403 -4.48746 124.871 1.98532C120.374 3.64451 115.829 5.74744 112.732 9.52886C111.902 10.5321 111.748 11.9501 112.732 12.9437C113.581 13.7829 115.308 13.9373 116.138 12.9341Z" fill="#8ECBFF"/>
</g>
<path d="M160.485 25.2936C159.453 21.1938 158.922 16.8529 157.34 12.8979C137.009 10.4284 115.626 13.9011 98.1895 23.2099C124.841 132.012 118.241 245.86 108.456 357.402C107.192 371.814 105.861 386.303 102.117 400.28C113.184 406.57 125.767 410.834 138.504 411.837C139.016 408.113 140.193 404.496 140.839 400.792C141.003 399.866 142.287 399.48 143.02 399.943C147.98 403.136 152.351 407.129 156.626 411.162L156.635 411.171C168.861 409.551 180.807 405.885 192.125 400.985C184.242 375.663 181.212 349.058 178.53 322.694C168.34 222.718 173.83 123.022 192.656 24.2903C184.425 19.5636 175.229 16.2259 165.648 14.258C165.011 17.9719 164.094 21.6375 163.332 25.3322C163.033 26.7888 160.823 26.6344 160.485 25.2936Z" fill="url(#paint2_linear_1932_2)"/>
<mask id="mask2_1932_2" style="mask-type:luminance" maskUnits="userSpaceOnUse" x="98" y="12" width="95" height="400">
<path d="M160.485 25.2926C159.453 21.1929 158.922 16.852 157.34 12.8969C137.009 10.4274 115.626 13.9001 98.1895 23.209C124.841 132.011 118.241 245.859 108.456 357.401C107.192 371.813 105.861 386.302 102.117 400.279C113.184 406.569 125.767 410.833 138.504 411.836C139.016 408.112 140.193 404.495 140.839 400.791C141.003 399.865 142.287 399.479 143.02 399.942C147.98 403.135 152.351 407.128 156.626 411.161L156.635 411.17C168.861 409.55 180.807 405.884 192.125 400.984C184.242 375.662 181.212 349.057 178.53 322.693C168.34 222.717 173.83 123.021 192.656 24.2894C184.425 19.5626 175.229 16.2249 165.648 14.257C165.011 17.9709 164.094 21.6366 163.332 25.3312C163.033 26.7878 160.823 26.6335 160.485 25.2926Z" fill="white"/>
</mask>
<g mask="url(#mask2_1932_2)">
<path d="M94.3589 -15.86C92.1781 -15.0979 90.3448 -13.0143 90.7886 -10.1396C92.2071 -1.00443 93.529 8.14041 94.7738 17.3046C87.6719 19.4846 80.6665 21.9831 73.8155 24.7613C67.9777 27.1343 72.8699 35.6039 78.6691 33.2502C84.3429 30.9446 90.1518 28.8417 96.0475 26.9703C103.97 88.1964 108.119 149.866 108.514 211.604C108.524 213.446 109.383 214.758 110.589 215.53C109.46 245.038 107.463 274.518 104.568 303.91C101.577 334.335 90.6246 366.448 85.7324 396.632C84.7385 402.758 100.245 422.446 101.287 416.272C120.171 305.213 126.443 179.79 114.043 70.061C112.2 53.7199 107.955 40.4561 105.166 24.2596C139.354 12.2498 185.96 12.5103 216.837 32.8257C222.106 36.2984 227.49 27.4816 221.923 24.4719C187.417 5.8735 139.141 -2.31635 106.382 16.7161C104.404 6.95389 97.3019 -6.29068 94.3589 -15.86C92.7571 -21.0498 95.044 -20.2009 94.3589 -15.86Z" fill="white"/>
</g>
<mask id="mask3_1932_2" style="mask-type:luminance" maskUnits="userSpaceOnUse" x="98" y="12" width="95" height="400">
<path d="M160.485 25.2926C159.453 21.1929 158.922 16.852 157.34 12.8969C137.009 10.4274 115.626 13.9001 98.1895 23.209C124.841 132.011 118.241 245.859 108.456 357.401C107.192 371.813 105.861 386.302 102.117 400.279C113.184 406.569 125.767 410.833 138.504 411.836C139.016 408.112 140.193 404.495 140.839 400.791C141.003 399.865 142.287 399.479 143.02 399.942C147.98 403.135 152.351 407.128 156.626 411.161L156.635 411.17C168.861 409.55 180.807 405.884 192.125 400.984C184.242 375.662 181.212 349.057 178.53 322.693C168.34 222.717 173.83 123.021 192.656 24.2894C184.425 19.5626 175.229 16.2249 165.648 14.257C165.011 17.9709 164.094 21.6366 163.332 25.3312C163.033 26.7878 160.823 26.6335 160.485 25.2926Z" fill="white"/>
</mask>
<g mask="url(#mask3_1932_2)">
<path d="M163.506 25.9399C166.382 20.017 169.267 14.0941 172.142 8.17117C172.818 6.78208 170.743 5.55697 170.058 6.9557C167.183 12.8786 164.297 18.8016 161.422 24.7245C160.756 26.1136 162.831 27.3387 163.506 25.9399Z" fill="white"/>
</g>
<mask id="mask4_1932_2" style="mask-type:luminance" maskUnits="userSpaceOnUse" x="98" y="12" width="95" height="400">
<path d="M160.485 25.2926C159.453 21.1929 158.922 16.852 157.34 12.8969C137.009 10.4274 115.626 13.9001 98.1895 23.209C124.841 132.011 118.241 245.859 108.456 357.401C107.192 371.813 105.861 386.302 102.117 400.279C113.184 406.569 125.767 410.833 138.504 411.836C139.016 408.112 140.193 404.495 140.839 400.791C141.003 399.865 142.287 399.479 143.02 399.942C147.98 403.135 152.351 407.128 156.626 411.161L156.635 411.17C168.861 409.55 180.807 405.884 192.125 400.984C184.242 375.662 181.212 349.057 178.53 322.693C168.34 222.717 173.83 123.021 192.656 24.2894C184.425 19.5626 175.229 16.2249 165.648 14.257C165.011 17.9709 164.094 21.6366 163.332 25.3312C163.033 26.7878 160.823 26.6335 160.485 25.2926Z" fill="white"/>
</mask>
<g mask="url(#mask4_1932_2)">
<path d="M164.539 21.2888C164.172 19.099 164.471 16.8418 165.291 14.7485C164.5 14.6424 163.709 14.5363 162.918 14.4302C162.628 17.2855 162.339 20.1312 162.049 22.9866C162.85 22.9866 163.661 22.9866 164.462 22.9866C164.462 22.128 164.471 21.2599 164.471 20.4013C163.68 20.5074 162.889 20.6135 162.098 20.7197C162.175 20.9029 162.262 21.0862 162.3 21.2792C162.31 21.202 162.319 21.2309 162.31 21.3853C162.29 21.2695 162.339 21.1634 162.455 21.0766C162.918 20.6811 163.728 21.4624 163.535 22.0798C163.487 22.2727 163.381 22.4174 163.217 22.5139C162.783 22.5718 162.667 22.6007 162.86 22.62C162.657 22.5621 162.455 22.5139 162.252 22.456C162.155 22.3596 162.059 22.2535 161.962 22.157C162.281 22.7261 163.053 22.919 163.612 22.5911C164.182 22.2534 164.365 21.5107 164.047 20.9415C163.545 20.0637 162.397 20.0058 161.692 20.6618C160.988 21.3177 160.988 22.456 161.779 23.0445C162.532 23.6039 163.574 23.411 164.191 22.7454C164.886 22.0026 164.78 20.9608 164.423 20.083C164.191 19.5235 163.738 19.1183 163.101 19.2148C162.512 19.3016 162.059 19.784 162.059 20.4013C162.059 21.2599 162.049 22.128 162.049 22.9866C162.049 23.6425 162.609 24.1924 163.255 24.1924C163.96 24.1924 164.394 23.6329 164.462 22.9866C164.751 20.1312 165.041 17.2855 165.33 14.4302C165.388 13.8417 164.828 13.3112 164.288 13.2436C163.651 13.1665 163.188 13.5331 162.966 14.1118C161.991 16.6006 161.779 19.3016 162.213 21.9351C162.319 22.5814 163.12 22.9383 163.699 22.7744C164.384 22.5814 164.645 21.9351 164.539 21.2888Z" fill="white"/>
</g>
<path d="M70.4901 8.76044C54.1185 1.76794 35.3835 6.13943 19.1841 13.505C21.9398 38.6721 23.643 63.9541 24.2649 89.2552C24.6381 104.331 24.6381 119.406 24.6381 134.482C24.6285 229.927 25.7193 323.642 25.7098 419.088C41.3829 428.969 63.1224 428.08 77.9248 416.945C69.4376 288.479 70.7676 161.131 77.4464 32.5597C77.8578 24.6298 77.7908 11.8788 70.4901 8.76044Z" fill="url(#paint3_linear_1932_2)"/>
<mask id="mask5_1932_2" style="mask-type:luminance" maskUnits="userSpaceOnUse" x="19" y="5" width="59" height="421">
<path d="M70.4901 8.76141C54.1185 1.76892 35.3835 6.14041 19.1841 13.506C21.9398 38.6731 23.643 63.9551 24.2649 89.2562C24.6381 104.332 24.6381 119.407 24.6381 134.483C24.6285 229.928 25.7193 323.643 25.7098 419.089C41.3829 428.97 63.1224 428.081 77.9248 416.946C69.4376 288.48 70.7676 161.132 77.4464 32.5607C77.8578 24.6308 77.7908 11.8798 70.4901 8.76141Z" fill="white"/>
</mask>
<g mask="url(#mask5_1932_2)">
<path d="M27.8818 432.576C28.0923 404.854 28.3315 377.143 28.542 349.422C28.7525 321.442 28.9439 293.463 29.0587 265.493C29.1831 237.36 29.2405 209.218 29.1831 181.086C29.1257 153.307 28.963 125.528 28.6281 97.7497C28.3028 70.105 28.3889 42.1446 22.7818 14.94C22.0929 11.6016 21.3178 8.29184 20.4471 5.00125C19.6625 2.02634 15.0505 3.28903 15.8351 6.2735C22.9062 33.2103 23.3655 61.1898 23.7291 88.8728C24.0927 116.451 24.284 144.038 24.3701 171.616C24.4563 199.595 24.418 227.574 24.3127 255.544C24.2075 283.543 24.0352 311.542 23.8247 339.54C23.6238 367.185 23.3942 394.839 23.1741 422.484C23.1454 425.851 23.1167 429.209 23.0975 432.576C23.0784 435.656 27.8626 435.656 27.8818 432.576Z" fill="#8ECBFF"/>
</g>
<mask id="mask6_1932_2" style="mask-type:luminance" maskUnits="userSpaceOnUse" x="19" y="5" width="59" height="421">
<path d="M70.4901 8.76141C54.1185 1.76892 35.3835 6.14041 19.1841 13.506C21.9398 38.6731 23.643 63.9551 24.2649 89.2562C24.6381 104.332 24.6381 119.407 24.6381 134.483C24.6285 229.928 25.7193 323.643 25.7098 419.089C41.3829 428.97 63.1224 428.081 77.9248 416.946C69.4376 288.48 70.7676 161.132 77.4464 32.5607C77.8578 24.6308 77.7908 11.8798 70.4901 8.76141Z" fill="white"/>
</mask>
<g mask="url(#mask6_1932_2)">
<path d="M6.39185 24.6513C25.6436 12.6177 49.0959 7.61485 71.6009 10.6567C74.6723 11.068 77.7342 11.6516 80.7483 12.369C82.2697 12.7325 83.8963 13.0386 85.3507 13.6125C85.7909 13.7847 86.2884 14.0047 86.6329 14.3108C86.6138 14.2917 86.9199 14.6456 86.8147 14.483C87.0635 14.856 86.8817 14.4256 86.8338 14.8752C86.6999 16.157 88.0299 17.2666 89.2259 17.2666C90.6325 17.2666 91.4841 16.1665 91.6181 14.8752C91.953 11.6994 88.9389 9.76712 86.3267 8.89665C83.4944 7.94965 80.4804 7.35659 77.5524 6.81135C71.4095 5.6539 65.1517 5.05128 58.9035 5.03215C46.6272 4.99389 34.2839 7.127 22.7539 11.3741C16.1995 13.7847 9.90347 16.8361 3.9806 20.538C1.37798 22.1546 3.7701 26.287 6.39185 24.6513Z" fill="#8ECBFF"/>
</g>
<path d="M27.8633 23.2707C27.5667 28.1301 27.1744 33.0086 26.0071 37.7531C25.6435 39.2358 23.7106 38.9871 23.2418 37.7531C21.6917 33.6686 19.5675 29.8328 17.472 26.0065C11.4917 27.8527 5.64539 30.1293 0 32.8651C21.3664 154.808 25.7678 279.372 5.41574 401.372C18.7637 405.762 32.4466 409.474 46.407 410.842C47.9475 406.432 49.2201 401.936 50.6076 397.478C50.952 396.359 52.1672 396.187 53.0092 396.847C54.9421 398.358 55.7267 401.305 56.2816 403.572C56.894 406.049 57.3246 408.661 57.3342 411.215C57.3342 411.224 57.3246 411.243 57.3246 411.253C71.2754 410.574 84.8818 404.825 97.1102 397.928C78.4996 297.594 82.5758 194.582 88.0585 92.679C89.2832 69.9893 90.5846 47.1944 95.4262 25.0021C73.4857 19.1671 50.0047 18.4018 27.8633 23.2707Z" fill="url(#paint4_linear_1932_2)"/>
<mask id="mask7_1932_2" style="mask-type:luminance" maskUnits="userSpaceOnUse" x="0" y="20" width="98" height="392">
<path d="M27.8633 23.2713C27.5667 28.1307 27.1744 33.0092 26.0071 37.7537C25.6435 39.2364 23.7106 38.9877 23.2418 37.7537C21.6917 33.6692 19.5675 29.8334 17.472 26.0072C11.4917 27.8533 5.64539 30.1299 0 32.8657C16.1228 151.891 22.3423 264.22 5.40617 401.363C18.7542 405.753 32.437 409.465 46.3974 410.833C47.9379 406.423 49.2105 401.927 50.598 397.47C50.9424 396.35 52.1576 396.178 52.9997 396.838C54.9325 398.35 55.7171 401.296 56.2721 403.563C56.8845 406.04 57.315 408.652 57.3246 411.206C57.3246 411.215 57.315 411.235 57.315 411.244C71.2658 410.565 84.8722 404.816 97.1007 397.919C78.49 297.585 82.5662 194.573 88.0489 92.6701C89.2737 69.9804 90.575 47.1855 95.4166 24.9932C73.4857 19.1677 50.0047 18.4024 27.8633 23.2713Z" fill="white"/>
</mask>
<g mask="url(#mask7_1932_2)">
<path d="M-7.06202 2.75409C-5.23445 11.7458 -3.78961 20.7949 -2.60312 29.8727C-4.79429 31.0301 -6.95677 32.2545 -9.08096 33.5363C-14.3436 36.7216 -9.54025 44.9959 -4.24889 41.7914C-4.1245 41.7149 -4.00011 41.6479 -3.87572 41.5714C-2.3352 77.9304 -1.08173 114.309 0.946777 150.648C2.97529 187.18 6.96533 223.567 9.29047 260.07C9.4627 262.719 9.6158 265.369 9.76889 268.019C9.6158 281.812 9.20435 295.616 8.47715 309.419C7.14714 334.615 4.40099 359.724 3.33889 384.94C3.25277 387.092 4.36271 388.488 5.86496 389.139C4.99423 395.309 4.02782 401.478 2.96572 407.62C1.92276 413.636 4.20005 417.329 5.25258 411.264C23.6049 305.66 19.7966 196.822 12.4098 90.7101C11.1276 72.2771 9.855 53.8059 7.69253 35.4494C37.4887 21.7323 75.0544 17.9539 105.903 29.8248C111.654 32.0345 111.252 25.3672 105.549 23.1767C73.6957 10.9231 37.5652 12.071 6.42949 25.5394C5.26214 17.0547 3.88429 8.59866 2.17154 0.190491C0.946776 -5.81674 -8.27721 -3.2627 -7.06202 2.75409Z" fill="white"/>
</g>
<mask id="mask8_1932_2" style="mask-type:luminance" maskUnits="userSpaceOnUse" x="0" y="20" width="98" height="392">
<path d="M27.8633 23.2713C27.5667 28.1307 27.1744 33.0092 26.0071 37.7537C25.6435 39.2364 23.7106 38.9877 23.2418 37.7537C21.6917 33.6692 19.5675 29.8334 17.472 26.0072C11.4917 27.8533 5.64539 30.1299 0 32.8657C16.1228 151.891 22.3423 264.22 5.40617 401.363C18.7542 405.753 32.437 409.465 46.3974 410.833C47.9379 406.423 49.2105 401.927 50.598 397.47C50.9424 396.35 52.1576 396.178 52.9997 396.838C54.9325 398.35 55.7171 401.296 56.2721 403.563C56.8845 406.04 57.315 408.652 57.3246 411.206C57.3246 411.215 57.315 411.235 57.315 411.244C71.2658 410.565 84.8722 404.816 97.1007 397.919C78.49 297.585 82.5662 194.573 88.0489 92.6701C89.2737 69.9804 90.575 47.1855 95.4166 24.9932C73.4857 19.1677 50.0047 18.4024 27.8633 23.2713Z" fill="white"/>
</mask>
<g mask="url(#mask8_1932_2)">
<path d="M27.3174 33.3945C28.81 30.0465 30.2932 26.7081 31.7858 23.3601C31.0586 23.054 30.3314 22.7479 29.6042 22.4418C28.877 27.5212 27.0877 32.3423 24.3033 36.6468C25.0305 36.9529 25.7577 37.259 26.4849 37.5651C27.7862 32.6005 29.0875 27.6359 30.3793 22.6714C29.5947 22.5662 28.81 22.4609 28.0254 22.3557C27.8149 24.2019 27.2025 25.9811 26.3031 27.5977C25.5568 28.9465 27.614 30.1517 28.3699 28.803C29.4894 26.7942 30.1592 24.6419 30.4175 22.3557C30.5706 20.9974 28.3986 20.7583 28.0637 22.0401C26.7624 27.0046 25.4611 31.9692 24.1693 36.9337C23.8249 38.2634 25.6237 38.9904 26.3509 37.8521C29.231 33.3945 31.1447 28.3342 31.8911 23.0731C31.9772 22.4801 31.7954 21.9061 31.2022 21.667C30.7046 21.4661 29.9583 21.6096 29.7095 22.1549C28.2168 25.5028 26.7337 28.8412 25.241 32.1892C24.9827 32.7823 25.0688 33.471 25.6716 33.8249C26.1883 34.1215 27.059 33.9875 27.3174 33.3945Z" fill="white"/>
</g>
<defs>
<linearGradient id="paint0_linear_1932_2" x1="94.4999" y1="398.689" x2="94.4999" y2="23.3165" gradientUnits="userSpaceOnUse">
<stop stop-color="#00AEEF" stop-opacity="0.9"/>
<stop offset="0.0446854" stop-color="#00A0DB" stop-opacity="0.7"/>
<stop offset="0.123635" stop-color="#0095CF" stop-opacity="0.6"/>
<stop offset="0.193812" stop-color="#008CC4" stop-opacity="0.5"/>
<stop offset="0.268376" stop-color="#2D85BC" stop-opacity="0.4"/>
<stop offset="0.351712" stop-color="#4080B7" stop-opacity="0.3"/>
<stop offset="0.430661" stop-color="#487DB4" stop-opacity="0.2"/>
<stop offset="0.5121" stop-color="#4A7CB3" stop-opacity="0.2"/>
<stop offset="0.622196" stop-color="#477DB4" stop-opacity="0.2"/>
<stop offset="0.72373" stop-color="#3E80B8" stop-opacity="0.3"/>
<stop offset="0.795649" stop-color="#2786BE" stop-opacity="0.4"/>
<stop offset="0.8935" stop-color="#008EC7" stop-opacity="0.5"/>
<stop offset="0.9442" stop-color="#0098D3" stop-opacity="0.6"/>
<stop offset="0.9899" stop-color="#00A3E3" stop-opacity="0.7"/>
<stop offset="1" stop-color="#00A6E8" stop-opacity="0.9"/>
</linearGradient>
<linearGradient id="paint1_linear_1932_2" x1="174.48" y1="211.968" x2="118.138" y2="211.968" gradientUnits="userSpaceOnUse">
<stop stop-color="#00AEEF"/>
<stop offset="0.5121" stop-color="#4A7CB3" stop-opacity="0.2"/>
<stop offset="0.5626" stop-color="#3982B9" stop-opacity="0.2828"/>
<stop offset="0.862" stop-color="#00A1DD" stop-opacity="0.7737"/>
<stop offset="1" stop-color="#00AEEF"/>
</linearGradient>
<linearGradient id="paint2_linear_1932_2" x1="192.658" y1="211.974" x2="98.1885" y2="211.974" gradientUnits="userSpaceOnUse">
<stop stop-color="#00AEEF"/>
<stop offset="0.5121" stop-color="#4A7CB3" stop-opacity="0.2"/>
<stop offset="0.5626" stop-color="#3982B9" stop-opacity="0.2828"/>
<stop offset="0.862" stop-color="#00A1DD" stop-opacity="0.7737"/>
<stop offset="1" stop-color="#00AEEF"/>
</linearGradient>
<linearGradient id="paint3_linear_1932_2" x1="77.9259" y1="215.578" x2="19.1835" y2="215.578" gradientUnits="userSpaceOnUse">
<stop stop-color="#00AEEF"/>
<stop offset="0.5121" stop-color="#4A7CB3" stop-opacity="0.2"/>
<stop offset="0.5626" stop-color="#3982B9" stop-opacity="0.2828"/>
<stop offset="0.862" stop-color="#00A1DD" stop-opacity="0.7737"/>
<stop offset="1" stop-color="#00AEEF"/>
</linearGradient>
<linearGradient id="paint4_linear_1932_2" x1="97.112" y1="215.653" x2="-0.000955083" y2="215.653" gradientUnits="userSpaceOnUse">
<stop stop-color="#00AEEF"/>
<stop offset="0.5121" stop-color="#4A7CB3" stop-opacity="0.2"/>
<stop offset="0.5626" stop-color="#3982B9" stop-opacity="0.2828"/>
<stop offset="0.862" stop-color="#00A1DD" stop-opacity="0.7737"/>
<stop offset="1" stop-color="#00AEEF"/>
</linearGradient>
</defs>
</svg>
