<svg width="791" height="86" viewBox="0 0 791 86" fill="none" xmlns="http://www.w3.org/2000/svg">
<path d="M161.502 31.5333C115.564 31.5333 111.257 9.31667 102.643 9.31667C104.521 12.6274 106.015 15.8876 107.417 18.946C111.369 27.5685 114.585 34.5866 123.591 36.6081C140.962 37.2302 148.612 35.4588 161.502 31.5333Z" fill="#004276"/>
<path d="M181.198 86H210.236L174.81 65.8052C174.81 65.8052 173.068 72.0541 173.648 73.7973C173.956 74.7202 175.728 75.6431 177.501 76.566C179.076 77.3863 180.652 78.2067 181.198 79.027C182.36 80.7703 181.198 86 181.198 86Z" fill="#004276"/>
<path d="M309.909 4.97375C303.132 1.99159 298.606 0 297.163 0C297.163 0 356.589 42.4189 369.946 44.1622C383.304 45.9054 408.42 31.5333 408.42 31.5333C370.265 31.5333 330.098 13.8579 309.909 4.97375Z" fill="#004276"/>
<path fill-rule="evenodd" clip-rule="evenodd" d="M102.643 9.31667C94.0299 9.31667 0 86 0 86H181.198C181.198 86 182.36 80.7703 181.198 79.027C180.652 78.2067 179.076 77.3863 177.501 76.566C175.728 75.6431 173.956 74.7202 173.648 73.7973C173.068 72.0541 174.81 65.8052 174.81 65.8052L210.236 86H791C791 86 734.873 41.0455 723.778 39.7424C718.353 39.1053 707.154 29.5885 695.904 20.0285C684.147 10.0379 672.334 0 666.998 0C662.905 0 656.148 2.97326 647.932 6.5888C635.188 12.1968 618.933 19.35 603.658 19.35C603.658 19.35 585.99 34.8649 570.891 34.8649C555.791 34.8649 527.573 0 527.573 0C525.343 0 518.933 2.51548 509.733 6.1255C486.362 15.297 444.989 31.5333 408.42 31.5333C408.42 31.5333 383.304 45.9054 369.946 44.1622C356.589 42.4189 297.163 0 297.163 0C295.663 0 288.826 2.15144 278.722 5.33039C250.144 14.3218 195.441 31.5333 161.502 31.5333C148.612 35.4588 140.962 37.2302 123.591 36.6081C114.585 34.5866 111.369 27.5685 107.417 18.946C106.015 15.8876 104.521 12.6274 102.643 9.31667Z" fill="#00345D"/>
<path d="M547.235 5.69699C537.784 2.49698 530.409 0 527.573 0C527.573 0 555.791 34.8649 570.891 34.8649C585.99 34.8649 603.658 19.35 603.658 19.35C587.56 19.35 564.094 11.405 547.235 5.69699Z" fill="#004276"/>
</svg>
