<svg width="34" height="190" viewBox="0 0 34 190" fill="none" xmlns="http://www.w3.org/2000/svg">
<mask id="path-1-outside-1_1986_2" maskUnits="userSpaceOnUse" x="1" y="1" width="22" height="97" fill="black">
<rect fill="white" x="1" y="1" width="22" height="97"/>
<path d="M2.4 12.4C2.4 7.12 6.696 2.8 12 2.8H21.6V4.432H12C7.584 4.432 4.008 8.008 4.008 12.4C4.008 16.816 7.584 20.392 12 20.392H19.968V13.216H14.712V11.608H21.6V22H12C6.696 22 2.4 17.704 2.4 12.4ZM12 27.8C17.28 27.8 21.6 32.12 21.6 37.4C21.6 42.704 17.28 47 12 47C6.696 47 2.4 42.704 2.4 37.4C2.4 32.12 6.696 27.8 12 27.8ZM12 45.392C16.392 45.392 19.968 41.816 19.968 37.4C19.968 33.008 16.392 29.432 12 29.432C7.584 29.432 4.008 33.008 4.008 37.4C4.008 41.816 7.584 45.392 12 45.392ZM13.2 37.4C13.2 38.072 12.648 38.624 12 38.624C11.328 38.624 10.776 38.072 10.776 37.4C10.776 36.752 11.328 36.2 12 36.2C12.648 36.2 13.2 36.752 13.2 37.4ZM12 52.8C17.28 52.8 21.6 57.12 21.6 62.4C21.6 67.704 17.28 72 12 72H2.4V61.608H4.008V70.392H12C16.392 70.392 19.968 66.816 19.968 62.4C19.968 58.008 16.392 54.432 12 54.432H2.4V52.8H12ZM16.8334 79.432H15.2254V95.392H16.8334V97H11.9854V95.392H13.5934V79.432H11.9854V77.8H16.8334V79.432Z"/>
</mask>
<path d="M2.4 12.4C2.4 7.12 6.696 2.8 12 2.8H21.6V4.432H12C7.584 4.432 4.008 8.008 4.008 12.4C4.008 16.816 7.584 20.392 12 20.392H19.968V13.216H14.712V11.608H21.6V22H12C6.696 22 2.4 17.704 2.4 12.4ZM12 27.8C17.28 27.8 21.6 32.12 21.6 37.4C21.6 42.704 17.28 47 12 47C6.696 47 2.4 42.704 2.4 37.4C2.4 32.12 6.696 27.8 12 27.8ZM12 45.392C16.392 45.392 19.968 41.816 19.968 37.4C19.968 33.008 16.392 29.432 12 29.432C7.584 29.432 4.008 33.008 4.008 37.4C4.008 41.816 7.584 45.392 12 45.392ZM13.2 37.4C13.2 38.072 12.648 38.624 12 38.624C11.328 38.624 10.776 38.072 10.776 37.4C10.776 36.752 11.328 36.2 12 36.2C12.648 36.2 13.2 36.752 13.2 37.4ZM12 52.8C17.28 52.8 21.6 57.12 21.6 62.4C21.6 67.704 17.28 72 12 72H2.4V61.608H4.008V70.392H12C16.392 70.392 19.968 66.816 19.968 62.4C19.968 58.008 16.392 54.432 12 54.432H2.4V52.8H12ZM16.8334 79.432H15.2254V95.392H16.8334V97H11.9854V95.392H13.5934V79.432H11.9854V77.8H16.8334V79.432Z" fill="white"/>
<path d="M21.6 2.8H22.6V1.8H21.6V2.8ZM21.6 4.432V5.432H22.6V4.432H21.6ZM19.968 20.392V21.392H20.968V20.392H19.968ZM19.968 13.216H20.968V12.216H19.968V13.216ZM14.712 13.216H13.712V14.216H14.712V13.216ZM14.712 11.608V10.608H13.712V11.608H14.712ZM21.6 11.608H22.6V10.608H21.6V11.608ZM21.6 22V23H22.6V22H21.6ZM2.4 12.4H3.4C3.4 7.67066 7.24991 3.8 12 3.8V2.8V1.8C6.14209 1.8 1.4 6.56934 1.4 12.4H2.4ZM12 2.8V3.8H21.6V2.8V1.8H12V2.8ZM21.6 2.8H20.6V4.432H21.6H22.6V2.8H21.6ZM21.6 4.432V3.432H12V4.432V5.432H21.6V4.432ZM12 4.432V3.432C7.03367 3.432 3.008 7.45376 3.008 12.4H4.008H5.008C5.008 8.56224 8.13433 5.432 12 5.432V4.432ZM4.008 12.4H3.008C3.008 17.3683 7.03172 21.392 12 21.392V20.392V19.392C8.13628 19.392 5.008 16.2637 5.008 12.4H4.008ZM12 20.392V21.392H19.968V20.392V19.392H12V20.392ZM19.968 20.392H20.968V13.216H19.968H18.968V20.392H19.968ZM19.968 13.216V12.216H14.712V13.216V14.216H19.968V13.216ZM14.712 13.216H15.712V11.608H14.712H13.712V13.216H14.712ZM14.712 11.608V12.608H21.6V11.608V10.608H14.712V11.608ZM21.6 11.608H20.6V22H21.6H22.6V11.608H21.6ZM21.6 22V21H12V22V23H21.6V22ZM12 22V21C7.24829 21 3.4 17.1517 3.4 12.4H2.4H1.4C1.4 18.2563 6.14372 23 12 23V22ZM12 27.8V28.8C16.7277 28.8 20.6 32.6723 20.6 37.4H21.6H22.6C22.6 31.5677 17.8323 26.8 12 26.8V27.8ZM21.6 37.4H20.6C20.6 42.1501 16.7293 46 12 46V47V48C17.8307 48 22.6 43.2579 22.6 37.4H21.6ZM12 47V46C7.24829 46 3.4 42.1517 3.4 37.4H2.4H1.4C1.4 43.2563 6.14372 48 12 48V47ZM2.4 37.4H3.4C3.4 32.6707 7.24991 28.8 12 28.8V27.8V26.8C6.14209 26.8 1.4 31.5693 1.4 37.4H2.4ZM12 45.392V46.392C16.9462 46.392 20.968 42.3663 20.968 37.4H19.968H18.968C18.968 41.2657 15.8378 44.392 12 44.392V45.392ZM19.968 37.4H20.968C20.968 32.4557 16.9443 28.432 12 28.432V29.432V30.432C15.8397 30.432 18.968 33.5603 18.968 37.4H19.968ZM12 29.432V28.432C7.03367 28.432 3.008 32.4538 3.008 37.4H4.008H5.008C5.008 33.5622 8.13433 30.432 12 30.432V29.432ZM4.008 37.4H3.008C3.008 42.3683 7.03172 46.392 12 46.392V45.392V44.392C8.13628 44.392 5.008 41.2637 5.008 37.4H4.008ZM13.2 37.4H12.2C12.2 37.4576 12.1767 37.5155 12.1311 37.5617C12.0847 37.6087 12.0354 37.624 12 37.624V38.624V39.624C13.2131 39.624 14.2 38.6114 14.2 37.4H13.2ZM12 38.624V37.624C11.8803 37.624 11.776 37.5197 11.776 37.4H10.776H9.776C9.776 38.6243 10.7757 39.624 12 39.624V38.624ZM10.776 37.4H11.776C11.776 37.3646 11.7913 37.3153 11.8383 37.2689C11.8845 37.2233 11.9424 37.2 12 37.2V36.2V35.2C10.7886 35.2 9.776 36.1869 9.776 37.4H10.776ZM12 36.2V37.2C12.0362 37.2 12.0878 37.216 12.1359 37.2641C12.184 37.3122 12.2 37.3638 12.2 37.4H13.2H14.2C14.2 36.1997 13.2003 35.2 12 35.2V36.2ZM2.4 72H1.4V73H2.4V72ZM2.4 61.608V60.608H1.4V61.608H2.4ZM4.008 61.608H5.008V60.608H4.008V61.608ZM4.008 70.392H3.008V71.392H4.008V70.392ZM2.4 54.432H1.4V55.432H2.4V54.432ZM2.4 52.8V51.8H1.4V52.8H2.4ZM12 52.8V53.8C16.7277 53.8 20.6 57.6723 20.6 62.4H21.6H22.6C22.6 56.5677 17.8323 51.8 12 51.8V52.8ZM21.6 62.4H20.6C20.6 67.1501 16.7293 71 12 71V72V73C17.8307 73 22.6 68.2579 22.6 62.4H21.6ZM12 72V71H2.4V72V73H12V72ZM2.4 72H3.4V61.608H2.4H1.4V72H2.4ZM2.4 61.608V62.608H4.008V61.608V60.608H2.4V61.608ZM4.008 61.608H3.008V70.392H4.008H5.008V61.608H4.008ZM4.008 70.392V71.392H12V70.392V69.392H4.008V70.392ZM12 70.392V71.392C16.9462 71.392 20.968 67.3663 20.968 62.4H19.968H18.968C18.968 66.2657 15.8378 69.392 12 69.392V70.392ZM19.968 62.4H20.968C20.968 57.4557 16.9443 53.432 12 53.432V54.432V55.432C15.8397 55.432 18.968 58.5603 18.968 62.4H19.968ZM12 54.432V53.432H2.4V54.432V55.432H12V54.432ZM2.4 54.432H3.4V52.8H2.4H1.4V54.432H2.4ZM2.4 52.8V53.8H12V52.8V51.8H2.4V52.8ZM16.8334 79.432V80.432H17.8334V79.432H16.8334ZM15.2254 79.432V78.432H14.2254V79.432H15.2254ZM15.2254 95.392H14.2254V96.392H15.2254V95.392ZM16.8334 95.392H17.8334V94.392H16.8334V95.392ZM16.8334 97V98H17.8334V97H16.8334ZM11.9854 97H10.9854V98H11.9854V97ZM11.9854 95.392V94.392H10.9854V95.392H11.9854ZM13.5934 95.392V96.392H14.5934V95.392H13.5934ZM13.5934 79.432H14.5934V78.432H13.5934V79.432ZM11.9854 79.432H10.9854V80.432H11.9854V79.432ZM11.9854 77.8V76.8H10.9854V77.8H11.9854ZM16.8334 77.8H17.8334V76.8H16.8334V77.8ZM16.8334 79.432V78.432H15.2254V79.432V80.432H16.8334V79.432ZM15.2254 79.432H14.2254V95.392H15.2254H16.2254V79.432H15.2254ZM15.2254 95.392V96.392H16.8334V95.392V94.392H15.2254V95.392ZM16.8334 95.392H15.8334V97H16.8334H17.8334V95.392H16.8334ZM16.8334 97V96H11.9854V97V98H16.8334V97ZM11.9854 97H12.9854V95.392H11.9854H10.9854V97H11.9854ZM11.9854 95.392V96.392H13.5934V95.392V94.392H11.9854V95.392ZM13.5934 95.392H14.5934V79.432H13.5934H12.5934V95.392H13.5934ZM13.5934 79.432V78.432H11.9854V79.432V80.432H13.5934V79.432ZM11.9854 79.432H12.9854V77.8H11.9854H10.9854V79.432H11.9854ZM11.9854 77.8V78.8H16.8334V77.8V76.8H11.9854V77.8ZM16.8334 77.8H15.8334V79.432H16.8334H17.8334V77.8H16.8334Z" fill="white" mask="url(#path-1-outside-1_1986_2)"/>
<mask id="path-3-outside-2_1986_2" maskUnits="userSpaceOnUse" x="1" y="116" width="22" height="72" fill="black">
<rect fill="white" x="1" y="116" width="22" height="72"/>
<path d="M7.584 117.8H21.6V119.432H7.584C5.616 119.432 4.008 121.04 4.008 123.008C4.008 125 5.616 126.608 7.584 126.608H16.392C19.248 126.608 21.6 128.936 21.6 131.816C21.6 134.672 19.248 137 16.392 137H2.4V135.392H16.392C18.36 135.392 19.968 133.784 19.968 131.816C19.968 129.824 18.36 128.216 16.392 128.216H7.584C4.728 128.216 2.4 125.888 2.4 123.008C2.4 120.152 4.728 117.8 7.584 117.8ZM12 142.8C17.28 142.8 21.6 147.12 21.6 152.4V162H19.968V152.4C19.968 148.008 16.392 144.432 12 144.432C7.584 144.432 4.008 148.008 4.008 152.4V162H2.4V152.4C2.4 147.12 6.696 142.8 12 142.8ZM16.8334 169.432H15.2254V185.392H16.8334V187H11.9854V185.392H13.5934V169.432H11.9854V167.8H16.8334V169.432Z"/>
</mask>
<path d="M7.584 117.8H21.6V119.432H7.584C5.616 119.432 4.008 121.04 4.008 123.008C4.008 125 5.616 126.608 7.584 126.608H16.392C19.248 126.608 21.6 128.936 21.6 131.816C21.6 134.672 19.248 137 16.392 137H2.4V135.392H16.392C18.36 135.392 19.968 133.784 19.968 131.816C19.968 129.824 18.36 128.216 16.392 128.216H7.584C4.728 128.216 2.4 125.888 2.4 123.008C2.4 120.152 4.728 117.8 7.584 117.8ZM12 142.8C17.28 142.8 21.6 147.12 21.6 152.4V162H19.968V152.4C19.968 148.008 16.392 144.432 12 144.432C7.584 144.432 4.008 148.008 4.008 152.4V162H2.4V152.4C2.4 147.12 6.696 142.8 12 142.8ZM16.8334 169.432H15.2254V185.392H16.8334V187H11.9854V185.392H13.5934V169.432H11.9854V167.8H16.8334V169.432Z" fill="white"/>
<path d="M21.6 117.8H22.6V116.8H21.6V117.8ZM21.6 119.432V120.432H22.6V119.432H21.6ZM2.4 137H1.4V138H2.4V137ZM2.4 135.392V134.392H1.4V135.392H2.4ZM7.584 117.8V118.8H21.6V117.8V116.8H7.584V117.8ZM21.6 117.8H20.6V119.432H21.6H22.6V117.8H21.6ZM21.6 119.432V118.432H7.584V119.432V120.432H21.6V119.432ZM7.584 119.432V118.432C5.06372 118.432 3.008 120.488 3.008 123.008H4.008H5.008C5.008 121.592 6.16829 120.432 7.584 120.432V119.432ZM4.008 123.008H3.008C3.008 125.548 5.05937 127.608 7.584 127.608V126.608V125.608C6.17263 125.608 5.008 124.452 5.008 123.008H4.008ZM7.584 126.608V127.608H16.392V126.608V125.608H7.584V126.608ZM16.392 126.608V127.608C18.6987 127.608 20.6 129.491 20.6 131.816H21.6H22.6C22.6 128.381 19.7973 125.608 16.392 125.608V126.608ZM21.6 131.816H20.6C20.6 134.114 18.7017 136 16.392 136V137V138C19.7943 138 22.6 135.23 22.6 131.816H21.6ZM16.392 137V136H2.4V137V138H16.392V137ZM2.4 137H3.4V135.392H2.4H1.4V137H2.4ZM2.4 135.392V136.392H16.392V135.392V134.392H2.4V135.392ZM16.392 135.392V136.392C18.9123 136.392 20.968 134.336 20.968 131.816H19.968H18.968C18.968 133.232 17.8077 134.392 16.392 134.392V135.392ZM19.968 131.816H20.968C20.968 129.276 18.9166 127.216 16.392 127.216V128.216V129.216C17.8034 129.216 18.968 130.372 18.968 131.816H19.968ZM16.392 128.216V127.216H7.584V128.216V129.216H16.392V128.216ZM7.584 128.216V127.216C5.28329 127.216 3.4 125.339 3.4 123.008H2.4H1.4C1.4 126.437 4.17271 129.216 7.584 129.216V128.216ZM2.4 123.008H3.4C3.4 120.698 5.28628 118.8 7.584 118.8V117.8V116.8C4.16972 116.8 1.4 119.606 1.4 123.008H2.4ZM21.6 162V163H22.6V162H21.6ZM19.968 162H18.968V163H19.968V162ZM4.008 162V163H5.008V162H4.008ZM2.4 162H1.4V163H2.4V162ZM12 142.8V143.8C16.7277 143.8 20.6 147.672 20.6 152.4H21.6H22.6C22.6 146.568 17.8323 141.8 12 141.8V142.8ZM21.6 152.4H20.6V162H21.6H22.6V152.4H21.6ZM21.6 162V161H19.968V162V163H21.6V162ZM19.968 162H20.968V152.4H19.968H18.968V162H19.968ZM19.968 152.4H20.968C20.968 147.456 16.9443 143.432 12 143.432V144.432V145.432C15.8397 145.432 18.968 148.56 18.968 152.4H19.968ZM12 144.432V143.432C7.03367 143.432 3.008 147.454 3.008 152.4H4.008H5.008C5.008 148.562 8.13433 145.432 12 145.432V144.432ZM4.008 152.4H3.008V162H4.008H5.008V152.4H4.008ZM4.008 162V161H2.4V162V163H4.008V162ZM2.4 162H3.4V152.4H2.4H1.4V162H2.4ZM2.4 152.4H3.4C3.4 147.671 7.24991 143.8 12 143.8V142.8V141.8C6.14209 141.8 1.4 146.569 1.4 152.4H2.4ZM16.8334 169.432V170.432H17.8334V169.432H16.8334ZM15.2254 169.432V168.432H14.2254V169.432H15.2254ZM15.2254 185.392H14.2254V186.392H15.2254V185.392ZM16.8334 185.392H17.8334V184.392H16.8334V185.392ZM16.8334 187V188H17.8334V187H16.8334ZM11.9854 187H10.9854V188H11.9854V187ZM11.9854 185.392V184.392H10.9854V185.392H11.9854ZM13.5934 185.392V186.392H14.5934V185.392H13.5934ZM13.5934 169.432H14.5934V168.432H13.5934V169.432ZM11.9854 169.432H10.9854V170.432H11.9854V169.432ZM11.9854 167.8V166.8H10.9854V167.8H11.9854ZM16.8334 167.8H17.8334V166.8H16.8334V167.8ZM16.8334 169.432V168.432H15.2254V169.432V170.432H16.8334V169.432ZM15.2254 169.432H14.2254V185.392H15.2254H16.2254V169.432H15.2254ZM15.2254 185.392V186.392H16.8334V185.392V184.392H15.2254V185.392ZM16.8334 185.392H15.8334V187H16.8334H17.8334V185.392H16.8334ZM16.8334 187V186H11.9854V187V188H16.8334V187ZM11.9854 187H12.9854V185.392H11.9854H10.9854V187H11.9854ZM11.9854 185.392V186.392H13.5934V185.392V184.392H11.9854V185.392ZM13.5934 185.392H14.5934V169.432H13.5934H12.5934V185.392H13.5934ZM13.5934 169.432V168.432H11.9854V169.432V170.432H13.5934V169.432ZM11.9854 169.432H12.9854V167.8H11.9854H10.9854V169.432H11.9854ZM11.9854 167.8V168.8H16.8334V167.8V166.8H11.9854V167.8ZM16.8334 167.8H15.8334V169.432H16.8334H17.8334V167.8H16.8334Z" fill="white" mask="url(#path-3-outside-2_1986_2)"/>
<line x1="8.1713" y1="106.063" x2="12.1713" y2="111.063" stroke="white" stroke-width="3"/>
<line y1="-1.5" x2="6.40312" y2="-1.5" transform="matrix(-0.624695 0.780869 0.780869 0.624695 16 107)" stroke="white" stroke-width="3"/>
<mask id="path-7-outside-3_1986_2" maskUnits="userSpaceOnUse" x="24" y="159" width="10" height="10" fill="black">
<rect fill="white" x="24" y="159" width="10" height="10"/>
<path d="M32.32 160H33V164C33 166.21 31.2 168 29 168C26.79 168 25 166.21 25 164H25.67C25.67 165.84 27.16 167.33 29 167.33C30.83 167.33 32.32 165.84 32.32 164V160.68H31.65V160H32.32Z"/>
</mask>
<path d="M32.32 160H33V164C33 166.21 31.2 168 29 168C26.79 168 25 166.21 25 164H25.67C25.67 165.84 27.16 167.33 29 167.33C30.83 167.33 32.32 165.84 32.32 164V160.68H31.65V160H32.32Z" fill="white"/>
<path d="M33 160H34V159H33V160ZM25 164V163H24V164H25ZM25.67 164H26.67V163H25.67V164ZM32.32 160.68H33.32V159.68H32.32V160.68ZM31.65 160.68H30.65V161.68H31.65V160.68ZM31.65 160V159H30.65V160H31.65ZM32.32 160V161H33V160V159H32.32V160ZM33 160H32V164H33H34V160H33ZM33 164H32C32 165.656 30.6493 167 29 167V168V169C31.7507 169 34 166.764 34 164H33ZM29 168V167C27.3423 167 26 165.658 26 164H25H24C24 166.762 26.2377 169 29 169V168ZM25 164V165H25.67V164V163H25V164ZM25.67 164H24.67C24.67 166.392 26.6077 168.33 29 168.33V167.33V166.33C27.7123 166.33 26.67 165.288 26.67 164H25.67ZM29 167.33V168.33C31.3842 168.33 33.32 166.39 33.32 164H32.32H31.32C31.32 165.29 30.2758 166.33 29 166.33V167.33ZM32.32 164H33.32V160.68H32.32H31.32V164H32.32ZM32.32 160.68V159.68H31.65V160.68V161.68H32.32V160.68ZM31.65 160.68H32.65V160H31.65H30.65V160.68H31.65ZM31.65 160V161H32.32V160V159H31.65V160Z" fill="white" mask="url(#path-7-outside-3_1986_2)"/>
</svg>
