<svg width="36" height="290" viewBox="0 0 36 290" fill="none" xmlns="http://www.w3.org/2000/svg">
<mask id="path-1-outside-1_596_2479" maskUnits="userSpaceOnUse" x="-0.563965" y="-0.199219" width="37" height="290" fill="black">
<rect fill="white" x="-0.563965" y="-0.199219" width="37" height="290"/>
<path d="M25.624 1.00078C30.628 1.00078 34.66 5.06878 34.66 10.0368V29.8008H32.212V10.0368C32.212 6.40078 29.26 3.44878 25.624 3.44878C21.988 3.44878 19.036 6.40078 19.036 10.0368V29.8008H16.624V10.0368C16.624 6.40078 13.672 3.44878 10.036 3.44878C6.40004 3.44878 3.41204 6.40078 3.41204 10.0368V29.8008H1.00004V10.0368C1.00004 5.06878 5.03204 1.00078 10.036 1.00078C13.348 1.00078 16.264 2.83678 17.812 5.53678C19.396 2.83678 22.276 1.00078 25.624 1.00078ZM1.03604 52.4008C1.03604 44.4808 7.48004 38.0008 15.436 38.0008H29.836V40.4488H15.436C9.20804 40.4488 4.09604 45.1648 3.48404 51.2128H29.836V53.6248H3.48404C4.09604 59.6728 9.20804 64.3888 15.436 64.3888H29.836V66.8008H15.436C7.48004 66.8008 1.03604 60.3568 1.03604 52.4008ZM15.436 75.0008C23.356 75.0008 29.836 81.4808 29.836 89.4008C29.836 97.3568 23.356 103.801 15.436 103.801H1.03604V88.2128H3.44804V101.389H15.436C22.024 101.389 27.388 96.0248 27.388 89.4008C27.388 82.8128 22.024 77.4488 15.436 77.4488H1.03604V75.0008H15.436ZM22.6861 114.449H20.2741V138.389H22.6861V140.801H15.4141V138.389H17.8261V114.449H15.4141V112.001H22.6861V114.449ZM27.388 149.001H29.836V163.401C29.836 171.357 23.356 177.801 15.436 177.801C7.48004 177.801 1.03604 171.357 1.03604 163.401H3.44804C3.44804 170.025 8.81204 175.389 15.436 175.389C22.024 175.389 27.388 170.025 27.388 163.401V151.449H24.976V149.001H27.388ZM8.81204 186.001H29.836V188.449H8.81204C5.86004 188.449 3.44804 190.861 3.44804 193.813C3.44804 196.801 5.86004 199.213 8.81204 199.213H22.024C26.308 199.213 29.836 202.705 29.836 207.025C29.836 211.309 26.308 214.801 22.024 214.801H1.03604V212.389H22.024C24.976 212.389 27.388 209.977 27.388 207.025C27.388 204.037 24.976 201.625 22.024 201.625H8.81204C4.52804 201.625 1.03604 198.133 1.03604 193.813C1.03604 189.529 4.52804 186.001 8.81204 186.001ZM26.056 223.001H29.836L12.7 237.401L29.836 251.801H26.056L10.828 238.985L3.44804 245.213V251.801H1.00004V247.265V244.097V223.001H3.44804V242.045L26.056 223.001ZM22.6861 262.449H20.2741V286.389H22.6861V288.801H15.4141V286.389H17.8261V262.449H15.4141V260.001H22.6861V262.449Z"/>
</mask>
<path d="M25.624 1.00078C30.628 1.00078 34.66 5.06878 34.66 10.0368V29.8008H32.212V10.0368C32.212 6.40078 29.26 3.44878 25.624 3.44878C21.988 3.44878 19.036 6.40078 19.036 10.0368V29.8008H16.624V10.0368C16.624 6.40078 13.672 3.44878 10.036 3.44878C6.40004 3.44878 3.41204 6.40078 3.41204 10.0368V29.8008H1.00004V10.0368C1.00004 5.06878 5.03204 1.00078 10.036 1.00078C13.348 1.00078 16.264 2.83678 17.812 5.53678C19.396 2.83678 22.276 1.00078 25.624 1.00078ZM1.03604 52.4008C1.03604 44.4808 7.48004 38.0008 15.436 38.0008H29.836V40.4488H15.436C9.20804 40.4488 4.09604 45.1648 3.48404 51.2128H29.836V53.6248H3.48404C4.09604 59.6728 9.20804 64.3888 15.436 64.3888H29.836V66.8008H15.436C7.48004 66.8008 1.03604 60.3568 1.03604 52.4008ZM15.436 75.0008C23.356 75.0008 29.836 81.4808 29.836 89.4008C29.836 97.3568 23.356 103.801 15.436 103.801H1.03604V88.2128H3.44804V101.389H15.436C22.024 101.389 27.388 96.0248 27.388 89.4008C27.388 82.8128 22.024 77.4488 15.436 77.4488H1.03604V75.0008H15.436ZM22.6861 114.449H20.2741V138.389H22.6861V140.801H15.4141V138.389H17.8261V114.449H15.4141V112.001H22.6861V114.449ZM27.388 149.001H29.836V163.401C29.836 171.357 23.356 177.801 15.436 177.801C7.48004 177.801 1.03604 171.357 1.03604 163.401H3.44804C3.44804 170.025 8.81204 175.389 15.436 175.389C22.024 175.389 27.388 170.025 27.388 163.401V151.449H24.976V149.001H27.388ZM8.81204 186.001H29.836V188.449H8.81204C5.86004 188.449 3.44804 190.861 3.44804 193.813C3.44804 196.801 5.86004 199.213 8.81204 199.213H22.024C26.308 199.213 29.836 202.705 29.836 207.025C29.836 211.309 26.308 214.801 22.024 214.801H1.03604V212.389H22.024C24.976 212.389 27.388 209.977 27.388 207.025C27.388 204.037 24.976 201.625 22.024 201.625H8.81204C4.52804 201.625 1.03604 198.133 1.03604 193.813C1.03604 189.529 4.52804 186.001 8.81204 186.001ZM26.056 223.001H29.836L12.7 237.401L29.836 251.801H26.056L10.828 238.985L3.44804 245.213V251.801H1.00004V247.265V244.097V223.001H3.44804V242.045L26.056 223.001ZM22.6861 262.449H20.2741V286.389H22.6861V288.801H15.4141V286.389H17.8261V262.449H15.4141V260.001H22.6861V262.449Z" fill="white"/>
<path d="M34.66 29.8008V30.8008H35.66V29.8008H34.66ZM32.212 29.8008H31.212V30.8008H32.212V29.8008ZM19.036 29.8008V30.8008H20.036V29.8008H19.036ZM16.624 29.8008H15.624V30.8008H16.624V29.8008ZM3.41204 29.8008V30.8008H4.41204V29.8008H3.41204ZM1.00004 29.8008H3.52859e-05V30.8008H1.00004V29.8008ZM17.812 5.53678L16.9445 6.03416L17.8021 7.52996L18.6746 6.0428L17.812 5.53678ZM25.624 1.00078V2.00078C30.0732 2.00078 33.66 5.61847 33.66 10.0368H34.66H35.66C35.66 4.51909 31.1829 0.000780821 25.624 0.000780821V1.00078ZM34.66 10.0368H33.66V29.8008H34.66H35.66V10.0368H34.66ZM34.66 29.8008V28.8008H32.212V29.8008V30.8008H34.66V29.8008ZM32.212 29.8008H33.212V10.0368H32.212H31.212V29.8008H32.212ZM32.212 10.0368H33.212C33.212 5.8485 29.8123 2.44878 25.624 2.44878V3.44878V4.44878C28.7078 4.44878 31.212 6.95306 31.212 10.0368H32.212ZM25.624 3.44878V2.44878C21.4358 2.44878 18.036 5.8485 18.036 10.0368H19.036H20.036C20.036 6.95306 22.5403 4.44878 25.624 4.44878V3.44878ZM19.036 10.0368H18.036V29.8008H19.036H20.036V10.0368H19.036ZM19.036 29.8008V28.8008H16.624V29.8008V30.8008H19.036V29.8008ZM16.624 29.8008H17.624V10.0368H16.624H15.624V29.8008H16.624ZM16.624 10.0368H17.624C17.624 5.8485 14.2243 2.44878 10.036 2.44878V3.44878V4.44878C13.1198 4.44878 15.624 6.95306 15.624 10.0368H16.624ZM10.036 3.44878V2.44878C5.85485 2.44878 2.41204 5.84142 2.41204 10.0368H3.41204H4.41204C4.41204 6.96014 6.94522 4.44878 10.036 4.44878V3.44878ZM3.41204 10.0368H2.41204V29.8008H3.41204H4.41204V10.0368H3.41204ZM3.41204 29.8008V28.8008H1.00004V29.8008V30.8008H3.41204V29.8008ZM1.00004 29.8008H2.00004V10.0368H1.00004H3.52859e-05V29.8008H1.00004ZM1.00004 10.0368H2.00004C2.00004 5.61847 5.58691 2.00078 10.036 2.00078V1.00078V0.000780821C4.47716 0.000780821 3.52859e-05 4.51909 3.52859e-05 10.0368H1.00004ZM10.036 1.00078V2.00078C12.9709 2.00078 15.5652 3.62837 16.9445 6.03416L17.812 5.53678L18.6796 5.0394C16.9629 2.04519 13.7252 0.000780821 10.036 0.000780821V1.00078ZM17.812 5.53678L18.6746 6.0428C20.0927 3.6255 22.657 2.00078 25.624 2.00078V1.00078V0.000780821C21.895 0.000780821 18.6994 2.04806 16.9495 5.03077L17.812 5.53678ZM29.836 38.0008H30.836V37.0008H29.836V38.0008ZM29.836 40.4488V41.4488H30.836V40.4488H29.836ZM3.48404 51.2128L2.48912 51.1121L2.37774 52.2128H3.48404V51.2128ZM29.836 51.2128H30.836V50.2128H29.836V51.2128ZM29.836 53.6248V54.6248H30.836V53.6248H29.836ZM3.48404 53.6248V52.6248H2.37774L2.48912 53.7255L3.48404 53.6248ZM29.836 64.3888H30.836V63.3888H29.836V64.3888ZM29.836 66.8008V67.8008H30.836V66.8008H29.836ZM1.03604 52.4008H2.03604C2.03604 45.0314 8.03395 39.0008 15.436 39.0008V38.0008V37.0008C6.92612 37.0008 0.0360353 43.9301 0.0360353 52.4008H1.03604ZM15.436 38.0008V39.0008H29.836V38.0008V37.0008H15.436V38.0008ZM29.836 38.0008H28.836V40.4488H29.836H30.836V38.0008H29.836ZM29.836 40.4488V39.4488H15.436V40.4488V41.4488H29.836V40.4488ZM15.436 40.4488V39.4488C8.69152 39.4488 3.15247 44.5566 2.48912 51.1121L3.48404 51.2128L4.47895 51.3135C5.0396 45.7729 9.72455 41.4488 15.436 41.4488V40.4488ZM3.48404 51.2128V52.2128H29.836V51.2128V50.2128H3.48404V51.2128ZM29.836 51.2128H28.836V53.6248H29.836H30.836V51.2128H29.836ZM29.836 53.6248V52.6248H3.48404V53.6248V54.6248H29.836V53.6248ZM3.48404 53.6248L2.48912 53.7255C3.15247 60.2809 8.69152 65.3888 15.436 65.3888V64.3888V63.3888C9.72455 63.3888 5.0396 59.0646 4.47895 53.5241L3.48404 53.6248ZM15.436 64.3888V65.3888H29.836V64.3888V63.3888H15.436V64.3888ZM29.836 64.3888H28.836V66.8008H29.836H30.836V64.3888H29.836ZM29.836 66.8008V65.8008H15.436V66.8008V67.8008H29.836V66.8008ZM15.436 66.8008V65.8008C8.03232 65.8008 2.03604 59.8045 2.03604 52.4008H1.03604H0.0360353C0.0360353 60.9091 6.92775 67.8008 15.436 67.8008V66.8008ZM1.03604 103.801H0.0360353V104.801H1.03604V103.801ZM1.03604 88.2128V87.2128H0.0360353V88.2128H1.03604ZM3.44804 88.2128H4.44804V87.2128H3.44804V88.2128ZM3.44804 101.389H2.44804V102.389H3.44804V101.389ZM1.03604 77.4488H0.0360353V78.4488H1.03604V77.4488ZM1.03604 75.0008V74.0008H0.0360353V75.0008H1.03604ZM15.436 75.0008V76.0008C22.8038 76.0008 28.836 82.0331 28.836 89.4008H29.836H30.836C30.836 80.9285 23.9083 74.0008 15.436 74.0008V75.0008ZM29.836 89.4008H28.836C28.836 96.8029 22.8054 102.801 15.436 102.801V103.801V104.801C23.9067 104.801 30.836 97.9107 30.836 89.4008H29.836ZM15.436 103.801V102.801H1.03604V103.801V104.801H15.436V103.801ZM1.03604 103.801H2.03604V88.2128H1.03604H0.0360353V103.801H1.03604ZM1.03604 88.2128V89.2128H3.44804V88.2128V87.2128H1.03604V88.2128ZM3.44804 88.2128H2.44804V101.389H3.44804H4.44804V88.2128H3.44804ZM3.44804 101.389V102.389H15.436V101.389V100.389H3.44804V101.389ZM15.436 101.389V102.389C22.5783 102.389 28.388 96.5751 28.388 89.4008H27.388H26.388C26.388 95.4745 21.4698 100.389 15.436 100.389V101.389ZM27.388 89.4008H28.388C28.388 82.2605 22.5763 76.4488 15.436 76.4488V77.4488V78.4488C21.4718 78.4488 26.388 83.3651 26.388 89.4008H27.388ZM15.436 77.4488V76.4488H1.03604V77.4488V78.4488H15.436V77.4488ZM1.03604 77.4488H2.03604V75.0008H1.03604H0.0360353V77.4488H1.03604ZM1.03604 75.0008V76.0008H15.436V75.0008V74.0008H1.03604V75.0008ZM22.6861 114.449V115.449H23.6861V114.449H22.6861ZM20.2741 114.449V113.449H19.2741V114.449H20.2741ZM20.2741 138.389H19.2741V139.389H20.2741V138.389ZM22.6861 138.389H23.6861V137.389H22.6861V138.389ZM22.6861 140.801V141.801H23.6861V140.801H22.6861ZM15.4141 140.801H14.4141V141.801H15.4141V140.801ZM15.4141 138.389V137.389H14.4141V138.389H15.4141ZM17.8261 138.389V139.389H18.8261V138.389H17.8261ZM17.8261 114.449H18.8261V113.449H17.8261V114.449ZM15.4141 114.449H14.4141V115.449H15.4141V114.449ZM15.4141 112.001V111.001H14.4141V112.001H15.4141ZM22.6861 112.001H23.6861V111.001H22.6861V112.001ZM22.6861 114.449V113.449H20.2741V114.449V115.449H22.6861V114.449ZM20.2741 114.449H19.2741V138.389H20.2741H21.2741V114.449H20.2741ZM20.2741 138.389V139.389H22.6861V138.389V137.389H20.2741V138.389ZM22.6861 138.389H21.6861V140.801H22.6861H23.6861V138.389H22.6861ZM22.6861 140.801V139.801H15.4141V140.801V141.801H22.6861V140.801ZM15.4141 140.801H16.4141V138.389H15.4141H14.4141V140.801H15.4141ZM15.4141 138.389V139.389H17.8261V138.389V137.389H15.4141V138.389ZM17.8261 138.389H18.8261V114.449H17.8261H16.8261V138.389H17.8261ZM17.8261 114.449V113.449H15.4141V114.449V115.449H17.8261V114.449ZM15.4141 114.449H16.4141V112.001H15.4141H14.4141V114.449H15.4141ZM15.4141 112.001V113.001H22.6861V112.001V111.001H15.4141V112.001ZM22.6861 112.001H21.6861V114.449H22.6861H23.6861V112.001H22.6861ZM29.836 149.001H30.836V148.001H29.836V149.001ZM1.03604 163.401V162.401H0.0360353V163.401H1.03604ZM3.44804 163.401H4.44804V162.401H3.44804V163.401ZM27.388 151.449H28.388V150.449H27.388V151.449ZM24.976 151.449H23.976V152.449H24.976V151.449ZM24.976 149.001V148.001H23.976V149.001H24.976ZM27.388 149.001V150.001H29.836V149.001V148.001H27.388V149.001ZM29.836 149.001H28.836V163.401H29.836H30.836V149.001H29.836ZM29.836 163.401H28.836C28.836 170.803 22.8054 176.801 15.436 176.801V177.801V178.801C23.9067 178.801 30.836 171.911 30.836 163.401H29.836ZM15.436 177.801V176.801C8.03232 176.801 2.03604 170.804 2.03604 163.401H1.03604H0.0360353C0.0360353 171.909 6.92775 178.801 15.436 178.801V177.801ZM1.03604 163.401V164.401H3.44804V163.401V162.401H1.03604V163.401ZM3.44804 163.401H2.44804C2.44804 170.577 8.25975 176.389 15.436 176.389V175.389V174.389C9.36432 174.389 4.44804 169.473 4.44804 163.401H3.44804ZM15.436 175.389V176.389C22.5783 176.389 28.388 170.575 28.388 163.401H27.388H26.388C26.388 169.474 21.4698 174.389 15.436 174.389V175.389ZM27.388 163.401H28.388V151.449H27.388H26.388V163.401H27.388ZM27.388 151.449V150.449H24.976V151.449V152.449H27.388V151.449ZM24.976 151.449H25.976V149.001H24.976H23.976V151.449H24.976ZM24.976 149.001V150.001H27.388V149.001V148.001H24.976V149.001ZM29.836 186.001H30.836V185.001H29.836V186.001ZM29.836 188.449V189.449H30.836V188.449H29.836ZM1.03604 214.801H0.0360353V215.801H1.03604V214.801ZM1.03604 212.389V211.389H0.0360353V212.389H1.03604ZM8.81204 186.001V187.001H29.836V186.001V185.001H8.81204V186.001ZM29.836 186.001H28.836V188.449H29.836H30.836V186.001H29.836ZM29.836 188.449V187.449H8.81204V188.449V189.449H29.836V188.449ZM8.81204 188.449V187.449C5.30775 187.449 2.44804 190.309 2.44804 193.813H3.44804H4.44804C4.44804 191.413 6.41232 189.449 8.81204 189.449V188.449ZM3.44804 193.813H2.44804C2.44804 197.349 5.3034 200.213 8.81204 200.213V199.213V198.213C6.41667 198.213 4.44804 196.253 4.44804 193.813H3.44804ZM8.81204 199.213V200.213H22.024V199.213V198.213H8.81204V199.213ZM22.024 199.213V200.213C25.7588 200.213 28.836 203.26 28.836 207.025H29.836H30.836C30.836 202.15 26.8573 198.213 22.024 198.213V199.213ZM29.836 207.025H28.836C28.836 210.751 25.7618 213.801 22.024 213.801V214.801V215.801C26.8543 215.801 30.836 211.867 30.836 207.025H29.836ZM22.024 214.801V213.801H1.03604V214.801V215.801H22.024V214.801ZM1.03604 214.801H2.03604V212.389H1.03604H0.0360353V214.801H1.03604ZM1.03604 212.389V213.389H22.024V212.389V211.389H1.03604V212.389ZM22.024 212.389V213.389C25.5283 213.389 28.388 210.529 28.388 207.025H27.388H26.388C26.388 209.424 24.4238 211.389 22.024 211.389V212.389ZM27.388 207.025H28.388C28.388 203.489 25.5327 200.625 22.024 200.625V201.625V202.625C24.4194 202.625 26.388 204.585 26.388 207.025H27.388ZM22.024 201.625V200.625H8.81204V201.625V202.625H22.024V201.625ZM8.81204 201.625V200.625C5.08333 200.625 2.03604 197.584 2.03604 193.813H1.03604H0.0360353C0.0360353 198.682 3.97275 202.625 8.81204 202.625V201.625ZM1.03604 193.813H2.03604C2.03604 190.075 5.08632 187.001 8.81204 187.001V186.001V185.001C3.96976 185.001 0.0360353 188.983 0.0360353 193.813H1.03604ZM26.056 223.001V222.001H25.691L25.4118 222.236L26.056 223.001ZM29.836 223.001L30.4794 223.766L32.5804 222.001H29.836V223.001ZM12.7 237.401L12.0567 236.635L11.1457 237.401L12.0567 238.166L12.7 237.401ZM29.836 251.801V252.801H32.5804L30.4794 251.035L29.836 251.801ZM26.056 251.801L25.4121 252.566L25.6912 252.801H26.056V251.801ZM10.828 238.985L11.4719 238.22L10.8272 237.677L10.1831 238.221L10.828 238.985ZM3.44804 245.213L2.8031 244.449L2.44804 244.748V245.213H3.44804ZM3.44804 251.801V252.801H4.44804V251.801H3.44804ZM1.00004 251.801H3.52859e-05V252.801H1.00004V251.801ZM1.00004 223.001V222.001H3.52859e-05V223.001H1.00004ZM3.44804 223.001H4.44804V222.001H3.44804V223.001ZM3.44804 242.045H2.44804V244.195L4.09228 242.81L3.44804 242.045ZM26.056 223.001V224.001H29.836V223.001V222.001H26.056V223.001ZM29.836 223.001L29.1927 222.235L12.0567 236.635L12.7 237.401L13.3434 238.166L30.4794 223.766L29.836 223.001ZM12.7 237.401L12.0567 238.166L29.1927 252.566L29.836 251.801L30.4794 251.035L13.3434 236.635L12.7 237.401ZM29.836 251.801V250.801H26.056V251.801V252.801H29.836V251.801ZM26.056 251.801L26.6999 251.036L11.4719 238.22L10.828 238.985L10.1841 239.75L25.4121 252.566L26.056 251.801ZM10.828 238.985L10.1831 238.221L2.8031 244.449L3.44804 245.213L4.09297 245.977L11.473 239.749L10.828 238.985ZM3.44804 245.213H2.44804V251.801H3.44804H4.44804V245.213H3.44804ZM3.44804 251.801V250.801H1.00004V251.801V252.801H3.44804V251.801ZM1.00004 251.801H2.00004V247.265H1.00004H3.52859e-05V251.801H1.00004ZM1.00004 247.265H2.00004V244.097H1.00004H3.52859e-05V247.265H1.00004ZM1.00004 244.097H2.00004V223.001H1.00004H3.52859e-05V244.097H1.00004ZM1.00004 223.001V224.001H3.44804V223.001V222.001H1.00004V223.001ZM3.44804 223.001H2.44804V242.045H3.44804H4.44804V223.001H3.44804ZM3.44804 242.045L4.09228 242.81L26.7003 223.766L26.056 223.001L25.4118 222.236L2.80379 241.28L3.44804 242.045ZM22.6861 262.449V263.449H23.6861V262.449H22.6861ZM20.2741 262.449V261.449H19.2741V262.449H20.2741ZM20.2741 286.389H19.2741V287.389H20.2741V286.389ZM22.6861 286.389H23.6861V285.389H22.6861V286.389ZM22.6861 288.801V289.801H23.6861V288.801H22.6861ZM15.4141 288.801H14.4141V289.801H15.4141V288.801ZM15.4141 286.389V285.389H14.4141V286.389H15.4141ZM17.8261 286.389V287.389H18.8261V286.389H17.8261ZM17.8261 262.449H18.8261V261.449H17.8261V262.449ZM15.4141 262.449H14.4141V263.449H15.4141V262.449ZM15.4141 260.001V259.001H14.4141V260.001H15.4141ZM22.6861 260.001H23.6861V259.001H22.6861V260.001ZM22.6861 262.449V261.449H20.2741V262.449V263.449H22.6861V262.449ZM20.2741 262.449H19.2741V286.389H20.2741H21.2741V262.449H20.2741ZM20.2741 286.389V287.389H22.6861V286.389V285.389H20.2741V286.389ZM22.6861 286.389H21.6861V288.801H22.6861H23.6861V286.389H22.6861ZM22.6861 288.801V287.801H15.4141V288.801V289.801H22.6861V288.801ZM15.4141 288.801H16.4141V286.389H15.4141H14.4141V288.801H15.4141ZM15.4141 286.389V287.389H17.8261V286.389V285.389H15.4141V286.389ZM17.8261 286.389H18.8261V262.449H17.8261H16.8261V286.389H17.8261ZM17.8261 262.449V261.449H15.4141V262.449V263.449H17.8261V262.449ZM15.4141 262.449H16.4141V260.001H15.4141H14.4141V262.449H15.4141ZM15.4141 260.001V261.001H22.6861V260.001V259.001H15.4141V260.001ZM22.6861 260.001H21.6861V262.449H22.6861H23.6861V260.001H22.6861Z" fill="white" mask="url(#path-1-outside-1_596_2479)"/>
</svg>
