<svg width="1440" height="1072" viewBox="0 0 1440 1072" fill="none" xmlns="http://www.w3.org/2000/svg">
<mask id="mask0_596_2352" style="mask-type:luminance" maskUnits="userSpaceOnUse" x="0" y="771" width="1465" height="303">
<path d="M0.708984 771.582H1464.73V1073.55H0.708984V771.582Z" fill="white"/>
</mask>
<g mask="url(#mask0_596_2352)">
<path fill-rule="evenodd" clip-rule="evenodd" d="M0.725418 1018.63L0.708984 911.869L0.840451 888.822L0.774718 853.116C0.774718 852.913 0.955486 852.758 1.16912 852.758L123.286 852.851C132.915 853.178 164.533 840.923 175.954 837.544C185.683 834.647 198.107 830.754 213.225 825.849C223.726 822.439 236.462 820.119 251.417 818.873C259.83 819.185 266.157 819.854 270.348 820.882C287.11 825.024 310.347 830.054 330.132 836.501C338.119 839.101 348.127 842.029 360.14 845.252C368.209 847.432 375.669 849.83 382.522 852.446C383.541 852.82 385.25 853.007 387.649 852.991C411.642 852.773 435.635 852.711 459.611 852.804C463.046 853.054 465.691 852.913 467.581 852.384C485.954 847.261 498.377 843.85 504.836 842.153C519.33 838.338 530.817 834.974 539.28 832.094C553.741 827.157 567.874 823.405 584.817 817.627C602.976 811.43 624.717 804.235 650.074 796.029C665.225 791.124 680.804 786.701 696.81 782.746C716.58 777.888 735.067 774.618 752.289 772.951C763.711 771.846 775.888 771.643 788.821 772.375C802.329 772.936 816.544 774.664 831.465 777.53C856.608 782.372 873.436 785.783 895.95 792.432C908.982 796.309 926.45 800.763 941.717 806.198C959.843 812.675 981.716 819.387 1001.44 827.375C1005.63 829.073 1014.19 832.234 1027.14 836.828C1037.42 840.503 1048.98 845.501 1059.41 849.41C1061.8 850.297 1064.06 851.014 1066.18 851.59C1068.32 850.422 1070.06 849.674 1071.38 849.347C1079.25 847.401 1086.43 845.33 1092.92 843.134C1113.48 836.127 1123.45 833.371 1149.76 825.149C1160.89 821.66 1172.39 819.683 1184.29 819.2C1187.77 819.325 1190.75 819.543 1193.21 819.854C1206.9 821.629 1220.49 824.51 1234 828.512C1246.95 832.343 1253.44 834.258 1253.47 834.274C1272.29 839.662 1284.22 843.274 1289.27 845.096C1300.15 849.052 1307.64 851.574 1311.75 852.695C1312.11 852.789 1312.49 852.836 1312.86 852.836H1463.2C1463.54 852.836 1463.84 853.116 1463.84 853.458V1072.56C1463.84 1072.76 1463.67 1072.91 1463.46 1072.91L763.086 1072.95L1.36632 1073.01C1.02122 1073.01 0.741851 1072.74 0.741851 1072.4L0.725418 1018.63Z" fill="#401268"/>
</g>
<mask id="mask1_596_2352" style="mask-type:luminance" maskUnits="userSpaceOnUse" x="0" y="771" width="1029" height="303">
<path d="M0.708984 771.582H1028.04V1073.55H0.708984V771.582Z" fill="white"/>
</mask>
<g mask="url(#mask1_596_2352)">
<path fill-rule="evenodd" clip-rule="evenodd" d="M788.821 772.375C789.314 774.68 789.905 776.985 790.579 779.258C792.14 784.49 794.77 788.15 798.073 793.818C798.96 795.344 802.198 799.766 807.801 807.116C811.236 811.617 814.868 815.743 818.713 819.527C845.154 845.563 878.876 864.982 913.945 879.977C935.571 889.212 956.523 897.216 976.934 907.945C990.968 915.31 1002.64 923.283 1011.95 931.848C1023.79 942.732 1036.13 961.154 1017.18 973.331C1012.18 976.539 1007.02 978.813 1001.7 980.152C986.514 983.951 970.311 985.96 953.056 986.178C903.887 986.785 851.744 978.595 803.003 966.822C789.462 963.552 771.385 959.208 757.252 954.956C735.642 948.447 712.077 941.269 686.572 933.42C662.711 926.086 639.754 920.044 617.717 915.326C613.707 914.469 609.401 913.675 604.833 912.959C594.43 911.308 582.763 908.692 572.508 907.384C556.601 905.391 540.545 904.457 524.359 904.612C524.161 904.612 523.997 904.768 523.997 904.97C523.997 905.002 524.013 905.033 524.013 905.079C524.096 905.313 524.26 905.469 524.523 905.578C531.901 907.041 538.261 909.222 543.602 912.118C555.73 918.736 566.297 924.684 575.729 934.152C584.045 942.514 593.937 952.231 605.392 963.303C616.418 973.939 626.804 983.219 636.549 991.161C655.645 1006.7 676.318 1021.99 697.813 1035.26C706.835 1040.84 714.789 1045.88 721.674 1050.43C724.829 1052.51 728.773 1054.59 733.506 1056.64C737.96 1058.57 741.969 1060.53 745.503 1062.51C751.419 1065.84 757.285 1069.32 763.086 1072.95L1.36632 1073.01C1.02122 1073.01 0.741851 1072.74 0.741851 1072.4L0.725418 1018.63L0.708984 911.869C15.9263 912.414 31.6037 913.224 46.213 913.052C81.0846 912.663 115.775 910.903 150.302 907.789C203.185 903.024 256.297 895.861 309.624 886.315C309.673 886.315 310.593 886.082 312.401 885.646C313.387 885.412 314.488 885.256 315.72 885.178C323.608 883.855 331.776 882.313 340.19 880.585C353.353 877.891 367.617 875.228 382.999 872.612C391.889 871.086 402.867 867.598 411.773 865.729C426.564 862.661 442.126 858.955 458.444 854.642C458.806 854.548 459.085 854.299 459.2 853.972L459.611 852.804C463.046 853.054 465.691 852.913 467.581 852.384C485.954 847.261 498.377 843.85 504.836 842.153C519.33 838.338 530.817 834.974 539.28 832.094C553.741 827.157 567.874 823.405 584.817 817.627C602.976 811.43 624.717 804.235 650.074 796.029C665.225 791.124 680.804 786.701 696.81 782.746C716.58 777.888 735.067 774.618 752.289 772.951C763.711 771.846 775.888 771.643 788.821 772.375Z" fill="#000B3D"/>
</g>
<path fill-rule="evenodd" clip-rule="evenodd" d="M1184.29 819.201C1185.44 825.274 1187.12 831.16 1189.37 836.875C1191.41 842.045 1194.13 845.923 1198.46 849.862C1210.27 860.591 1223.14 870.682 1233.28 882.532C1240.46 890.894 1242.09 900.736 1234.82 909.456C1234.53 909.814 1234.05 910.032 1233.56 910.032C1233.41 910.032 1233.25 910.001 1233.1 909.97C1224.78 907.603 1215.3 905.423 1206.44 902.371C1205.46 902.028 1203.12 901.234 1199.41 900.02C1166.38 889.104 1141.94 880.617 1126.13 874.544C1123.68 873.61 1117.85 871.616 1108.63 868.549C1098.48 865.185 1089.49 860.778 1078.8 856.714C1074.61 855.11 1070.41 853.397 1066.18 851.591C1068.32 850.423 1070.06 849.675 1071.38 849.348C1079.25 847.402 1086.43 845.331 1092.92 843.135C1113.48 836.128 1123.45 833.372 1149.76 825.15C1160.89 821.662 1172.39 819.684 1184.29 819.201Z" fill="#000B3D"/>
<mask id="mask2_596_2352" style="mask-type:luminance" maskUnits="userSpaceOnUse" x="0" y="817" width="318" height="97">
<path d="M0.708984 817.645H317.068V913.319H0.708984V817.645Z" fill="white"/>
</mask>
<g mask="url(#mask2_596_2352)">
<path fill-rule="evenodd" clip-rule="evenodd" d="M251.417 818.875C251.417 819.155 251.252 819.295 250.956 819.327C250.776 819.342 250.628 819.498 250.628 819.669C250.628 819.747 250.677 819.84 250.726 819.903L250.989 820.152C251.17 820.323 251.269 820.541 251.269 820.759C251.269 820.775 251.269 820.79 251.269 820.79C251.154 826.023 252.09 830.102 254.112 833.045C258.976 840.162 264.645 845.347 270.233 850.984C272.435 853.18 275.738 855.656 277.858 856.886C287.636 862.539 293.338 865.965 294.949 867.148C302.13 872.411 309.048 878.422 315.72 885.18C314.488 885.258 313.387 885.414 312.401 885.648C310.593 886.084 309.673 886.317 309.624 886.317C256.297 895.863 203.185 903.026 150.302 907.791C115.775 910.905 81.0846 912.665 46.213 913.054C31.6037 913.225 15.9263 912.416 0.708984 911.871L0.840451 888.824C9.38581 886.193 19.7224 883.685 31.8502 881.319C62.3177 875.37 102.202 861.106 132.718 851.358C148.314 846.359 161.23 841.89 175.955 837.546C185.683 834.649 198.107 830.756 213.225 825.851C223.726 822.441 236.462 820.121 251.417 818.875Z" fill="#020C45"/>
</g>
<mask id="mask3_596_2352" style="mask-type:luminance" maskUnits="userSpaceOnUse" x="0" y="901" width="768" height="173">
<path d="M0.708984 901.359H767.211V1073.55H0.708984V901.359Z" fill="white"/>
</mask>
<g mask="url(#mask3_596_2352)">
<path fill-rule="evenodd" clip-rule="evenodd" d="M524.523 905.58C531.902 907.044 538.261 909.224 543.602 912.12C555.73 918.738 566.297 924.687 575.729 934.154C584.045 942.517 593.938 952.234 605.392 963.305C616.419 973.941 626.804 983.222 636.549 991.163C655.645 1006.7 676.318 1022 697.813 1035.26C706.835 1040.84 714.789 1045.88 721.674 1050.43C724.83 1052.52 728.774 1054.59 733.506 1056.64C737.96 1058.57 741.97 1060.54 745.503 1062.51C751.419 1065.85 757.285 1069.32 763.086 1072.95L1.36649 1073.01C1.02139 1073.01 0.742019 1072.74 0.742019 1072.4L0.725586 1018.63C19.7554 1017.08 38.6703 1015.04 57.4536 1012.53C144.978 1000.85 230.859 981.337 315.063 953.978C324.282 950.988 343.855 944.603 373.78 934.855C398.989 926.633 424.592 919.61 450.589 913.74C471.115 909.115 491.278 906.203 511.081 904.988C515.156 904.739 519.642 904.941 524.523 905.58Z" fill="#020C45"/>
</g>
</svg>
