<svg width="40" height="40" viewBox="0 0 40 40" fill="none" xmlns="http://www.w3.org/2000/svg">
<path d="M20 1V39M20 1C20 1 12.1522 12.3183 12.1522 20C12.1522 27.6817 20 39 20 39M20 1C20 1 28.3986 12.3183 28.3986 20C28.3986 27.6817 20 39 20 39M20 1C39 1 39 20 39 20M20 1C1 1 1 20 1 20M20 39C1 39 1 20 1 20M20 39C39 39 39 20 39 20M1 20C1 20 24.1601 20 39 20M3.375 10.5C16.2637 13.5135 23.545 13.9151 36.6938 10.5M36.625 29.5C28.9588 26.8598 10.592 27.3183 3.375 29.5" stroke="white" stroke-width="2"/>
</svg>
