<svg width="43" height="59" viewBox="0 0 43 59" fill="none" xmlns="http://www.w3.org/2000/svg">
<path fill-rule="evenodd" clip-rule="evenodd" d="M21.5 57.5C21.5 57.5 42.5 39 42.5 25.3634C42.5 11.7269 34.2097 0.500026 21.5 0.5C8.79034 0.499974 0.5 11.7269 0.5 25.3634C0.5 39 21.5 57.5 21.5 57.5ZM7.5 22C7.5 13.9919 13.768 7.5 21.5 7.5C29.232 7.5 35.5 13.9919 35.5 22C35.5 29.1602 30.489 35.1083 23.9011 36.2876C23.1209 36.4272 22.3187 36.5 21.5 36.5C20.4758 36.5 19.4773 36.3861 18.5156 36.1698C12.2174 34.7535 7.5 28.9474 7.5 22Z" fill="white"/>
<path d="M18.5156 36.1698C19.4773 36.3861 20.4758 36.5 21.5 36.5C22.3187 36.5 23.1209 36.4272 23.9011 36.2876V28.8455C23.9011 28.8455 26.669 28.7836 28.0625 27.8314C31.1909 25.6938 30.2657 17.9436 30.2657 17.9436C30.2657 17.9436 30.2657 16.6759 28.9193 16.6759C27.5729 16.6759 27.5729 17.9436 27.5729 17.9436C27.5729 17.9436 28.2307 23.6926 25.925 25.2961C25.2269 25.7815 23.9011 26.0567 23.9011 26.0567V13.1264C23.9011 13.1264 23.9011 10.8446 21.2084 10.8446C18.5156 10.8446 18.5156 13.1264 18.5156 13.1264V22C18.5156 22 17.5907 21.475 17.1226 20.986C15.4327 19.2207 15.4602 16.0518 15.4602 16.0518C15.4602 16.0518 15.4602 14.7841 14.3194 14.7841C13.1786 14.7841 12.8506 16.0518 12.8506 16.0518C12.8506 16.0518 12.1329 22.1079 15.0886 24.5355C16.2294 25.4725 18.5156 26.0567 18.5156 26.0567V36.1698Z" fill="white"/>
<path d="M18.5156 36.1698C19.4773 36.3861 20.4758 36.5 21.5 36.5C22.3187 36.5 23.1209 36.4272 23.9011 36.2876M18.5156 36.1698C12.2174 34.7535 7.5 28.9474 7.5 22C7.5 13.9919 13.768 7.5 21.5 7.5C29.232 7.5 35.5 13.9919 35.5 22C35.5 29.1602 30.489 35.1083 23.9011 36.2876M18.5156 36.1698V26.0567C18.5156 26.0567 16.2294 25.4725 15.0886 24.5355C12.133 22.1079 12.8506 16.0518 12.8506 16.0518C12.8506 16.0518 13.1786 14.7841 14.3194 14.7841C15.4602 14.7841 15.4602 16.0518 15.4602 16.0518C15.4602 16.0518 15.4327 19.2207 17.1226 20.986C17.5907 21.475 18.5156 22 18.5156 22V13.1264C18.5156 13.1264 18.5156 10.8446 21.2084 10.8446C23.9011 10.8446 23.9011 13.1264 23.9011 13.1264V26.0567C23.9011 26.0567 25.2269 25.7815 25.925 25.2961C28.2307 23.6926 27.5729 17.9436 27.5729 17.9436C27.5729 17.9436 27.5729 16.6759 28.9193 16.6759C30.2657 16.6759 30.2657 17.9436 30.2657 17.9436C30.2657 17.9436 31.1909 25.6938 28.0625 27.8314C26.669 28.7836 23.9011 28.8455 23.9011 28.8455V36.2876M0.5 25.3634C0.5 39 21.5 57.5 21.5 57.5C21.5 57.5 42.5 39 42.5 25.3634C42.5 11.7269 34.2097 0.500026 21.5 0.5C8.79034 0.499974 0.5 11.7269 0.5 25.3634Z" stroke="white"/>
</svg>
