<svg width="47" height="43" viewBox="0 0 47 43" fill="none" xmlns="http://www.w3.org/2000/svg">
<g filter="url(#filter0_d_982_3867)">
<mask id="mask0_982_3867" style="mask-type:luminance" maskUnits="userSpaceOnUse" x="0" y="0" width="47" height="43">
<path d="M47 0H0V42.6457H47V0Z" fill="white"/>
<path d="M46.5 0.5V42.1455H0.5V0.5H46.5Z" stroke="white"/>
</mask>
<g mask="url(#mask0_982_3867)">
<path d="M35.2497 26.6538C34.7915 26.6547 34.3489 26.5101 33.9964 26.2451L23.4997 18.2846L12.9835 25.9608C12.7837 26.1085 12.5526 26.2187 12.3039 26.2851C12.0572 26.3517 11.7987 26.3732 11.5421 26.3484C11.2856 26.3237 11.0369 26.2531 10.8097 26.1408C10.5825 26.0285 10.3828 25.8768 10.2222 25.6943C10.0597 25.5125 9.93825 25.3034 9.86384 25.0789C9.79138 24.8543 9.76787 24.6191 9.79529 24.3861C9.82271 24.1534 9.89909 23.9277 10.0244 23.7223C10.1478 23.5167 10.3142 23.3354 10.5159 23.1889L22.2659 14.6064C22.6165 14.345 23.0552 14.2021 23.5095 14.2021C23.9619 14.2021 24.4025 14.345 24.753 14.6064L36.503 23.4909C36.7008 23.6402 36.8653 23.8234 36.9848 24.03C37.1042 24.2369 37.1787 24.4631 37.2022 24.6957C37.2257 24.9284 37.2002 25.1632 37.1238 25.3863C37.0455 25.6095 36.9221 25.8169 36.7576 25.9964C36.5755 26.2002 36.3444 26.3649 36.0839 26.4786C35.8235 26.5922 35.5395 26.652 35.2497 26.6538Z" fill="white" fill-opacity="0.5"/>
<path d="M23.5098 14.7021C23.8572 14.7022 24.191 14.8112 24.4512 15.0039V15.0049L36.2012 23.8896H36.2021C36.3496 24.0009 36.4677 24.1349 36.5518 24.2803C36.6371 24.4281 36.689 24.5866 36.7051 24.7461C36.7215 24.9091 36.7028 25.0715 36.6504 25.2246C36.5944 25.3825 36.5065 25.5297 36.3887 25.6582L36.3848 25.6631C36.2532 25.8103 36.082 25.9339 35.8838 26.0205C35.6865 26.1064 35.4698 26.1519 35.2471 26.1533C34.8945 26.1537 34.5596 26.0429 34.2979 25.8467H34.2988L23.8018 17.8857L23.5059 17.6611L23.2051 17.8809L12.6885 25.5566L12.6865 25.5586C12.5392 25.6675 12.3653 25.7509 12.1748 25.8018L12.1738 25.8027C11.9858 25.8535 11.7877 25.8696 11.5908 25.8506H11.5898C11.3929 25.8316 11.2031 25.7774 11.0312 25.6924C10.86 25.6077 10.7132 25.4955 10.5977 25.3643L10.5947 25.3613L10.5127 25.2588C10.4617 25.1886 10.4184 25.1148 10.3838 25.0381L10.3389 24.9219C10.289 24.7658 10.2732 24.6038 10.292 24.4443C10.3111 24.2821 10.364 24.1252 10.4512 23.9824L10.4531 23.9795C10.5409 23.8332 10.6609 23.7019 10.8096 23.5938L10.8105 23.5928L22.5605 15.0098L22.5645 15.0068C22.8253 14.8123 23.1589 14.7021 23.5098 14.7021Z" stroke="#002440" stroke-opacity="0.5"/>
</g>
</g>
<defs>
<filter id="filter0_d_982_3867" x="5.78418" y="14.2021" width="35.4268" height="26.4521" filterUnits="userSpaceOnUse" color-interpolation-filters="sRGB">
<feFlood flood-opacity="0" result="BackgroundImageFix"/>
<feColorMatrix in="SourceAlpha" type="matrix" values="0 0 0 0 0 0 0 0 0 0 0 0 0 0 0 0 0 0 127 0" result="hardAlpha"/>
<feOffset dy="10"/>
<feGaussianBlur stdDeviation="2"/>
<feComposite in2="hardAlpha" operator="out"/>
<feColorMatrix type="matrix" values="0 0 0 0 0 0 0 0 0 0 0 0 0 0 0 0 0 0 0.25 0"/>
<feBlend mode="normal" in2="BackgroundImageFix" result="effect1_dropShadow_982_3867"/>
<feBlend mode="normal" in="SourceGraphic" in2="effect1_dropShadow_982_3867" result="shape"/>
</filter>
</defs>
</svg>
