<svg width="53" height="44" viewBox="0 0 53 44" fill="none" xmlns="http://www.w3.org/2000/svg">
<g filter="url(#filter0_d_982_3862)">
<mask id="mask0_982_3862" style="mask-type:luminance" maskUnits="userSpaceOnUse" x="-1" y="0" width="54" height="53">
<path d="M0 52.0247L52.6812 52.0247V0L0 0V52.0247Z" fill="white"/>
<path d="M0.499573 51.5247V0.500256L52.1812 0.500256V51.5247L0.499573 51.5247Z" stroke="white"/>
</mask>
<g mask="url(#mask0_982_3862)">
<path d="M13.1707 19.5094C13.6843 19.5083 14.1804 19.6847 14.5755 20.0079L26.341 29.7192L38.1284 20.3548C38.3523 20.1746 38.6113 20.0402 38.8901 19.9591C39.1667 19.8779 39.4564 19.8516 39.744 19.882C40.0315 19.9121 40.3103 19.9982 40.5649 20.1352C40.8195 20.2722 41.0434 20.4573 41.2234 20.6799C41.4056 20.9017 41.5417 21.1568 41.6251 21.4306C41.7063 21.7046 41.7327 21.9916 41.702 22.2758C41.6712 22.5597 41.5856 22.835 41.4451 23.0856C41.3068 23.3364 41.1203 23.5575 40.8942 23.7364L27.7239 34.2063C27.331 34.5252 26.8393 34.6995 26.33 34.6995C25.823 34.6995 25.3291 34.5252 24.9362 34.2063L11.7659 23.3679C11.5442 23.1858 11.3598 22.9623 11.2259 22.7102C11.092 22.4579 11.0086 22.1819 10.9822 21.8982C10.9559 21.6142 10.9844 21.3278 11.07 21.0556C11.1578 20.7833 11.2961 20.5303 11.4805 20.3114C11.6846 20.0628 11.9437 19.8618 12.2356 19.7231C12.5276 19.5846 12.8458 19.5115 13.1707 19.5094Z" fill="white" fill-opacity="0.5"/>
<path d="M26.3297 34.1995C25.9369 34.1994 25.5546 34.0644 25.2515 33.8186L12.0836 22.9817C11.9117 22.8406 11.7697 22.6681 11.6675 22.4758C11.5641 22.2808 11.5002 22.0686 11.48 21.8518C11.4596 21.6317 11.4824 21.412 11.5474 21.2053C11.616 20.9944 11.7223 20.7999 11.8629 20.6331L11.8668 20.6292C12.0232 20.4387 12.2232 20.2828 12.4498 20.1751C12.6756 20.0679 12.9218 20.0118 13.1734 20.01C13.5707 20.0096 13.9537 20.145 14.2584 20.3938H14.2574L26.023 30.1047L26.3345 30.3626L26.6519 30.1106L38.439 20.7463L38.442 20.7444C38.6138 20.6062 38.8136 20.5026 39.0298 20.4397L39.0308 20.4387C39.2445 20.3759 39.4693 20.3557 39.692 20.3792C39.9145 20.4025 40.1303 20.4693 40.3277 20.5755C40.5245 20.6814 40.6968 20.8241 40.8345 20.9944L40.8375 20.9973C40.9776 21.168 41.0826 21.3649 41.147 21.5764C41.2087 21.7862 41.2281 22.0053 41.2047 22.2219C41.1809 22.4413 41.1156 22.6515 41.0093 22.8411L41.0074 22.844C40.901 23.0369 40.7572 23.2067 40.5836 23.344L40.5826 23.345L27.4127 33.8147L27.2916 33.9055C27.0101 34.0963 26.6752 34.1995 26.3297 34.1995Z" stroke="#002440" stroke-opacity="0.5"/>
</g>
</g>
<defs>
<filter id="filter0_d_982_3862" x="6.97321" y="19.509" width="38.7412" height="29.1904" filterUnits="userSpaceOnUse" color-interpolation-filters="sRGB">
<feFlood flood-opacity="0" result="BackgroundImageFix"/>
<feColorMatrix in="SourceAlpha" type="matrix" values="0 0 0 0 0 0 0 0 0 0 0 0 0 0 0 0 0 0 127 0" result="hardAlpha"/>
<feOffset dy="10"/>
<feGaussianBlur stdDeviation="2"/>
<feComposite in2="hardAlpha" operator="out"/>
<feColorMatrix type="matrix" values="0 0 0 0 0 0 0 0 0 0 0 0 0 0 0 0 0 0 0.25 0"/>
<feBlend mode="normal" in2="BackgroundImageFix" result="effect1_dropShadow_982_3862"/>
<feBlend mode="normal" in="SourceGraphic" in2="effect1_dropShadow_982_3862" result="shape"/>
</filter>
</defs>
</svg>
